{"glyphs":{"0":{"ha":861,"x_min":74,"x_max":787,"o":"m 421 -17 q 615 41 533 -17 q 742 214 697 98 q 787 501 787 330 q 756 764 787 647 q 647 956 724 882 q 440 1031 569 1031 q 245 973 327 1031 q 119 800 163 916 q 74 513 74 685 q 106 250 74 368 q 214 58 137 132 q 421 -17 291 -17 m 440 49 q 281 106 340 49 q 197 270 222 164 q 173 533 173 376 q 204 782 173 697 q 271 903 235 867 q 333 945 298 929 q 421 960 369 960 q 581 903 522 960 q 664 739 640 845 q 688 476 688 633 q 671 284 688 361 q 633 167 654 206 q 590 106 612 128 q 528 64 563 80 q 440 49 492 49 m 428 401 q 384 417 401 401 q 361 458 368 433 q 355 513 355 483 q 376 595 355 567 q 433 623 397 623 q 477 607 460 623 q 500 567 493 592 q 506 511 506 542 q 485 429 506 457 q 428 401 465 401 "},"1":{"ha":861,"x_min":106,"x_max":769,"o":"m 387 0 l 474 0 l 474 1021 l 426 1021 l 119 931 l 106 855 l 451 944 l 387 976 l 387 0 m 106 76 l 119 0 l 756 0 l 769 76 l 106 76 "},"2":{"ha":861,"x_min":101,"x_max":776,"o":"m 392 1031 q 551 1005 478 1031 q 670 919 624 980 q 716 758 716 858 q 666 558 716 657 q 525 359 616 459 q 289 131 433 258 l 226 76 l 776 76 l 756 0 l 122 0 l 101 63 l 282 228 q 457 398 389 327 q 577 560 525 469 q 628 744 628 651 q 600 856 628 809 q 518 927 572 903 q 390 952 465 952 q 244 931 319 952 q 101 876 169 910 l 109 962 q 246 1013 175 995 q 392 1031 317 1031 "},"3":{"ha":861,"x_min":94,"x_max":731,"o":"m 283 557 l 580 938 l 94 938 l 119 1014 l 663 1014 l 682 942 l 404 594 q 575 517 504 558 q 689 418 647 476 q 731 283 731 360 q 676 127 731 195 q 513 22 620 60 q 257 -17 406 -17 q 199 -15 223 -17 q 155 -10 176 -13 q 142 -8 149 -9 l 113 80 q 265 66 190 66 q 471 94 388 66 q 596 169 555 122 q 638 277 638 217 q 597 385 638 337 q 481 471 556 433 q 294 544 406 510 l 283 557 "},"4":{"ha":861,"x_min":69,"x_max":789,"o":"m 148 412 l 586 944 l 552 978 l 552 0 l 640 0 l 640 1021 l 559 1021 l 69 429 l 85 361 l 789 361 l 789 434 l 610 434 l 585 434 l 114 434 l 148 412 "},"5":{"ha":861,"x_min":127,"x_max":724,"o":"m 242 1014 l 681 1014 l 699 938 l 303 938 l 262 613 q 549 529 447 579 q 688 421 651 478 q 724 297 724 364 q 664 128 724 199 q 501 20 604 58 q 274 -17 399 -17 q 210 -14 239 -17 q 151 -6 181 -11 l 127 83 q 199 70 162 75 q 276 66 236 66 q 458 94 376 66 q 588 170 540 122 q 636 280 636 219 q 593 385 636 337 q 470 470 551 433 q 276 530 389 507 q 181 546 243 537 l 242 1014 "},"6":{"ha":861,"x_min":102,"x_max":777,"o":"m 102 469 q 144 194 102 302 q 262 34 185 85 q 444 -17 338 -17 q 622 29 547 -17 q 737 152 697 74 q 777 324 777 229 q 740 475 777 413 q 640 568 703 538 q 503 599 578 599 q 354 570 429 599 q 206 487 279 542 l 169 487 l 194 450 q 198 550 194 500 q 228 725 206 659 q 279 823 251 792 q 351 877 303 850 q 486 925 399 904 q 699 946 574 945 l 684 1031 q 356 966 485 1034 q 164 772 226 899 q 102 469 102 646 m 200 417 q 225 435 213 426 q 353 502 288 478 q 484 526 419 526 q 594 501 547 526 q 666 428 641 476 q 691 313 691 380 q 661 178 691 239 q 578 83 631 118 q 456 48 524 48 q 317 95 375 48 q 229 227 259 143 q 200 417 199 310 "},"7":{"ha":861,"x_min":101,"x_max":750,"o":"m 750 942 l 729 1014 l 129 1014 l 101 938 l 695 938 l 688 968 q 539 712 622 868 q 377 368 456 556 q 244 0 298 181 l 341 0 q 440 298 383 149 q 559 580 497 447 q 681 822 620 713 q 750 942 714 884 "},"8":{"ha":861,"x_min":85,"x_max":796,"o":"m 453 1031 q 295 1000 365 1031 q 186 912 225 969 q 147 780 147 855 q 217 612 147 685 q 420 488 288 540 q 588 411 525 446 q 682 333 650 376 q 714 235 714 291 q 692 154 714 186 q 640 100 669 122 q 566 63 610 78 q 450 48 522 48 q 301 74 362 48 q 209 147 240 101 q 179 251 179 192 q 241 393 179 334 q 419 506 302 453 l 383 531 q 242 470 309 508 q 130 374 175 433 q 85 241 85 316 q 125 113 85 172 q 241 19 165 54 q 420 -17 317 -17 q 609 18 523 -17 q 745 112 695 52 q 796 246 796 172 q 760 367 796 317 q 651 457 724 416 q 441 553 578 497 q 304 632 353 590 q 239 714 256 674 q 222 798 222 755 q 236 871 222 844 q 272 915 250 898 q 426 963 331 963 q 540 943 488 963 q 625 883 593 923 q 656 786 656 843 q 629 684 656 732 q 553 597 601 635 q 441 529 505 558 l 478 504 q 663 621 588 549 q 737 797 737 692 q 703 916 737 863 q 606 1000 669 969 q 453 1031 542 1031 "},"9":{"ha":861,"x_min":84,"x_max":759,"o":"m 759 544 q 717 820 759 712 q 599 980 676 928 q 417 1031 523 1031 q 239 985 315 1031 q 124 862 164 940 q 84 690 84 785 q 121 539 84 601 q 221 445 158 476 q 358 415 283 415 q 507 443 432 415 q 656 527 582 472 l 692 527 l 667 564 q 663 464 667 514 q 633 289 656 355 q 582 191 610 222 q 510 137 558 164 q 375 89 462 110 q 163 68 288 69 l 177 -17 q 506 48 376 -20 q 697 242 635 115 q 759 544 759 368 m 661 597 q 636 578 649 588 q 508 512 573 535 q 377 488 442 488 q 267 513 314 488 q 195 586 220 538 q 170 701 170 634 q 200 835 170 775 q 283 931 230 896 q 405 966 337 966 q 544 918 486 966 q 632 787 602 871 q 661 597 662 703 "}," ":{"ha":861,"x_min":0,"x_max":0,"o":""},"A":{"ha":861,"x_min":50,"x_max":811,"o":"m 724 0 l 811 0 l 478 1014 l 383 1014 l 50 0 l 136 0 l 426 909 l 434 909 l 724 0 m 199 383 l 199 312 l 659 312 l 659 383 l 199 383 "},"Á":{"ha":861,"x_min":50,"x_max":811,"o":"m 724 0 l 811 0 l 478 1014 l 383 1014 l 50 0 l 136 0 l 426 909 l 434 909 l 724 0 m 199 383 l 199 312 l 659 312 l 659 383 l 199 383 m 462 1146 l 386 1146 l 540 1308 l 638 1308 l 462 1146 "},"Ă":{"ha":861,"x_min":50,"x_max":811,"o":"m 724 0 l 811 0 l 478 1014 l 383 1014 l 50 0 l 136 0 l 426 909 l 434 909 l 724 0 m 199 383 l 199 312 l 659 312 l 659 383 l 199 383 m 308 1308 l 245 1308 q 262 1221 242 1258 q 325 1162 282 1183 q 431 1141 368 1141 q 536 1162 493 1141 q 599 1221 579 1183 q 616 1308 619 1258 l 553 1308 q 523 1227 553 1258 q 431 1196 493 1196 q 338 1227 368 1196 q 308 1308 308 1258 "},"Â":{"ha":861,"x_min":50,"x_max":811,"o":"m 724 0 l 811 0 l 478 1014 l 383 1014 l 50 0 l 136 0 l 426 909 l 434 909 l 724 0 m 199 383 l 199 312 l 659 312 l 659 383 l 199 383 m 390 1308 l 207 1146 l 298 1146 l 450 1288 l 411 1288 l 563 1146 l 654 1146 l 471 1308 l 390 1308 "},"Ä":{"ha":861,"x_min":50,"x_max":811,"o":"m 724 0 l 811 0 l 478 1014 l 383 1014 l 50 0 l 136 0 l 426 909 l 434 909 l 724 0 m 199 383 l 199 312 l 659 312 l 659 383 l 199 383 m 260 1155 q 311 1173 292 1155 q 331 1223 331 1191 q 311 1273 331 1255 q 260 1291 292 1291 q 207 1273 227 1291 q 188 1223 188 1255 q 207 1173 188 1191 q 260 1155 227 1155 m 602 1155 q 654 1173 634 1155 q 674 1223 674 1191 q 654 1273 674 1255 q 602 1291 634 1291 q 550 1273 569 1291 q 530 1223 530 1255 q 550 1173 530 1191 q 602 1155 569 1155 "},"Ạ":{"ha":861,"x_min":50,"x_max":811,"o":"m 724 0 l 811 0 l 478 1014 l 383 1014 l 50 0 l 136 0 l 426 909 l 434 909 l 724 0 m 199 383 l 199 312 l 659 312 l 659 383 l 199 383 m 431 -353 q 484 -335 463 -353 q 504 -285 504 -317 q 484 -235 504 -253 q 431 -217 463 -217 q 377 -235 398 -217 q 357 -285 357 -253 q 366 -322 357 -306 q 392 -345 376 -337 q 431 -353 409 -353 "},"À":{"ha":861,"x_min":50,"x_max":811,"o":"m 724 0 l 811 0 l 478 1014 l 383 1014 l 50 0 l 136 0 l 426 909 l 434 909 l 724 0 m 199 383 l 199 312 l 659 312 l 659 383 l 199 383 m 399 1146 l 475 1146 l 321 1308 l 224 1308 l 399 1146 "},"Ā":{"ha":861,"x_min":50,"x_max":811,"o":"m 724 0 l 811 0 l 478 1014 l 383 1014 l 50 0 l 136 0 l 426 909 l 434 909 l 724 0 m 199 383 l 199 312 l 659 312 l 659 383 l 199 383 m 644 1202 l 644 1272 l 217 1272 l 217 1202 l 644 1202 "},"Ą":{"ha":861,"x_min":50,"x_max":811,"o":"m 724 0 l 811 0 l 478 1014 l 383 1014 l 50 0 l 136 0 l 426 909 l 434 909 l 724 0 m 199 383 l 199 312 l 659 312 l 659 383 l 199 383 m 811 0 l 771 26 q 673 -78 703 -33 q 642 -172 642 -124 q 672 -248 642 -218 q 774 -278 701 -278 l 811 -278 l 811 -203 l 791 -203 q 733 -190 751 -203 q 715 -151 715 -177 q 738 -85 715 -122 q 811 0 760 -47 "},"Å":{"ha":861,"x_min":50,"x_max":811,"o":"m 724 0 l 811 0 l 478 1014 l 383 1014 l 50 0 l 136 0 l 426 909 l 434 909 l 724 0 m 199 383 l 199 312 l 659 312 l 659 383 l 199 383 m 431 999 q 509 1019 474 999 q 563 1075 543 1040 q 582 1155 582 1110 q 563 1234 582 1199 q 509 1290 543 1269 q 431 1310 474 1310 q 352 1290 387 1310 q 299 1234 318 1269 q 279 1155 279 1199 q 299 1075 279 1110 q 352 1019 318 1040 q 431 999 387 999 m 431 1056 q 361 1084 388 1056 q 335 1155 335 1112 q 361 1225 335 1198 q 431 1253 388 1253 q 500 1225 474 1253 q 526 1155 526 1198 q 500 1084 526 1112 q 431 1056 474 1056 "},"Ã":{"ha":861,"x_min":50,"x_max":811,"o":"m 724 0 l 811 0 l 478 1014 l 383 1014 l 50 0 l 136 0 l 426 909 l 434 909 l 724 0 m 199 383 l 199 312 l 659 312 l 659 383 l 199 383 m 325 1315 q 232 1278 268 1315 q 186 1172 197 1242 l 249 1154 q 279 1223 258 1199 q 331 1247 300 1247 q 368 1236 352 1247 q 410 1202 385 1225 q 447 1170 431 1183 q 485 1150 463 1158 q 535 1141 508 1141 q 628 1178 592 1141 q 675 1284 665 1215 l 613 1302 q 582 1234 603 1258 q 531 1210 562 1210 q 493 1220 510 1210 q 451 1254 476 1231 q 414 1286 429 1274 q 375 1307 398 1298 q 325 1315 353 1315 "},"Æ":{"ha":861,"x_min":50,"x_max":819,"o":"m 447 0 l 535 0 l 535 1014 l 447 1014 l 447 0 m 385 938 l 475 938 l 475 1014 l 327 1014 l 50 0 l 136 0 l 385 938 m 192 383 l 192 310 l 506 310 l 506 383 l 192 383 m 806 0 l 819 76 l 504 76 l 504 0 l 806 0 m 727 482 l 727 555 l 504 555 l 504 482 l 727 482 m 504 938 l 819 938 l 806 1014 l 504 1014 l 504 938 "},"Ǽ":{"ha":861,"x_min":50,"x_max":819,"o":"m 447 0 l 535 0 l 535 1014 l 447 1014 l 447 0 m 385 938 l 475 938 l 475 1014 l 327 1014 l 50 0 l 136 0 l 385 938 m 192 383 l 192 310 l 506 310 l 506 383 l 192 383 m 806 0 l 819 76 l 504 76 l 504 0 l 806 0 m 727 482 l 727 555 l 504 555 l 504 482 l 727 482 m 504 938 l 819 938 l 806 1014 l 504 1014 l 504 938 m 573 1146 l 497 1146 l 651 1308 l 749 1308 l 573 1146 "},"B":{"ha":861,"x_min":151,"x_max":776,"o":"m 151 0 l 238 0 l 238 1014 l 151 1014 l 151 0 m 470 1014 l 210 1014 l 210 938 l 470 938 q 554 923 521 938 q 604 880 588 909 q 621 807 621 851 q 586 693 621 743 q 481 612 551 644 q 305 569 410 580 l 228 562 l 228 501 l 280 500 q 486 478 397 499 q 631 406 576 457 q 685 270 685 356 q 658 166 685 210 q 581 99 630 122 q 470 76 533 76 l 210 76 l 210 0 l 438 0 q 622 33 546 0 q 737 128 698 67 q 776 274 776 190 q 729 425 776 367 q 603 508 681 482 q 421 541 525 535 l 421 544 q 566 590 500 556 q 673 681 632 624 q 713 815 713 738 q 684 926 713 881 q 600 992 654 970 q 470 1014 545 1014 "},"C":{"ha":861,"x_min":108,"x_max":779,"o":"m 560 1030 q 298 962 398 1030 q 152 775 197 894 q 108 498 108 657 q 168 203 108 319 q 329 35 229 88 q 551 -18 429 -18 q 678 -7 619 -18 q 769 19 737 5 l 779 103 q 681 74 735 85 q 570 63 627 63 q 392 105 476 63 q 251 247 307 147 q 195 515 195 348 q 219 722 195 640 q 274 842 244 803 q 331 900 303 881 q 408 935 363 922 q 524 947 453 947 q 667 936 604 947 q 778 909 730 924 l 772 999 q 560 1030 660 1030 "},"Ć":{"ha":861,"x_min":108,"x_max":779,"o":"m 560 1030 q 298 962 398 1030 q 152 775 197 894 q 108 498 108 657 q 168 203 108 319 q 329 35 229 88 q 551 -18 429 -18 q 678 -7 619 -18 q 769 19 737 5 l 779 103 q 681 74 735 85 q 570 63 627 63 q 392 105 476 63 q 251 247 307 147 q 195 515 195 348 q 219 722 195 640 q 274 842 244 803 q 331 900 303 881 q 408 935 363 922 q 524 947 453 947 q 667 936 604 947 q 778 909 730 924 l 772 999 q 560 1030 660 1030 m 545 1146 l 469 1146 l 624 1308 l 721 1308 l 545 1146 "},"Č":{"ha":861,"x_min":108,"x_max":779,"o":"m 560 1030 q 298 962 398 1030 q 152 775 197 894 q 108 498 108 657 q 168 203 108 319 q 329 35 229 88 q 551 -18 429 -18 q 678 -7 619 -18 q 769 19 737 5 l 779 103 q 681 74 735 85 q 570 63 627 63 q 392 105 476 63 q 251 247 307 147 q 195 515 195 348 q 219 722 195 640 q 274 842 244 803 q 331 900 303 881 q 408 935 363 922 q 524 947 453 947 q 667 936 604 947 q 778 909 730 924 l 772 999 q 560 1030 660 1030 m 474 1146 l 290 1308 l 381 1308 l 514 1184 l 647 1308 l 738 1308 l 554 1146 l 474 1146 "},"Ç":{"ha":861,"x_min":108,"x_max":779,"o":"m 560 1030 q 298 962 398 1030 q 152 775 197 894 q 108 498 108 657 q 168 203 108 319 q 329 35 229 88 q 551 -18 429 -18 q 678 -7 619 -18 q 769 19 737 5 l 779 103 q 681 74 735 85 q 570 63 627 63 q 392 105 476 63 q 251 247 307 147 q 195 515 195 348 q 219 722 195 640 q 274 842 244 803 q 331 900 303 881 q 408 935 363 922 q 524 947 453 947 q 667 936 604 947 q 778 909 730 924 l 772 999 q 560 1030 660 1030 m 505 -124 l 526 -158 l 524 33 l 461 33 l 461 -177 q 543 -201 516 -183 q 570 -258 570 -220 q 543 -310 570 -292 q 447 -327 516 -327 l 419 -327 l 419 -392 l 464 -392 q 572 -378 532 -392 q 629 -335 612 -363 q 646 -264 646 -308 q 630 -191 646 -219 q 582 -147 613 -162 q 505 -124 551 -131 "},"Ĉ":{"ha":861,"x_min":108,"x_max":779,"o":"m 560 1030 q 298 962 398 1030 q 152 775 197 894 q 108 498 108 657 q 168 203 108 319 q 329 35 229 88 q 551 -18 429 -18 q 678 -7 619 -18 q 769 19 737 5 l 779 103 q 681 74 735 85 q 570 63 627 63 q 392 105 476 63 q 251 247 307 147 q 195 515 195 348 q 219 722 195 640 q 274 842 244 803 q 331 900 303 881 q 408 935 363 922 q 524 947 453 947 q 667 936 604 947 q 778 909 730 924 l 772 999 q 560 1030 660 1030 m 474 1308 l 290 1146 l 381 1146 l 533 1288 l 494 1288 l 647 1146 l 738 1146 l 554 1308 l 474 1308 "},"Ċ":{"ha":861,"x_min":108,"x_max":779,"o":"m 560 1030 q 298 962 398 1030 q 152 775 197 894 q 108 498 108 657 q 168 203 108 319 q 329 35 229 88 q 551 -18 429 -18 q 678 -7 619 -18 q 769 19 737 5 l 779 103 q 681 74 735 85 q 570 63 627 63 q 392 105 476 63 q 251 247 307 147 q 195 515 195 348 q 219 722 195 640 q 274 842 244 803 q 331 900 303 881 q 408 935 363 922 q 524 947 453 947 q 667 936 604 947 q 778 909 730 924 l 772 999 q 560 1030 660 1030 m 514 1155 q 567 1173 547 1155 q 588 1223 588 1191 q 567 1273 588 1255 q 514 1291 547 1291 q 461 1273 481 1291 q 440 1223 440 1255 q 461 1173 440 1191 q 514 1155 481 1155 "},"D":{"ha":861,"x_min":144,"x_max":766,"o":"m 144 0 l 231 0 l 231 1014 l 144 1014 l 144 0 m 370 1014 l 203 1014 l 203 938 l 342 938 q 540 888 469 938 q 640 742 611 839 q 669 489 669 644 q 653 306 669 378 q 615 195 638 233 q 567 136 592 157 q 512 105 545 119 q 434 84 478 92 q 335 76 390 76 l 203 76 l 203 0 l 310 0 q 561 55 460 0 q 714 225 663 110 q 766 515 766 339 q 732 769 766 659 q 611 947 699 879 q 370 1014 524 1014 "},"Ď":{"ha":861,"x_min":144,"x_max":766,"o":"m 144 0 l 231 0 l 231 1014 l 144 1014 l 144 0 m 370 1014 l 203 1014 l 203 938 l 342 938 q 540 888 469 938 q 640 742 611 839 q 669 489 669 644 q 653 306 669 378 q 615 195 638 233 q 567 136 592 157 q 512 105 545 119 q 434 84 478 92 q 335 76 390 76 l 203 76 l 203 0 l 310 0 q 561 55 460 0 q 714 225 663 110 q 766 515 766 339 q 732 769 766 659 q 611 947 699 879 q 370 1014 524 1014 m 390 1146 l 207 1308 l 298 1308 l 431 1184 l 563 1308 l 654 1308 l 471 1146 l 390 1146 "},"Đ":{"ha":861,"x_min":28,"x_max":766,"o":"m 467 490 l 467 566 l 28 566 l 28 490 l 467 490 m 144 0 l 231 0 l 231 1014 l 144 1014 l 144 0 m 370 1014 l 203 1014 l 203 938 l 342 938 q 540 888 469 938 q 640 742 611 839 q 669 489 669 644 q 653 306 669 378 q 615 195 638 233 q 567 136 592 157 q 512 105 545 119 q 434 84 478 92 q 335 76 390 76 l 203 76 l 203 0 l 310 0 q 561 55 460 0 q 714 225 663 110 q 766 515 766 339 q 732 769 766 659 q 611 947 699 879 q 370 1014 524 1014 "},"Ð":{"ha":861,"x_min":28,"x_max":766,"o":"m 467 490 l 467 566 l 28 566 l 28 490 l 467 490 m 144 0 l 231 0 l 231 1014 l 144 1014 l 144 0 m 370 1014 l 203 1014 l 203 938 l 342 938 q 540 888 469 938 q 640 742 611 839 q 669 489 669 644 q 653 306 669 378 q 615 195 638 233 q 567 136 592 157 q 512 105 545 119 q 434 84 478 92 q 335 76 390 76 l 203 76 l 203 0 l 310 0 q 561 55 460 0 q 714 225 663 110 q 766 515 766 339 q 732 769 766 659 q 611 947 699 879 q 370 1014 524 1014 "},"E":{"ha":861,"x_min":151,"x_max":756,"o":"m 151 0 l 238 0 l 238 1014 l 151 1014 l 151 0 m 742 0 l 756 76 l 210 76 l 210 0 l 742 0 m 663 482 l 663 555 l 210 555 l 210 482 l 663 482 m 210 938 l 756 938 l 742 1014 l 210 1014 l 210 938 "},"É":{"ha":861,"x_min":151,"x_max":756,"o":"m 151 0 l 238 0 l 238 1014 l 151 1014 l 151 0 m 742 0 l 756 76 l 210 76 l 210 0 l 742 0 m 663 482 l 663 555 l 210 555 l 210 482 l 663 482 m 210 938 l 756 938 l 742 1014 l 210 1014 l 210 938 m 462 1146 l 386 1146 l 540 1308 l 638 1308 l 462 1146 "},"Ĕ":{"ha":861,"x_min":151,"x_max":756,"o":"m 151 0 l 238 0 l 238 1014 l 151 1014 l 151 0 m 742 0 l 756 76 l 210 76 l 210 0 l 742 0 m 663 482 l 663 555 l 210 555 l 210 482 l 663 482 m 210 938 l 756 938 l 742 1014 l 210 1014 l 210 938 m 308 1308 l 245 1308 q 262 1221 242 1258 q 325 1162 282 1183 q 431 1141 368 1141 q 536 1162 493 1141 q 599 1221 579 1183 q 616 1308 619 1258 l 553 1308 q 523 1227 553 1258 q 431 1196 493 1196 q 338 1227 368 1196 q 308 1308 308 1258 "},"Ě":{"ha":861,"x_min":151,"x_max":756,"o":"m 151 0 l 238 0 l 238 1014 l 151 1014 l 151 0 m 742 0 l 756 76 l 210 76 l 210 0 l 742 0 m 663 482 l 663 555 l 210 555 l 210 482 l 663 482 m 210 938 l 756 938 l 742 1014 l 210 1014 l 210 938 m 390 1146 l 207 1308 l 298 1308 l 431 1184 l 563 1308 l 654 1308 l 471 1146 l 390 1146 "},"Ê":{"ha":861,"x_min":151,"x_max":756,"o":"m 151 0 l 238 0 l 238 1014 l 151 1014 l 151 0 m 742 0 l 756 76 l 210 76 l 210 0 l 742 0 m 663 482 l 663 555 l 210 555 l 210 482 l 663 482 m 210 938 l 756 938 l 742 1014 l 210 1014 l 210 938 m 390 1308 l 207 1146 l 298 1146 l 450 1288 l 411 1288 l 563 1146 l 654 1146 l 471 1308 l 390 1308 "},"Ë":{"ha":861,"x_min":151,"x_max":756,"o":"m 151 0 l 238 0 l 238 1014 l 151 1014 l 151 0 m 742 0 l 756 76 l 210 76 l 210 0 l 742 0 m 663 482 l 663 555 l 210 555 l 210 482 l 663 482 m 210 938 l 756 938 l 742 1014 l 210 1014 l 210 938 m 260 1155 q 311 1173 292 1155 q 331 1223 331 1191 q 311 1273 331 1255 q 260 1291 292 1291 q 207 1273 227 1291 q 188 1223 188 1255 q 207 1173 188 1191 q 260 1155 227 1155 m 602 1155 q 654 1173 634 1155 q 674 1223 674 1191 q 654 1273 674 1255 q 602 1291 634 1291 q 550 1273 569 1291 q 530 1223 530 1255 q 550 1173 530 1191 q 602 1155 569 1155 "},"Ė":{"ha":861,"x_min":151,"x_max":756,"o":"m 151 0 l 238 0 l 238 1014 l 151 1014 l 151 0 m 742 0 l 756 76 l 210 76 l 210 0 l 742 0 m 663 482 l 663 555 l 210 555 l 210 482 l 663 482 m 210 938 l 756 938 l 742 1014 l 210 1014 l 210 938 m 431 1155 q 484 1173 463 1155 q 504 1223 504 1191 q 484 1273 504 1255 q 431 1291 463 1291 q 377 1273 398 1291 q 357 1223 357 1255 q 377 1173 357 1191 q 431 1155 398 1155 "},"Ẹ":{"ha":861,"x_min":151,"x_max":756,"o":"m 151 0 l 238 0 l 238 1014 l 151 1014 l 151 0 m 742 0 l 756 76 l 210 76 l 210 0 l 742 0 m 663 482 l 663 555 l 210 555 l 210 482 l 663 482 m 210 938 l 756 938 l 742 1014 l 210 1014 l 210 938 m 431 -353 q 484 -335 463 -353 q 504 -285 504 -317 q 484 -235 504 -253 q 431 -217 463 -217 q 377 -235 398 -217 q 357 -285 357 -253 q 366 -322 357 -306 q 392 -345 376 -337 q 431 -353 409 -353 "},"È":{"ha":861,"x_min":151,"x_max":756,"o":"m 151 0 l 238 0 l 238 1014 l 151 1014 l 151 0 m 742 0 l 756 76 l 210 76 l 210 0 l 742 0 m 663 482 l 663 555 l 210 555 l 210 482 l 663 482 m 210 938 l 756 938 l 742 1014 l 210 1014 l 210 938 m 399 1146 l 475 1146 l 321 1308 l 224 1308 l 399 1146 "},"Ē":{"ha":861,"x_min":151,"x_max":756,"o":"m 151 0 l 238 0 l 238 1014 l 151 1014 l 151 0 m 742 0 l 756 76 l 210 76 l 210 0 l 742 0 m 663 482 l 663 555 l 210 555 l 210 482 l 663 482 m 210 938 l 756 938 l 742 1014 l 210 1014 l 210 938 m 644 1202 l 644 1272 l 217 1272 l 217 1202 l 644 1202 "},"Ę":{"ha":861,"x_min":151,"x_max":756,"o":"m 151 0 l 238 0 l 238 1014 l 151 1014 l 151 0 m 742 0 l 756 76 l 210 76 l 210 0 l 742 0 m 663 482 l 663 555 l 210 555 l 210 482 l 663 482 m 210 938 l 756 938 l 742 1014 l 210 1014 l 210 938 m 742 0 l 701 26 q 603 -78 634 -33 q 572 -172 572 -124 q 602 -248 572 -218 q 704 -278 632 -278 l 742 -278 l 742 -203 l 722 -203 q 664 -190 681 -203 q 646 -151 646 -177 q 668 -85 646 -122 q 742 0 691 -47 "},"Ẽ":{"ha":861,"x_min":151,"x_max":756,"o":"m 151 0 l 238 0 l 238 1014 l 151 1014 l 151 0 m 742 0 l 756 76 l 210 76 l 210 0 l 742 0 m 663 482 l 663 555 l 210 555 l 210 482 l 663 482 m 210 938 l 756 938 l 742 1014 l 210 1014 l 210 938 m 325 1315 q 232 1278 268 1315 q 186 1172 197 1242 l 249 1154 q 279 1223 258 1199 q 331 1247 300 1247 q 368 1236 352 1247 q 410 1202 385 1225 q 447 1170 431 1183 q 485 1150 463 1158 q 535 1141 508 1141 q 628 1178 592 1141 q 675 1284 665 1215 l 613 1302 q 582 1234 603 1258 q 531 1210 562 1210 q 493 1220 510 1210 q 451 1254 476 1231 q 414 1286 429 1274 q 375 1307 398 1298 q 325 1315 353 1315 "},"Ə":{"ha":861,"x_min":95,"x_max":763,"o":"m 421 -13 q 603 48 526 -13 q 722 234 680 110 q 763 542 763 358 q 720 824 763 717 q 589 981 678 931 q 355 1030 499 1030 q 230 1017 287 1030 q 126 986 172 1004 l 117 910 q 219 938 165 927 q 332 949 272 949 q 539 906 467 949 q 639 780 612 863 q 667 558 667 697 q 651 313 667 408 q 616 173 636 218 q 576 108 597 128 q 516 68 551 83 q 438 53 481 53 q 297 104 350 53 q 221 247 244 155 q 194 476 197 340 l 143 440 l 720 440 l 720 516 l 95 516 q 124 252 95 369 q 225 61 153 135 q 421 -13 297 -13 "},"F":{"ha":861,"x_min":158,"x_max":776,"o":"m 158 0 l 245 0 l 245 1014 l 158 1014 l 158 0 m 677 463 l 691 532 l 217 532 l 217 463 l 677 463 m 217 944 l 776 944 l 763 1014 l 217 1014 l 217 944 "},"G":{"ha":861,"x_min":100,"x_max":763,"o":"m 763 917 l 751 1004 q 657 1024 703 1017 q 563 1030 610 1030 q 297 961 400 1030 q 147 773 194 893 q 100 491 100 652 q 151 207 100 320 q 294 39 201 94 q 515 -17 388 -17 q 641 -5 578 -17 q 762 24 703 6 l 761 516 l 442 516 l 428 440 l 720 440 l 674 475 l 674 54 l 703 77 q 523 54 606 54 q 350 101 425 54 q 231 248 274 147 q 188 508 188 349 q 229 774 188 688 q 326 898 270 860 q 381 926 350 915 q 450 944 412 938 q 534 950 488 950 q 653 941 598 950 q 763 917 709 931 "},"Ğ":{"ha":861,"x_min":100,"x_max":763,"o":"m 763 917 l 751 1004 q 657 1024 703 1017 q 563 1030 610 1030 q 297 961 400 1030 q 147 773 194 893 q 100 491 100 652 q 151 207 100 320 q 294 39 201 94 q 515 -17 388 -17 q 641 -5 578 -17 q 762 24 703 6 l 761 516 l 442 516 l 428 440 l 720 440 l 674 475 l 674 54 l 703 77 q 523 54 606 54 q 350 101 425 54 q 231 248 274 147 q 188 508 188 349 q 229 774 188 688 q 326 898 270 860 q 381 926 350 915 q 450 944 412 938 q 534 950 488 950 q 653 941 598 950 q 763 917 709 931 m 391 1308 l 328 1308 q 345 1221 325 1258 q 408 1162 365 1183 q 514 1141 451 1141 q 619 1162 576 1141 q 683 1221 663 1183 q 699 1308 703 1258 l 637 1308 q 607 1227 637 1258 q 514 1196 576 1196 q 421 1227 451 1196 q 391 1308 391 1258 "},"Ǧ":{"ha":861,"x_min":100,"x_max":763,"o":"m 763 917 l 751 1004 q 657 1024 703 1017 q 563 1030 610 1030 q 297 961 400 1030 q 147 773 194 893 q 100 491 100 652 q 151 207 100 320 q 294 39 201 94 q 515 -17 388 -17 q 641 -5 578 -17 q 762 24 703 6 l 761 516 l 442 516 l 428 440 l 720 440 l 674 475 l 674 54 l 703 77 q 523 54 606 54 q 350 101 425 54 q 231 248 274 147 q 188 508 188 349 q 229 774 188 688 q 326 898 270 860 q 381 926 350 915 q 450 944 412 938 q 534 950 488 950 q 653 941 598 950 q 763 917 709 931 m 474 1146 l 290 1308 l 381 1308 l 514 1184 l 647 1308 l 738 1308 l 554 1146 l 474 1146 "},"Ĝ":{"ha":861,"x_min":100,"x_max":763,"o":"m 763 917 l 751 1004 q 657 1024 703 1017 q 563 1030 610 1030 q 297 961 400 1030 q 147 773 194 893 q 100 491 100 652 q 151 207 100 320 q 294 39 201 94 q 515 -17 388 -17 q 641 -5 578 -17 q 762 24 703 6 l 761 516 l 442 516 l 428 440 l 720 440 l 674 475 l 674 54 l 703 77 q 523 54 606 54 q 350 101 425 54 q 231 248 274 147 q 188 508 188 349 q 229 774 188 688 q 326 898 270 860 q 381 926 350 915 q 450 944 412 938 q 534 950 488 950 q 653 941 598 950 q 763 917 709 931 m 474 1308 l 290 1146 l 381 1146 l 533 1288 l 494 1288 l 647 1146 l 738 1146 l 554 1308 l 474 1308 "},"Ģ":{"ha":861,"x_min":100,"x_max":763,"o":"m 763 917 l 751 1004 q 657 1024 703 1017 q 563 1030 610 1030 q 297 961 400 1030 q 147 773 194 893 q 100 491 100 652 q 151 207 100 320 q 294 39 201 94 q 515 -17 388 -17 q 641 -5 578 -17 q 762 24 703 6 l 761 516 l 442 516 l 428 440 l 720 440 l 674 475 l 674 54 l 703 77 q 523 54 606 54 q 350 101 425 54 q 231 248 274 147 q 188 508 188 349 q 229 774 188 688 q 326 898 270 860 q 381 926 350 915 q 450 944 412 938 q 534 950 488 950 q 653 941 598 950 q 763 917 709 931 m 488 -362 q 526 -355 509 -362 l 508 -344 q 484 -392 500 -370 q 448 -434 469 -415 q 398 -473 426 -453 l 436 -519 q 534 -430 494 -484 q 574 -315 574 -375 q 548 -242 574 -267 q 485 -217 523 -217 q 428 -236 451 -217 q 405 -290 405 -256 q 415 -328 405 -312 q 444 -354 425 -345 q 488 -362 463 -362 "},"Ġ":{"ha":861,"x_min":100,"x_max":763,"o":"m 763 917 l 751 1004 q 657 1024 703 1017 q 563 1030 610 1030 q 297 961 400 1030 q 147 773 194 893 q 100 491 100 652 q 151 207 100 320 q 294 39 201 94 q 515 -17 388 -17 q 641 -5 578 -17 q 762 24 703 6 l 761 516 l 442 516 l 428 440 l 720 440 l 674 475 l 674 54 l 703 77 q 523 54 606 54 q 350 101 425 54 q 231 248 274 147 q 188 508 188 349 q 229 774 188 688 q 326 898 270 860 q 381 926 350 915 q 450 944 412 938 q 534 950 488 950 q 653 941 598 950 q 763 917 709 931 m 514 1155 q 567 1173 547 1155 q 588 1223 588 1191 q 567 1273 588 1255 q 514 1291 547 1291 q 461 1273 481 1291 q 440 1223 440 1255 q 461 1173 440 1191 q 514 1155 481 1155 "},"H":{"ha":861,"x_min":144,"x_max":717,"o":"m 144 0 l 231 0 l 231 1014 l 144 1014 l 144 0 m 630 0 l 717 0 l 717 1014 l 630 1014 l 630 0 m 192 563 l 192 492 l 672 492 l 672 563 l 192 563 "},"Ħ":{"ha":861,"x_min":28,"x_max":833,"o":"m 833 765 l 833 842 l 28 842 l 28 765 l 833 765 m 144 0 l 231 0 l 231 1014 l 144 1014 l 144 0 m 630 0 l 717 0 l 717 1014 l 630 1014 l 630 0 m 192 563 l 192 492 l 672 492 l 672 563 l 192 563 "},"Ĥ":{"ha":861,"x_min":144,"x_max":717,"o":"m 144 0 l 231 0 l 231 1014 l 144 1014 l 144 0 m 630 0 l 717 0 l 717 1014 l 630 1014 l 630 0 m 192 563 l 192 492 l 672 492 l 672 563 l 192 563 m 390 1308 l 207 1146 l 298 1146 l 450 1288 l 411 1288 l 563 1146 l 654 1146 l 471 1308 l 390 1308 "},"I":{"ha":861,"x_min":106,"x_max":756,"o":"m 380 0 l 467 0 l 467 1014 l 380 1014 l 380 0 m 742 1014 l 119 1014 l 106 938 l 756 938 l 742 1014 m 106 76 l 119 0 l 742 0 l 756 76 l 106 76 "},"Ĳ":{"ha":861,"x_min":131,"x_max":685,"o":"m 685 257 l 685 1014 l 597 1014 l 597 256 q 587 154 597 191 q 555 100 576 117 q 485 72 533 83 q 372 60 438 60 q 266 69 317 60 q 162 95 215 78 q 131 106 141 102 l 147 19 q 241 -7 189 3 q 371 -17 293 -17 q 523 2 455 -17 q 638 81 590 20 q 685 257 685 141 m 654 938 l 654 1014 l 417 1014 l 403 938 l 654 938 m 149 354 l 237 354 l 237 1014 l 149 1014 l 149 354 "},"Í":{"ha":861,"x_min":106,"x_max":756,"o":"m 380 0 l 467 0 l 467 1014 l 380 1014 l 380 0 m 742 1014 l 119 1014 l 106 938 l 756 938 l 742 1014 m 106 76 l 119 0 l 742 0 l 756 76 l 106 76 m 462 1146 l 386 1146 l 540 1308 l 638 1308 l 462 1146 "},"Ĭ":{"ha":861,"x_min":106,"x_max":756,"o":"m 380 0 l 467 0 l 467 1014 l 380 1014 l 380 0 m 742 1014 l 119 1014 l 106 938 l 756 938 l 742 1014 m 106 76 l 119 0 l 742 0 l 756 76 l 106 76 m 308 1308 l 245 1308 q 262 1221 242 1258 q 325 1162 282 1183 q 431 1141 368 1141 q 536 1162 493 1141 q 599 1221 579 1183 q 616 1308 619 1258 l 553 1308 q 523 1227 553 1258 q 431 1196 493 1196 q 338 1227 368 1196 q 308 1308 308 1258 "},"Î":{"ha":861,"x_min":106,"x_max":756,"o":"m 380 0 l 467 0 l 467 1014 l 380 1014 l 380 0 m 742 1014 l 119 1014 l 106 938 l 756 938 l 742 1014 m 106 76 l 119 0 l 742 0 l 756 76 l 106 76 m 390 1308 l 207 1146 l 298 1146 l 450 1288 l 411 1288 l 563 1146 l 654 1146 l 471 1308 l 390 1308 "},"Ï":{"ha":861,"x_min":106,"x_max":756,"o":"m 380 0 l 467 0 l 467 1014 l 380 1014 l 380 0 m 742 1014 l 119 1014 l 106 938 l 756 938 l 742 1014 m 106 76 l 119 0 l 742 0 l 756 76 l 106 76 m 260 1155 q 311 1173 292 1155 q 331 1223 331 1191 q 311 1273 331 1255 q 260 1291 292 1291 q 207 1273 227 1291 q 188 1223 188 1255 q 207 1173 188 1191 q 260 1155 227 1155 m 602 1155 q 654 1173 634 1155 q 674 1223 674 1191 q 654 1273 674 1255 q 602 1291 634 1291 q 550 1273 569 1291 q 530 1223 530 1255 q 550 1173 530 1191 q 602 1155 569 1155 "},"İ":{"ha":861,"x_min":106,"x_max":756,"o":"m 380 0 l 467 0 l 467 1014 l 380 1014 l 380 0 m 742 1014 l 119 1014 l 106 938 l 756 938 l 742 1014 m 106 76 l 119 0 l 742 0 l 756 76 l 106 76 m 431 1155 q 484 1173 463 1155 q 504 1223 504 1191 q 484 1273 504 1255 q 431 1291 463 1291 q 377 1273 398 1291 q 357 1223 357 1255 q 377 1173 357 1191 q 431 1155 398 1155 "},"Ị":{"ha":861,"x_min":106,"x_max":756,"o":"m 380 0 l 467 0 l 467 1014 l 380 1014 l 380 0 m 742 1014 l 119 1014 l 106 938 l 756 938 l 742 1014 m 106 76 l 119 0 l 742 0 l 756 76 l 106 76 m 431 -353 q 484 -335 463 -353 q 504 -285 504 -317 q 484 -235 504 -253 q 431 -217 463 -217 q 377 -235 398 -217 q 357 -285 357 -253 q 366 -322 357 -306 q 392 -345 376 -337 q 431 -353 409 -353 "},"Ì":{"ha":861,"x_min":106,"x_max":756,"o":"m 380 0 l 467 0 l 467 1014 l 380 1014 l 380 0 m 742 1014 l 119 1014 l 106 938 l 756 938 l 742 1014 m 106 76 l 119 0 l 742 0 l 756 76 l 106 76 m 399 1146 l 475 1146 l 321 1308 l 224 1308 l 399 1146 "},"Ī":{"ha":861,"x_min":106,"x_max":756,"o":"m 380 0 l 467 0 l 467 1014 l 380 1014 l 380 0 m 742 1014 l 119 1014 l 106 938 l 756 938 l 742 1014 m 106 76 l 119 0 l 742 0 l 756 76 l 106 76 m 644 1202 l 644 1272 l 217 1272 l 217 1202 l 644 1202 "},"Į":{"ha":861,"x_min":106,"x_max":756,"o":"m 380 0 l 467 0 l 467 1014 l 380 1014 l 380 0 m 742 1014 l 119 1014 l 106 938 l 756 938 l 742 1014 m 106 76 l 119 0 l 742 0 l 756 76 l 106 76 m 474 0 l 434 26 q 336 -78 367 -33 q 305 -172 305 -124 q 335 -248 305 -218 q 437 -278 365 -278 l 474 -278 l 474 -203 l 454 -203 q 396 -190 414 -203 q 378 -151 378 -177 q 401 -85 378 -122 q 474 0 424 -47 "},"Ĩ":{"ha":861,"x_min":106,"x_max":756,"o":"m 380 0 l 467 0 l 467 1014 l 380 1014 l 380 0 m 742 1014 l 119 1014 l 106 938 l 756 938 l 742 1014 m 106 76 l 119 0 l 742 0 l 756 76 l 106 76 m 325 1315 q 232 1278 268 1315 q 186 1172 197 1242 l 249 1154 q 279 1223 258 1199 q 331 1247 300 1247 q 368 1236 352 1247 q 410 1202 385 1225 q 447 1170 431 1183 q 485 1150 463 1158 q 535 1141 508 1141 q 628 1178 592 1141 q 675 1284 665 1215 l 613 1302 q 582 1234 603 1258 q 531 1210 562 1210 q 493 1220 510 1210 q 451 1254 476 1231 q 414 1286 429 1274 q 375 1307 398 1298 q 325 1315 353 1315 "},"J":{"ha":861,"x_min":131,"x_max":685,"o":"m 685 257 l 685 1014 l 597 1014 l 597 256 q 587 154 597 191 q 555 100 576 117 q 485 72 533 83 q 372 60 438 60 q 266 69 317 60 q 162 95 215 78 q 131 106 141 102 l 147 19 q 241 -7 189 3 q 371 -17 293 -17 q 523 2 455 -17 q 638 81 590 20 q 685 257 685 141 m 654 938 l 654 1014 l 171 1014 l 157 938 l 654 938 "},"Ĵ":{"ha":861,"x_min":131,"x_max":685,"o":"m 685 257 l 685 1014 l 597 1014 l 597 256 q 587 154 597 191 q 555 100 576 117 q 485 72 533 83 q 372 60 438 60 q 266 69 317 60 q 162 95 215 78 q 131 106 141 102 l 147 19 q 241 -7 189 3 q 371 -17 293 -17 q 523 2 455 -17 q 638 81 590 20 q 685 257 685 141 m 654 938 l 654 1014 l 171 1014 l 157 938 l 654 938 m 410 1308 l 227 1146 l 318 1146 l 470 1288 l 431 1288 l 583 1146 l 674 1146 l 491 1308 l 410 1308 "},"K":{"ha":861,"x_min":144,"x_max":822,"o":"m 144 0 l 231 0 l 231 1014 l 144 1014 l 144 0 m 710 0 l 822 0 q 656 281 742 151 q 473 524 569 410 l 473 533 q 644 768 568 649 q 784 1014 721 888 l 682 1014 q 543 768 616 884 q 374 527 471 653 l 433 559 l 199 559 l 199 486 l 428 486 l 378 507 q 557 261 476 383 q 710 0 637 140 "},"Ķ":{"ha":861,"x_min":144,"x_max":822,"o":"m 144 0 l 231 0 l 231 1014 l 144 1014 l 144 0 m 710 0 l 822 0 q 656 281 742 151 q 473 524 569 410 l 473 533 q 644 768 568 649 q 784 1014 721 888 l 682 1014 q 543 768 616 884 q 374 527 471 653 l 433 559 l 199 559 l 199 486 l 428 486 l 378 507 q 557 261 476 383 q 710 0 637 140 m 432 -362 q 470 -355 453 -362 l 452 -344 q 429 -392 444 -370 q 392 -434 413 -415 q 342 -473 371 -453 l 381 -519 q 478 -430 439 -484 q 518 -315 518 -375 q 493 -242 518 -267 q 429 -217 467 -217 q 372 -236 395 -217 q 349 -290 349 -256 q 359 -328 349 -312 q 388 -354 369 -345 q 432 -362 407 -362 "},"L":{"ha":861,"x_min":144,"x_max":776,"o":"m 144 0 l 231 0 l 231 1014 l 144 1014 l 144 0 m 763 0 l 776 76 l 203 76 l 203 0 l 763 0 "},"Ĺ":{"ha":861,"x_min":144,"x_max":776,"o":"m 144 0 l 231 0 l 231 1014 l 144 1014 l 144 0 m 763 0 l 776 76 l 203 76 l 203 0 l 763 0 m 235 1146 l 159 1146 l 313 1308 l 410 1308 l 235 1146 "},"Ľ":{"ha":861,"x_min":144,"x_max":776,"o":"m 144 0 l 231 0 l 231 1014 l 144 1014 l 144 0 m 763 0 l 776 76 l 203 76 l 203 0 l 763 0 m 405 1075 l 393 842 l 460 842 l 489 1075 l 405 1075 "},"Ļ":{"ha":861,"x_min":144,"x_max":776,"o":"m 144 0 l 231 0 l 231 1014 l 144 1014 l 144 0 m 763 0 l 776 76 l 203 76 l 203 0 l 763 0 m 432 -362 q 470 -355 453 -362 l 452 -344 q 429 -392 444 -370 q 392 -434 413 -415 q 342 -473 371 -453 l 381 -519 q 478 -430 439 -484 q 518 -315 518 -375 q 493 -242 518 -267 q 429 -217 467 -217 q 372 -236 395 -217 q 349 -290 349 -256 q 359 -328 349 -312 q 388 -354 369 -345 q 432 -362 407 -362 "},"Ŀ":{"ha":861,"x_min":144,"x_max":776,"o":"m 631 493 q 684 511 664 493 q 705 561 705 529 q 684 611 705 593 q 631 629 664 629 q 578 611 599 629 q 558 561 558 593 q 578 511 558 529 q 631 493 599 493 m 144 0 l 231 0 l 231 1014 l 144 1014 l 144 0 m 763 0 l 776 76 l 203 76 l 203 0 l 763 0 "},"Ł":{"ha":861,"x_min":14,"x_max":776,"o":"m 513 651 l 513 731 l 14 488 l 14 408 l 513 651 m 144 0 l 231 0 l 231 1014 l 144 1014 l 144 0 m 763 0 l 776 76 l 203 76 l 203 0 l 763 0 "},"M":{"ha":861,"x_min":88,"x_max":773,"o":"m 248 1014 l 131 1014 l 88 0 l 167 0 l 198 894 l 207 894 l 400 270 l 458 270 l 645 894 l 656 894 l 694 0 l 773 0 l 730 1014 l 615 1014 l 440 410 l 431 410 l 248 1014 "},"N":{"ha":861,"x_min":144,"x_max":717,"o":"m 144 1014 l 144 0 l 227 0 l 227 867 l 235 867 l 613 0 l 717 0 l 717 1014 l 634 1014 l 634 172 l 626 172 l 248 1014 l 144 1014 "},"Ń":{"ha":861,"x_min":144,"x_max":717,"o":"m 144 1014 l 144 0 l 227 0 l 227 867 l 235 867 l 613 0 l 717 0 l 717 1014 l 634 1014 l 634 172 l 626 172 l 248 1014 l 144 1014 m 462 1146 l 386 1146 l 540 1308 l 638 1308 l 462 1146 "},"Ň":{"ha":861,"x_min":144,"x_max":717,"o":"m 144 1014 l 144 0 l 227 0 l 227 867 l 235 867 l 613 0 l 717 0 l 717 1014 l 634 1014 l 634 172 l 626 172 l 248 1014 l 144 1014 m 390 1146 l 207 1308 l 298 1308 l 431 1184 l 563 1308 l 654 1308 l 471 1146 l 390 1146 "},"Ņ":{"ha":861,"x_min":144,"x_max":717,"o":"m 144 1014 l 144 0 l 227 0 l 227 867 l 235 867 l 613 0 l 717 0 l 717 1014 l 634 1014 l 634 172 l 626 172 l 248 1014 l 144 1014 m 432 -362 q 470 -355 453 -362 l 452 -344 q 429 -392 444 -370 q 392 -434 413 -415 q 342 -473 371 -453 l 381 -519 q 478 -430 439 -484 q 518 -315 518 -375 q 493 -242 518 -267 q 429 -217 467 -217 q 372 -236 395 -217 q 349 -290 349 -256 q 359 -328 349 -312 q 388 -354 369 -345 q 432 -362 407 -362 "},"Ɲ":{"ha":861,"x_min":-49,"x_max":717,"o":"m 61 -244 q 139 -224 101 -244 q 202 -156 176 -204 q 227 -25 227 -107 l 227 0 l 144 0 l 144 -22 q 143 -91 144 -69 q 136 -130 142 -113 q 119 -157 131 -147 q 92 -169 108 -166 q 63 -172 77 -172 q 15 -164 40 -172 q -49 -139 -10 -156 l -33 -218 q 61 -244 15 -244 m 144 1014 l 144 0 l 227 0 l 227 867 l 235 867 l 613 0 l 717 0 l 717 1014 l 634 1014 l 634 172 l 626 172 l 248 1014 l 144 1014 "},"Ñ":{"ha":861,"x_min":144,"x_max":717,"o":"m 144 1014 l 144 0 l 227 0 l 227 867 l 235 867 l 613 0 l 717 0 l 717 1014 l 634 1014 l 634 172 l 626 172 l 248 1014 l 144 1014 m 325 1315 q 232 1278 268 1315 q 186 1172 197 1242 l 249 1154 q 279 1223 258 1199 q 331 1247 300 1247 q 368 1236 352 1247 q 410 1202 385 1225 q 447 1170 431 1183 q 485 1150 463 1158 q 535 1141 508 1141 q 628 1178 592 1141 q 675 1284 665 1215 l 613 1302 q 582 1234 603 1258 q 531 1210 562 1210 q 493 1220 510 1210 q 451 1254 476 1231 q 414 1286 429 1274 q 375 1307 398 1298 q 325 1315 353 1315 "},"Ŋ":{"ha":861,"x_min":144,"x_max":717,"o":"m 551 -244 q 629 -224 592 -244 q 692 -156 667 -204 q 717 -25 717 -107 l 717 0 l 634 0 l 634 -22 q 633 -91 634 -69 q 627 -130 632 -113 q 609 -157 622 -147 q 583 -169 598 -166 q 553 -172 567 -172 q 505 -164 530 -172 q 442 -139 480 -156 l 457 -218 q 551 -244 506 -244 m 144 1014 l 144 0 l 227 0 l 227 867 l 235 867 l 657 -101 l 717 0 l 717 1015 l 634 1015 l 634 172 l 626 172 l 248 1014 l 144 1014 "},"O":{"ha":861,"x_min":95,"x_max":766,"o":"m 421 -13 q 603 46 525 -13 q 723 221 681 106 q 766 501 766 337 q 737 762 766 645 q 636 953 708 879 q 440 1026 563 1026 q 258 967 335 1026 q 138 792 180 908 q 95 513 95 676 q 124 251 95 368 q 225 60 153 134 q 421 -13 297 -13 m 438 53 q 290 111 344 53 q 215 273 236 169 q 193 533 193 378 q 222 780 193 693 q 283 900 250 867 q 343 939 308 924 q 422 953 378 953 q 570 896 516 953 q 645 734 624 839 q 667 475 667 630 q 651 286 667 363 q 616 168 636 209 q 576 108 596 127 q 516 68 551 83 q 438 53 481 53 "},"Ó":{"ha":861,"x_min":95,"x_max":766,"o":"m 421 -13 q 603 46 525 -13 q 723 221 681 106 q 766 501 766 337 q 737 762 766 645 q 636 953 708 879 q 440 1026 563 1026 q 258 967 335 1026 q 138 792 180 908 q 95 513 95 676 q 124 251 95 368 q 225 60 153 134 q 421 -13 297 -13 m 438 53 q 290 111 344 53 q 215 273 236 169 q 193 533 193 378 q 222 780 193 693 q 283 900 250 867 q 343 939 308 924 q 422 953 378 953 q 570 896 516 953 q 645 734 624 839 q 667 475 667 630 q 651 286 667 363 q 616 168 636 209 q 576 108 596 127 q 516 68 551 83 q 438 53 481 53 m 462 1146 l 386 1146 l 540 1308 l 638 1308 l 462 1146 "},"Ŏ":{"ha":861,"x_min":95,"x_max":766,"o":"m 421 -13 q 603 46 525 -13 q 723 221 681 106 q 766 501 766 337 q 737 762 766 645 q 636 953 708 879 q 440 1026 563 1026 q 258 967 335 1026 q 138 792 180 908 q 95 513 95 676 q 124 251 95 368 q 225 60 153 134 q 421 -13 297 -13 m 438 53 q 290 111 344 53 q 215 273 236 169 q 193 533 193 378 q 222 780 193 693 q 283 900 250 867 q 343 939 308 924 q 422 953 378 953 q 570 896 516 953 q 645 734 624 839 q 667 475 667 630 q 651 286 667 363 q 616 168 636 209 q 576 108 596 127 q 516 68 551 83 q 438 53 481 53 m 308 1308 l 245 1308 q 262 1221 242 1258 q 325 1162 282 1183 q 431 1141 368 1141 q 536 1162 493 1141 q 599 1221 579 1183 q 616 1308 619 1258 l 553 1308 q 523 1227 553 1258 q 431 1196 493 1196 q 338 1227 368 1196 q 308 1308 308 1258 "},"Ô":{"ha":861,"x_min":95,"x_max":766,"o":"m 421 -13 q 603 46 525 -13 q 723 221 681 106 q 766 501 766 337 q 737 762 766 645 q 636 953 708 879 q 440 1026 563 1026 q 258 967 335 1026 q 138 792 180 908 q 95 513 95 676 q 124 251 95 368 q 225 60 153 134 q 421 -13 297 -13 m 438 53 q 290 111 344 53 q 215 273 236 169 q 193 533 193 378 q 222 780 193 693 q 283 900 250 867 q 343 939 308 924 q 422 953 378 953 q 570 896 516 953 q 645 734 624 839 q 667 475 667 630 q 651 286 667 363 q 616 168 636 209 q 576 108 596 127 q 516 68 551 83 q 438 53 481 53 m 390 1308 l 207 1146 l 298 1146 l 450 1288 l 411 1288 l 563 1146 l 654 1146 l 471 1308 l 390 1308 "},"Ö":{"ha":861,"x_min":95,"x_max":766,"o":"m 421 -13 q 603 46 525 -13 q 723 221 681 106 q 766 501 766 337 q 737 762 766 645 q 636 953 708 879 q 440 1026 563 1026 q 258 967 335 1026 q 138 792 180 908 q 95 513 95 676 q 124 251 95 368 q 225 60 153 134 q 421 -13 297 -13 m 438 53 q 290 111 344 53 q 215 273 236 169 q 193 533 193 378 q 222 780 193 693 q 283 900 250 867 q 343 939 308 924 q 422 953 378 953 q 570 896 516 953 q 645 734 624 839 q 667 475 667 630 q 651 286 667 363 q 616 168 636 209 q 576 108 596 127 q 516 68 551 83 q 438 53 481 53 m 260 1155 q 311 1173 292 1155 q 331 1223 331 1191 q 311 1273 331 1255 q 260 1291 292 1291 q 207 1273 227 1291 q 188 1223 188 1255 q 207 1173 188 1191 q 260 1155 227 1155 m 602 1155 q 654 1173 634 1155 q 674 1223 674 1191 q 654 1273 674 1255 q 602 1291 634 1291 q 550 1273 569 1291 q 530 1223 530 1255 q 550 1173 530 1191 q 602 1155 569 1155 "},"Ọ":{"ha":861,"x_min":95,"x_max":766,"o":"m 421 -13 q 603 46 525 -13 q 723 221 681 106 q 766 501 766 337 q 737 762 766 645 q 636 953 708 879 q 440 1026 563 1026 q 258 967 335 1026 q 138 792 180 908 q 95 513 95 676 q 124 251 95 368 q 225 60 153 134 q 421 -13 297 -13 m 438 53 q 290 111 344 53 q 215 273 236 169 q 193 533 193 378 q 222 780 193 693 q 283 900 250 867 q 343 939 308 924 q 422 953 378 953 q 570 896 516 953 q 645 734 624 839 q 667 475 667 630 q 651 286 667 363 q 616 168 636 209 q 576 108 596 127 q 516 68 551 83 q 438 53 481 53 m 431 -353 q 484 -335 463 -353 q 504 -285 504 -317 q 484 -235 504 -253 q 431 -217 463 -217 q 377 -235 398 -217 q 357 -285 357 -253 q 366 -322 357 -306 q 392 -345 376 -337 q 431 -353 409 -353 "},"Ò":{"ha":861,"x_min":95,"x_max":766,"o":"m 421 -13 q 603 46 525 -13 q 723 221 681 106 q 766 501 766 337 q 737 762 766 645 q 636 953 708 879 q 440 1026 563 1026 q 258 967 335 1026 q 138 792 180 908 q 95 513 95 676 q 124 251 95 368 q 225 60 153 134 q 421 -13 297 -13 m 438 53 q 290 111 344 53 q 215 273 236 169 q 193 533 193 378 q 222 780 193 693 q 283 900 250 867 q 343 939 308 924 q 422 953 378 953 q 570 896 516 953 q 645 734 624 839 q 667 475 667 630 q 651 286 667 363 q 616 168 636 209 q 576 108 596 127 q 516 68 551 83 q 438 53 481 53 m 399 1146 l 475 1146 l 321 1308 l 224 1308 l 399 1146 "},"Ő":{"ha":861,"x_min":95,"x_max":766,"o":"m 421 -13 q 603 46 525 -13 q 723 221 681 106 q 766 501 766 337 q 737 762 766 645 q 636 953 708 879 q 440 1026 563 1026 q 258 967 335 1026 q 138 792 180 908 q 95 513 95 676 q 124 251 95 368 q 225 60 153 134 q 421 -13 297 -13 m 438 53 q 290 111 344 53 q 215 273 236 169 q 193 533 193 378 q 222 780 193 693 q 283 900 250 867 q 343 939 308 924 q 422 953 378 953 q 570 896 516 953 q 645 734 624 839 q 667 475 667 630 q 651 286 667 363 q 616 168 636 209 q 576 108 596 127 q 516 68 551 83 q 438 53 481 53 m 367 1308 l 265 1146 l 335 1146 l 456 1308 l 367 1308 m 617 1308 l 516 1146 l 585 1146 l 708 1308 l 617 1308 "},"Ō":{"ha":861,"x_min":95,"x_max":766,"o":"m 421 -13 q 603 46 525 -13 q 723 221 681 106 q 766 501 766 337 q 737 762 766 645 q 636 953 708 879 q 440 1026 563 1026 q 258 967 335 1026 q 138 792 180 908 q 95 513 95 676 q 124 251 95 368 q 225 60 153 134 q 421 -13 297 -13 m 438 53 q 290 111 344 53 q 215 273 236 169 q 193 533 193 378 q 222 780 193 693 q 283 900 250 867 q 343 939 308 924 q 422 953 378 953 q 570 896 516 953 q 645 734 624 839 q 667 475 667 630 q 651 286 667 363 q 616 168 636 209 q 576 108 596 127 q 516 68 551 83 q 438 53 481 53 m 644 1202 l 644 1272 l 217 1272 l 217 1202 l 644 1202 "},"Ǫ":{"ha":861,"x_min":95,"x_max":766,"o":"m 421 -13 q 603 46 525 -13 q 723 221 681 106 q 766 501 766 337 q 737 762 766 645 q 636 953 708 879 q 440 1026 563 1026 q 258 967 335 1026 q 138 792 180 908 q 95 513 95 676 q 124 251 95 368 q 225 60 153 134 q 421 -13 297 -13 m 438 53 q 290 111 344 53 q 215 273 236 169 q 193 533 193 378 q 222 780 193 693 q 283 900 250 867 q 343 939 308 924 q 422 953 378 953 q 570 896 516 953 q 645 734 624 839 q 667 475 667 630 q 651 286 667 363 q 616 168 636 209 q 576 108 596 127 q 516 68 551 83 q 438 53 481 53 m 513 0 l 472 26 q 374 -78 405 -33 q 343 -172 343 -124 q 373 -248 343 -218 q 475 -278 403 -278 l 513 -278 l 513 -203 l 492 -203 q 434 -190 452 -203 q 417 -151 417 -177 q 439 -85 417 -122 q 513 0 462 -47 "},"Ø":{"ha":861,"x_min":95,"x_max":766,"o":"m 665 1204 l 565 957 l 639 906 l 747 1172 l 665 1204 m 572 967 l 228 106 l 292 55 l 639 922 l 572 967 m 197 -190 l 299 65 l 228 123 l 115 -157 l 197 -190 m 421 -13 q 603 46 525 -13 q 723 221 681 106 q 766 501 766 337 q 737 762 766 645 q 636 953 708 879 q 440 1026 563 1026 q 258 967 335 1026 q 138 792 180 908 q 95 513 95 676 q 124 251 95 368 q 225 60 153 134 q 421 -13 297 -13 m 438 53 q 290 111 344 53 q 215 273 236 169 q 193 533 193 378 q 222 780 193 693 q 283 900 250 867 q 343 939 308 924 q 422 953 378 953 q 570 896 516 953 q 645 734 624 839 q 667 475 667 630 q 651 286 667 363 q 616 168 636 209 q 576 108 596 127 q 516 68 551 83 q 438 53 481 53 "},"Ǿ":{"ha":861,"x_min":95,"x_max":766,"o":"m 665 1204 l 565 957 l 639 906 l 747 1172 l 665 1204 m 572 967 l 228 106 l 292 55 l 639 922 l 572 967 m 197 -190 l 299 65 l 228 123 l 115 -157 l 197 -190 m 421 -13 q 603 46 525 -13 q 723 221 681 106 q 766 501 766 337 q 737 762 766 645 q 636 953 708 879 q 440 1026 563 1026 q 258 967 335 1026 q 138 792 180 908 q 95 513 95 676 q 124 251 95 368 q 225 60 153 134 q 421 -13 297 -13 m 438 53 q 290 111 344 53 q 215 273 236 169 q 193 533 193 378 q 222 780 193 693 q 283 900 250 867 q 343 939 308 924 q 422 953 378 953 q 570 896 516 953 q 645 734 624 839 q 667 475 667 630 q 651 286 667 363 q 616 168 636 209 q 576 108 596 127 q 516 68 551 83 q 438 53 481 53 m 441 1146 l 365 1146 l 519 1308 l 617 1308 l 441 1146 "},"Õ":{"ha":861,"x_min":95,"x_max":766,"o":"m 421 -13 q 603 46 525 -13 q 723 221 681 106 q 766 501 766 337 q 737 762 766 645 q 636 953 708 879 q 440 1026 563 1026 q 258 967 335 1026 q 138 792 180 908 q 95 513 95 676 q 124 251 95 368 q 225 60 153 134 q 421 -13 297 -13 m 438 53 q 290 111 344 53 q 215 273 236 169 q 193 533 193 378 q 222 780 193 693 q 283 900 250 867 q 343 939 308 924 q 422 953 378 953 q 570 896 516 953 q 645 734 624 839 q 667 475 667 630 q 651 286 667 363 q 616 168 636 209 q 576 108 596 127 q 516 68 551 83 q 438 53 481 53 m 325 1315 q 232 1278 268 1315 q 186 1172 197 1242 l 249 1154 q 279 1223 258 1199 q 331 1247 300 1247 q 368 1236 352 1247 q 410 1202 385 1225 q 447 1170 431 1183 q 485 1150 463 1158 q 535 1141 508 1141 q 628 1178 592 1141 q 675 1284 665 1215 l 613 1302 q 582 1234 603 1258 q 531 1210 562 1210 q 493 1220 510 1210 q 451 1254 476 1231 q 414 1286 429 1274 q 375 1307 398 1298 q 325 1315 353 1315 "},"Œ":{"ha":861,"x_min":95,"x_max":819,"o":"m 440 0 l 528 0 l 528 1014 l 440 1014 l 440 0 m 806 0 l 819 76 l 504 76 l 504 0 l 806 0 m 727 482 l 727 555 l 504 555 l 504 482 l 727 482 m 504 938 l 819 938 l 806 1014 l 504 1014 l 504 938 m 421 0 l 458 0 l 458 67 l 438 67 q 290 124 344 67 q 215 282 236 181 q 193 533 193 384 q 222 770 193 685 q 283 888 250 854 q 343 926 308 912 q 422 941 378 941 l 467 941 l 467 1014 l 440 1014 q 258 955 335 1014 q 138 783 180 897 q 95 513 95 670 q 124 260 95 374 q 225 73 153 146 q 421 0 298 0 "},"P":{"ha":861,"x_min":151,"x_max":758,"o":"m 151 0 l 238 0 l 238 1014 l 151 1014 l 151 0 m 257 445 l 197 441 l 206 373 l 261 378 q 633 498 509 399 q 758 758 758 597 q 719 907 758 850 q 612 989 680 963 q 452 1014 544 1014 l 213 1014 l 213 951 l 450 951 q 577 923 527 951 q 649 850 626 896 q 672 747 672 804 q 622 597 672 662 q 479 493 572 532 q 257 445 385 454 "},"Þ":{"ha":861,"x_min":151,"x_max":758,"o":"m 151 0 l 238 0 l 238 1014 l 151 1014 l 151 0 m 257 273 l 197 269 l 206 201 l 261 206 q 633 326 509 227 q 758 586 758 424 q 675 781 758 721 q 452 842 593 842 l 199 842 l 199 778 l 450 778 q 577 751 527 778 q 649 678 626 724 q 672 575 672 632 q 622 425 672 490 q 479 321 572 360 q 257 273 385 282 "},"Q":{"ha":861,"x_min":80,"x_max":870,"o":"m 443 1026 q 642 965 565 1026 q 752 810 719 904 q 785 610 785 715 q 739 368 785 480 q 609 172 692 257 q 413 31 525 87 l 371 68 q 539 204 470 130 q 647 378 608 278 q 685 605 685 477 q 660 782 685 703 q 577 910 635 861 q 424 958 519 958 q 333 944 371 958 q 269 906 296 929 q 206 800 233 874 q 178 574 178 727 q 245 264 178 397 q 465 35 312 130 q 870 -108 618 -59 l 821 -183 q 402 -31 567 -137 q 158 226 237 74 q 80 568 80 378 q 124 816 80 713 q 250 973 168 919 q 443 1026 331 1026 "},"R":{"ha":861,"x_min":144,"x_max":802,"o":"m 144 0 l 231 0 l 231 1014 l 144 1014 l 144 0 m 303 493 l 303 460 l 688 0 l 802 0 l 376 497 l 372 456 q 559 535 479 490 q 686 648 639 581 q 734 803 734 715 q 692 934 734 888 q 579 997 649 980 q 411 1014 509 1014 l 206 1014 l 206 951 l 450 951 q 557 934 514 951 q 621 883 599 917 q 643 797 643 849 q 599 664 643 721 q 481 568 555 608 q 303 493 408 529 "},"Ŕ":{"ha":861,"x_min":144,"x_max":802,"o":"m 144 0 l 231 0 l 231 1014 l 144 1014 l 144 0 m 303 493 l 303 460 l 688 0 l 802 0 l 376 497 l 372 456 q 559 535 479 490 q 686 648 639 581 q 734 803 734 715 q 692 934 734 888 q 579 997 649 980 q 411 1014 509 1014 l 206 1014 l 206 951 l 450 951 q 557 934 514 951 q 621 883 599 917 q 643 797 643 849 q 599 664 643 721 q 481 568 555 608 q 303 493 408 529 m 462 1146 l 386 1146 l 540 1308 l 638 1308 l 462 1146 "},"Ř":{"ha":861,"x_min":144,"x_max":802,"o":"m 144 0 l 231 0 l 231 1014 l 144 1014 l 144 0 m 303 493 l 303 460 l 688 0 l 802 0 l 376 497 l 372 456 q 559 535 479 490 q 686 648 639 581 q 734 803 734 715 q 692 934 734 888 q 579 997 649 980 q 411 1014 509 1014 l 206 1014 l 206 951 l 450 951 q 557 934 514 951 q 621 883 599 917 q 643 797 643 849 q 599 664 643 721 q 481 568 555 608 q 303 493 408 529 m 390 1146 l 207 1308 l 298 1308 l 431 1184 l 563 1308 l 654 1308 l 471 1146 l 390 1146 "},"Ŗ":{"ha":861,"x_min":144,"x_max":802,"o":"m 144 0 l 231 0 l 231 1014 l 144 1014 l 144 0 m 303 493 l 303 460 l 688 0 l 802 0 l 376 497 l 372 456 q 559 535 479 490 q 686 648 639 581 q 734 803 734 715 q 692 934 734 888 q 579 997 649 980 q 411 1014 509 1014 l 206 1014 l 206 951 l 450 951 q 557 934 514 951 q 621 883 599 917 q 643 797 643 849 q 599 664 643 721 q 481 568 555 608 q 303 493 408 529 m 432 -362 q 470 -355 453 -362 l 452 -344 q 429 -392 444 -370 q 392 -434 413 -415 q 342 -473 371 -453 l 381 -519 q 478 -430 439 -484 q 518 -315 518 -375 q 493 -242 518 -267 q 429 -217 467 -217 q 372 -236 395 -217 q 349 -290 349 -256 q 359 -328 349 -312 q 388 -354 369 -345 q 432 -362 407 -362 "},"S":{"ha":861,"x_min":106,"x_max":753,"o":"m 726 918 l 718 1007 q 611 1026 664 1019 q 508 1032 558 1032 q 318 1008 402 1032 q 183 926 234 983 q 131 774 131 868 q 160 657 131 707 q 245 567 189 608 q 394 483 301 526 q 438 463 416 473 q 572 394 528 419 q 641 333 616 368 q 665 243 665 297 q 649 166 665 197 q 609 115 633 135 q 538 78 583 93 q 413 64 493 64 q 254 84 333 64 q 106 134 175 103 l 106 45 q 240 2 172 18 q 386 -14 309 -14 q 580 21 497 -14 q 708 120 663 56 q 753 269 753 184 q 718 392 753 344 q 631 471 683 440 q 449 563 578 501 q 314 637 365 603 q 236 709 263 671 q 209 794 209 747 q 222 859 209 835 q 260 903 235 883 q 337 936 285 923 q 469 950 389 950 q 726 918 586 950 "},"Ś":{"ha":861,"x_min":106,"x_max":753,"o":"m 726 918 l 718 1007 q 611 1026 664 1019 q 508 1032 558 1032 q 318 1008 402 1032 q 183 926 234 983 q 131 774 131 868 q 160 657 131 707 q 245 567 189 608 q 394 483 301 526 q 438 463 416 473 q 572 394 528 419 q 641 333 616 368 q 665 243 665 297 q 649 166 665 197 q 609 115 633 135 q 538 78 583 93 q 413 64 493 64 q 254 84 333 64 q 106 134 175 103 l 106 45 q 240 2 172 18 q 386 -14 309 -14 q 580 21 497 -14 q 708 120 663 56 q 753 269 753 184 q 718 392 753 344 q 631 471 683 440 q 449 563 578 501 q 314 637 365 603 q 236 709 263 671 q 209 794 209 747 q 222 859 209 835 q 260 903 235 883 q 337 936 285 923 q 469 950 389 950 q 726 918 586 950 m 462 1146 l 386 1146 l 540 1308 l 638 1308 l 462 1146 "},"Š":{"ha":861,"x_min":106,"x_max":753,"o":"m 726 918 l 718 1007 q 611 1026 664 1019 q 508 1032 558 1032 q 318 1008 402 1032 q 183 926 234 983 q 131 774 131 868 q 160 657 131 707 q 245 567 189 608 q 394 483 301 526 q 438 463 416 473 q 572 394 528 419 q 641 333 616 368 q 665 243 665 297 q 649 166 665 197 q 609 115 633 135 q 538 78 583 93 q 413 64 493 64 q 254 84 333 64 q 106 134 175 103 l 106 45 q 240 2 172 18 q 386 -14 309 -14 q 580 21 497 -14 q 708 120 663 56 q 753 269 753 184 q 718 392 753 344 q 631 471 683 440 q 449 563 578 501 q 314 637 365 603 q 236 709 263 671 q 209 794 209 747 q 222 859 209 835 q 260 903 235 883 q 337 936 285 923 q 469 950 389 950 q 726 918 586 950 m 390 1146 l 207 1308 l 298 1308 l 431 1184 l 563 1308 l 654 1308 l 471 1146 l 390 1146 "},"Ş":{"ha":861,"x_min":106,"x_max":753,"o":"m 726 918 l 718 1007 q 611 1026 664 1019 q 508 1032 558 1032 q 318 1008 402 1032 q 183 926 234 983 q 131 774 131 868 q 160 657 131 707 q 245 567 189 608 q 394 483 301 526 q 438 463 416 473 q 572 394 528 419 q 641 333 616 368 q 665 243 665 297 q 649 166 665 197 q 609 115 633 135 q 538 78 583 93 q 413 64 493 64 q 254 84 333 64 q 106 134 175 103 l 106 45 q 240 2 172 18 q 386 -14 309 -14 q 580 21 497 -14 q 708 120 663 56 q 753 269 753 184 q 718 392 753 344 q 631 471 683 440 q 449 563 578 501 q 314 637 365 603 q 236 709 263 671 q 209 794 209 747 q 222 859 209 835 q 260 903 235 883 q 337 936 285 923 q 469 950 389 950 q 726 918 586 950 m 442 -124 l 464 -158 l 461 33 l 399 33 l 399 -177 q 481 -201 453 -183 q 508 -258 508 -220 q 481 -310 508 -292 q 384 -327 453 -327 l 357 -327 l 357 -392 l 401 -392 q 509 -378 469 -392 q 566 -335 549 -363 q 583 -264 583 -308 q 567 -191 583 -219 q 520 -147 551 -162 q 442 -124 489 -131 "},"Ŝ":{"ha":861,"x_min":106,"x_max":753,"o":"m 726 918 l 718 1007 q 611 1026 664 1019 q 508 1032 558 1032 q 318 1008 402 1032 q 183 926 234 983 q 131 774 131 868 q 160 657 131 707 q 245 567 189 608 q 394 483 301 526 q 438 463 416 473 q 572 394 528 419 q 641 333 616 368 q 665 243 665 297 q 649 166 665 197 q 609 115 633 135 q 538 78 583 93 q 413 64 493 64 q 254 84 333 64 q 106 134 175 103 l 106 45 q 240 2 172 18 q 386 -14 309 -14 q 580 21 497 -14 q 708 120 663 56 q 753 269 753 184 q 718 392 753 344 q 631 471 683 440 q 449 563 578 501 q 314 637 365 603 q 236 709 263 671 q 209 794 209 747 q 222 859 209 835 q 260 903 235 883 q 337 936 285 923 q 469 950 389 950 q 726 918 586 950 m 390 1308 l 207 1146 l 298 1146 l 450 1288 l 411 1288 l 563 1146 l 654 1146 l 471 1308 l 390 1308 "},"Ș":{"ha":861,"x_min":106,"x_max":753,"o":"m 726 918 l 718 1007 q 611 1026 664 1019 q 508 1032 558 1032 q 318 1008 402 1032 q 183 926 234 983 q 131 774 131 868 q 160 657 131 707 q 245 567 189 608 q 394 483 301 526 q 438 463 416 473 q 572 394 528 419 q 641 333 616 368 q 665 243 665 297 q 649 166 665 197 q 609 115 633 135 q 538 78 583 93 q 413 64 493 64 q 254 84 333 64 q 106 134 175 103 l 106 45 q 240 2 172 18 q 386 -14 309 -14 q 580 21 497 -14 q 708 120 663 56 q 753 269 753 184 q 718 392 753 344 q 631 471 683 440 q 449 563 578 501 q 314 637 365 603 q 236 709 263 671 q 209 794 209 747 q 222 859 209 835 q 260 903 235 883 q 337 936 285 923 q 469 950 389 950 q 726 918 586 950 m 432 -362 q 470 -355 453 -362 l 452 -344 q 429 -392 444 -370 q 392 -434 413 -415 q 342 -473 371 -453 l 381 -519 q 478 -430 439 -484 q 518 -315 518 -375 q 493 -242 518 -267 q 429 -217 467 -217 q 372 -236 395 -217 q 349 -290 349 -256 q 359 -328 349 -312 q 388 -354 369 -345 q 432 -362 407 -362 "},"ẞ":{"ha":861,"x_min":132,"x_max":832,"o":"m 132 0 l 219 0 l 219 1014 l 132 1014 l 132 0 m 372 51 l 381 -17 l 436 -11 q 645 44 556 1 q 783 158 735 88 q 832 315 832 227 q 792 455 832 401 q 695 538 751 510 q 574 578 638 565 l 583 564 l 753 956 l 753 1014 l 174 1014 l 174 937 l 663 937 l 653 951 l 502 592 l 502 545 q 609 510 556 534 q 701 437 662 486 q 741 312 741 388 q 703 190 741 246 q 594 99 665 135 q 432 56 524 64 l 372 51 "},"T":{"ha":861,"x_min":78,"x_max":783,"o":"m 380 0 l 467 0 l 467 1014 l 380 1014 l 380 0 m 92 1014 l 78 938 l 783 938 l 769 1014 l 92 1014 "},"Ŧ":{"ha":861,"x_min":78,"x_max":783,"o":"m 190 566 l 190 490 l 671 490 l 671 566 l 190 566 m 380 0 l 467 0 l 467 1014 l 380 1014 l 380 0 m 92 1014 l 78 938 l 783 938 l 769 1014 l 92 1014 "},"Ť":{"ha":861,"x_min":78,"x_max":783,"o":"m 380 0 l 467 0 l 467 1014 l 380 1014 l 380 0 m 92 1014 l 78 938 l 783 938 l 769 1014 l 92 1014 m 390 1146 l 207 1308 l 298 1308 l 431 1184 l 563 1308 l 654 1308 l 471 1146 l 390 1146 "},"Ţ":{"ha":861,"x_min":78,"x_max":783,"o":"m 380 0 l 467 0 l 467 1014 l 380 1014 l 380 0 m 92 1014 l 78 938 l 783 938 l 769 1014 l 92 1014 m 436 -124 l 458 -158 l 455 33 l 392 33 l 392 -177 q 474 -201 447 -183 q 501 -258 501 -220 q 474 -310 501 -292 q 378 -327 447 -327 l 351 -327 l 351 -392 l 395 -392 q 503 -378 463 -392 q 560 -335 543 -363 q 577 -264 577 -308 q 561 -191 577 -219 q 514 -147 544 -162 q 436 -124 483 -131 "},"Ț":{"ha":861,"x_min":78,"x_max":783,"o":"m 380 0 l 467 0 l 467 1014 l 380 1014 l 380 0 m 92 1014 l 78 938 l 783 938 l 769 1014 l 92 1014 m 426 -362 q 464 -355 447 -362 l 446 -344 q 423 -392 438 -370 q 386 -434 407 -415 q 336 -473 365 -453 l 374 -519 q 472 -430 433 -484 q 512 -315 512 -375 q 486 -242 512 -267 q 423 -217 461 -217 q 366 -236 389 -217 q 343 -290 343 -256 q 353 -328 343 -312 q 382 -354 363 -345 q 426 -362 401 -362 "},"U":{"ha":861,"x_min":133,"x_max":728,"o":"m 421 -13 q 585 15 518 -13 q 690 113 652 42 q 728 306 728 183 l 728 1014 l 641 1014 l 641 267 q 628 160 641 198 q 593 102 615 123 q 537 72 573 83 q 447 62 501 62 q 293 102 342 62 q 232 205 244 143 q 220 373 220 267 l 220 1014 l 133 1014 l 133 318 q 158 151 133 224 q 247 32 183 78 q 421 -13 310 -13 "},"Ú":{"ha":861,"x_min":133,"x_max":728,"o":"m 421 -13 q 585 15 518 -13 q 690 113 652 42 q 728 306 728 183 l 728 1014 l 641 1014 l 641 267 q 628 160 641 198 q 593 102 615 123 q 537 72 573 83 q 447 62 501 62 q 293 102 342 62 q 232 205 244 143 q 220 373 220 267 l 220 1014 l 133 1014 l 133 318 q 158 151 133 224 q 247 32 183 78 q 421 -13 310 -13 m 462 1146 l 386 1146 l 540 1308 l 638 1308 l 462 1146 "},"Ŭ":{"ha":861,"x_min":133,"x_max":728,"o":"m 421 -13 q 585 15 518 -13 q 690 113 652 42 q 728 306 728 183 l 728 1014 l 641 1014 l 641 267 q 628 160 641 198 q 593 102 615 123 q 537 72 573 83 q 447 62 501 62 q 293 102 342 62 q 232 205 244 143 q 220 373 220 267 l 220 1014 l 133 1014 l 133 318 q 158 151 133 224 q 247 32 183 78 q 421 -13 310 -13 m 308 1308 l 245 1308 q 262 1221 242 1258 q 325 1162 282 1183 q 431 1141 368 1141 q 536 1162 493 1141 q 599 1221 579 1183 q 616 1308 619 1258 l 553 1308 q 523 1227 553 1258 q 431 1196 493 1196 q 338 1227 368 1196 q 308 1308 308 1258 "},"Û":{"ha":861,"x_min":133,"x_max":728,"o":"m 421 -13 q 585 15 518 -13 q 690 113 652 42 q 728 306 728 183 l 728 1014 l 641 1014 l 641 267 q 628 160 641 198 q 593 102 615 123 q 537 72 573 83 q 447 62 501 62 q 293 102 342 62 q 232 205 244 143 q 220 373 220 267 l 220 1014 l 133 1014 l 133 318 q 158 151 133 224 q 247 32 183 78 q 421 -13 310 -13 m 390 1308 l 207 1146 l 298 1146 l 450 1288 l 411 1288 l 563 1146 l 654 1146 l 471 1308 l 390 1308 "},"Ü":{"ha":861,"x_min":133,"x_max":728,"o":"m 421 -13 q 585 15 518 -13 q 690 113 652 42 q 728 306 728 183 l 728 1014 l 641 1014 l 641 267 q 628 160 641 198 q 593 102 615 123 q 537 72 573 83 q 447 62 501 62 q 293 102 342 62 q 232 205 244 143 q 220 373 220 267 l 220 1014 l 133 1014 l 133 318 q 158 151 133 224 q 247 32 183 78 q 421 -13 310 -13 m 260 1155 q 311 1173 292 1155 q 331 1223 331 1191 q 311 1273 331 1255 q 260 1291 292 1291 q 207 1273 227 1291 q 188 1223 188 1255 q 207 1173 188 1191 q 260 1155 227 1155 m 602 1155 q 654 1173 634 1155 q 674 1223 674 1191 q 654 1273 674 1255 q 602 1291 634 1291 q 550 1273 569 1291 q 530 1223 530 1255 q 550 1173 530 1191 q 602 1155 569 1155 "},"Ụ":{"ha":861,"x_min":133,"x_max":728,"o":"m 421 -13 q 585 15 518 -13 q 690 113 652 42 q 728 306 728 183 l 728 1014 l 641 1014 l 641 267 q 628 160 641 198 q 593 102 615 123 q 537 72 573 83 q 447 62 501 62 q 293 102 342 62 q 232 205 244 143 q 220 373 220 267 l 220 1014 l 133 1014 l 133 318 q 158 151 133 224 q 247 32 183 78 q 421 -13 310 -13 m 431 -353 q 484 -335 463 -353 q 504 -285 504 -317 q 484 -235 504 -253 q 431 -217 463 -217 q 377 -235 398 -217 q 357 -285 357 -253 q 366 -322 357 -306 q 392 -345 376 -337 q 431 -353 409 -353 "},"Ù":{"ha":861,"x_min":133,"x_max":728,"o":"m 421 -13 q 585 15 518 -13 q 690 113 652 42 q 728 306 728 183 l 728 1014 l 641 1014 l 641 267 q 628 160 641 198 q 593 102 615 123 q 537 72 573 83 q 447 62 501 62 q 293 102 342 62 q 232 205 244 143 q 220 373 220 267 l 220 1014 l 133 1014 l 133 318 q 158 151 133 224 q 247 32 183 78 q 421 -13 310 -13 m 399 1146 l 475 1146 l 321 1308 l 224 1308 l 399 1146 "},"Ű":{"ha":861,"x_min":133,"x_max":728,"o":"m 421 -13 q 585 15 518 -13 q 690 113 652 42 q 728 306 728 183 l 728 1014 l 641 1014 l 641 267 q 628 160 641 198 q 593 102 615 123 q 537 72 573 83 q 447 62 501 62 q 293 102 342 62 q 232 205 244 143 q 220 373 220 267 l 220 1014 l 133 1014 l 133 318 q 158 151 133 224 q 247 32 183 78 q 421 -13 310 -13 m 367 1308 l 265 1146 l 335 1146 l 456 1308 l 367 1308 m 617 1308 l 516 1146 l 585 1146 l 708 1308 l 617 1308 "},"Ū":{"ha":861,"x_min":133,"x_max":728,"o":"m 421 -13 q 585 15 518 -13 q 690 113 652 42 q 728 306 728 183 l 728 1014 l 641 1014 l 641 267 q 628 160 641 198 q 593 102 615 123 q 537 72 573 83 q 447 62 501 62 q 293 102 342 62 q 232 205 244 143 q 220 373 220 267 l 220 1014 l 133 1014 l 133 318 q 158 151 133 224 q 247 32 183 78 q 421 -13 310 -13 m 644 1202 l 644 1272 l 217 1272 l 217 1202 l 644 1202 "},"Ų":{"ha":861,"x_min":133,"x_max":728,"o":"m 421 -13 q 585 15 518 -13 q 690 113 652 42 q 728 306 728 183 l 728 1014 l 641 1014 l 641 267 q 628 160 641 198 q 593 102 615 123 q 537 72 573 83 q 447 62 501 62 q 293 102 342 62 q 232 205 244 143 q 220 373 220 267 l 220 1014 l 133 1014 l 133 318 q 158 151 133 224 q 247 32 183 78 q 421 -13 310 -13 m 542 0 l 501 26 q 403 -78 434 -33 q 372 -172 372 -124 q 402 -248 372 -218 q 504 -278 432 -278 l 542 -278 l 542 -203 l 522 -203 q 464 -190 481 -203 q 446 -151 446 -177 q 468 -85 446 -122 q 542 0 491 -47 "},"Ů":{"ha":861,"x_min":133,"x_max":728,"o":"m 421 -13 q 585 15 518 -13 q 690 113 652 42 q 728 306 728 183 l 728 1014 l 641 1014 l 641 267 q 628 160 641 198 q 593 102 615 123 q 537 72 573 83 q 447 62 501 62 q 293 102 342 62 q 232 205 244 143 q 220 373 220 267 l 220 1014 l 133 1014 l 133 318 q 158 151 133 224 q 247 32 183 78 q 421 -13 310 -13 m 431 999 q 509 1019 474 999 q 563 1075 543 1040 q 582 1155 582 1110 q 563 1234 582 1199 q 509 1290 543 1269 q 431 1310 474 1310 q 352 1290 387 1310 q 299 1234 318 1269 q 279 1155 279 1199 q 299 1075 279 1110 q 352 1019 318 1040 q 431 999 387 999 m 431 1056 q 361 1084 388 1056 q 335 1155 335 1112 q 361 1225 335 1198 q 431 1253 388 1253 q 500 1225 474 1253 q 526 1155 526 1198 q 500 1084 526 1112 q 431 1056 474 1056 "},"Ũ":{"ha":861,"x_min":133,"x_max":728,"o":"m 421 -13 q 585 15 518 -13 q 690 113 652 42 q 728 306 728 183 l 728 1014 l 641 1014 l 641 267 q 628 160 641 198 q 593 102 615 123 q 537 72 573 83 q 447 62 501 62 q 293 102 342 62 q 232 205 244 143 q 220 373 220 267 l 220 1014 l 133 1014 l 133 318 q 158 151 133 224 q 247 32 183 78 q 421 -13 310 -13 m 325 1315 q 232 1278 268 1315 q 186 1172 197 1242 l 249 1154 q 279 1223 258 1199 q 331 1247 300 1247 q 368 1236 352 1247 q 410 1202 385 1225 q 447 1170 431 1183 q 485 1150 463 1158 q 535 1141 508 1141 q 628 1178 592 1141 q 675 1284 665 1215 l 613 1302 q 582 1234 603 1258 q 531 1210 562 1210 q 493 1220 510 1210 q 451 1254 476 1231 q 414 1286 429 1274 q 375 1307 398 1298 q 325 1315 353 1315 "},"V":{"ha":861,"x_min":90,"x_max":769,"o":"m 183 1014 l 90 1014 q 200 478 130 726 q 393 0 269 230 l 467 0 q 660 478 590 230 q 769 1014 730 726 l 680 1014 q 590 542 649 761 q 436 117 532 324 l 427 117 q 272 543 331 324 q 183 1014 214 762 "},"W":{"ha":861,"x_min":25,"x_max":836,"o":"m 577 0 l 648 0 q 772 500 727 243 q 836 1014 816 758 l 750 1014 q 700 587 735 815 q 619 165 665 359 l 610 165 q 553 434 581 284 q 494 769 526 583 q 481 844 488 807 l 394 844 l 384 791 q 321 447 351 605 q 259 165 291 289 l 250 165 q 167 589 203 361 q 116 1014 131 817 l 25 1014 q 90 503 44 761 q 215 0 135 244 l 283 0 q 358 305 328 155 q 420 641 388 454 q 430 698 425 669 l 440 698 q 448 645 444 672 q 505 309 476 462 q 577 0 534 156 "},"Ẃ":{"ha":861,"x_min":25,"x_max":836,"o":"m 577 0 l 648 0 q 772 500 727 243 q 836 1014 816 758 l 750 1014 q 700 587 735 815 q 619 165 665 359 l 610 165 q 553 434 581 284 q 494 769 526 583 q 481 844 488 807 l 394 844 l 384 791 q 321 447 351 605 q 259 165 291 289 l 250 165 q 167 589 203 361 q 116 1014 131 817 l 25 1014 q 90 503 44 761 q 215 0 135 244 l 283 0 q 358 305 328 155 q 420 641 388 454 q 430 698 425 669 l 440 698 q 448 645 444 672 q 505 309 476 462 q 577 0 534 156 m 462 1146 l 386 1146 l 540 1308 l 638 1308 l 462 1146 "},"Ŵ":{"ha":861,"x_min":25,"x_max":836,"o":"m 577 0 l 648 0 q 772 500 727 243 q 836 1014 816 758 l 750 1014 q 700 587 735 815 q 619 165 665 359 l 610 165 q 553 434 581 284 q 494 769 526 583 q 481 844 488 807 l 394 844 l 384 791 q 321 447 351 605 q 259 165 291 289 l 250 165 q 167 589 203 361 q 116 1014 131 817 l 25 1014 q 90 503 44 761 q 215 0 135 244 l 283 0 q 358 305 328 155 q 420 641 388 454 q 430 698 425 669 l 440 698 q 448 645 444 672 q 505 309 476 462 q 577 0 534 156 m 390 1308 l 207 1146 l 298 1146 l 450 1288 l 411 1288 l 563 1146 l 654 1146 l 471 1308 l 390 1308 "},"Ẅ":{"ha":861,"x_min":25,"x_max":836,"o":"m 577 0 l 648 0 q 772 500 727 243 q 836 1014 816 758 l 750 1014 q 700 587 735 815 q 619 165 665 359 l 610 165 q 553 434 581 284 q 494 769 526 583 q 481 844 488 807 l 394 844 l 384 791 q 321 447 351 605 q 259 165 291 289 l 250 165 q 167 589 203 361 q 116 1014 131 817 l 25 1014 q 90 503 44 761 q 215 0 135 244 l 283 0 q 358 305 328 155 q 420 641 388 454 q 430 698 425 669 l 440 698 q 448 645 444 672 q 505 309 476 462 q 577 0 534 156 m 260 1155 q 311 1173 292 1155 q 331 1223 331 1191 q 311 1273 331 1255 q 260 1291 292 1291 q 207 1273 227 1291 q 188 1223 188 1255 q 207 1173 188 1191 q 260 1155 227 1155 m 602 1155 q 654 1173 634 1155 q 674 1223 674 1191 q 654 1273 674 1255 q 602 1291 634 1291 q 550 1273 569 1291 q 530 1223 530 1255 q 550 1173 530 1191 q 602 1155 569 1155 "},"Ẁ":{"ha":861,"x_min":25,"x_max":836,"o":"m 577 0 l 648 0 q 772 500 727 243 q 836 1014 816 758 l 750 1014 q 700 587 735 815 q 619 165 665 359 l 610 165 q 553 434 581 284 q 494 769 526 583 q 481 844 488 807 l 394 844 l 384 791 q 321 447 351 605 q 259 165 291 289 l 250 165 q 167 589 203 361 q 116 1014 131 817 l 25 1014 q 90 503 44 761 q 215 0 135 244 l 283 0 q 358 305 328 155 q 420 641 388 454 q 430 698 425 669 l 440 698 q 448 645 444 672 q 505 309 476 462 q 577 0 534 156 m 399 1146 l 475 1146 l 321 1308 l 224 1308 l 399 1146 "},"X":{"ha":861,"x_min":65,"x_max":797,"o":"m 181 1014 l 76 1014 l 690 0 l 797 0 l 181 1014 m 674 1014 l 424 556 l 477 494 l 781 1014 l 674 1014 m 174 0 l 449 478 l 395 543 l 65 0 l 174 0 "},"Y":{"ha":861,"x_min":70,"x_max":791,"o":"m 388 0 l 475 0 l 475 531 l 388 531 l 388 0 m 162 1014 l 70 1014 q 199 730 118 872 q 394 460 281 589 l 467 460 q 662 730 581 589 q 791 1014 743 872 l 703 1014 q 596 775 663 891 q 437 549 529 659 l 428 549 q 269 775 335 659 q 162 1014 202 891 "},"Ý":{"ha":861,"x_min":70,"x_max":791,"o":"m 388 0 l 475 0 l 475 531 l 388 531 l 388 0 m 162 1014 l 70 1014 q 199 730 118 872 q 394 460 281 589 l 467 460 q 662 730 581 589 q 791 1014 743 872 l 703 1014 q 596 775 663 891 q 437 549 529 659 l 428 549 q 269 775 335 659 q 162 1014 202 891 m 463 1146 l 387 1146 l 541 1308 l 638 1308 l 463 1146 "},"Ŷ":{"ha":861,"x_min":70,"x_max":791,"o":"m 388 0 l 475 0 l 475 531 l 388 531 l 388 0 m 162 1014 l 70 1014 q 199 730 118 872 q 394 460 281 589 l 467 460 q 662 730 581 589 q 791 1014 743 872 l 703 1014 q 596 775 663 891 q 437 549 529 659 l 428 549 q 269 775 335 659 q 162 1014 202 891 m 391 1308 l 208 1146 l 299 1146 l 451 1288 l 412 1288 l 564 1146 l 655 1146 l 472 1308 l 391 1308 "},"Ÿ":{"ha":861,"x_min":70,"x_max":791,"o":"m 388 0 l 475 0 l 475 531 l 388 531 l 388 0 m 162 1014 l 70 1014 q 199 730 118 872 q 394 460 281 589 l 467 460 q 662 730 581 589 q 791 1014 743 872 l 703 1014 q 596 775 663 891 q 437 549 529 659 l 428 549 q 269 775 335 659 q 162 1014 202 891 m 260 1155 q 312 1173 292 1155 q 332 1223 332 1191 q 312 1273 332 1255 q 260 1291 292 1291 q 208 1273 228 1291 q 188 1223 188 1255 q 208 1173 188 1191 q 260 1155 228 1155 m 603 1155 q 655 1173 635 1155 q 674 1223 674 1191 q 655 1273 674 1255 q 603 1291 635 1291 q 550 1273 570 1291 q 531 1223 531 1255 q 550 1173 531 1191 q 603 1155 570 1155 "},"Ỳ":{"ha":861,"x_min":70,"x_max":791,"o":"m 388 0 l 475 0 l 475 531 l 388 531 l 388 0 m 162 1014 l 70 1014 q 199 730 118 872 q 394 460 281 589 l 467 460 q 662 730 581 589 q 791 1014 743 872 l 703 1014 q 596 775 663 891 q 437 549 529 659 l 428 549 q 269 775 335 659 q 162 1014 202 891 m 400 1146 l 476 1146 l 322 1308 l 224 1308 l 400 1146 "},"Ȳ":{"ha":861,"x_min":70,"x_max":791,"o":"m 388 0 l 475 0 l 475 531 l 388 531 l 388 0 m 162 1014 l 70 1014 q 199 730 118 872 q 394 460 281 589 l 467 460 q 662 730 581 589 q 791 1014 743 872 l 703 1014 q 596 775 663 891 q 437 549 529 659 l 428 549 q 269 775 335 659 q 162 1014 202 891 m 644 1202 l 644 1272 l 218 1272 l 218 1202 l 644 1202 "},"Ỹ":{"ha":861,"x_min":70,"x_max":791,"o":"m 388 0 l 475 0 l 475 531 l 388 531 l 388 0 m 162 1014 l 70 1014 q 199 730 118 872 q 394 460 281 589 l 467 460 q 662 730 581 589 q 791 1014 743 872 l 703 1014 q 596 775 663 891 q 437 549 529 659 l 428 549 q 269 775 335 659 q 162 1014 202 891 m 326 1315 q 233 1278 269 1315 q 187 1172 197 1242 l 249 1154 q 280 1223 259 1199 q 331 1247 301 1247 q 369 1236 353 1247 q 411 1202 385 1225 q 447 1170 431 1183 q 486 1150 463 1158 q 536 1141 508 1141 q 629 1178 593 1141 q 676 1284 665 1215 l 613 1302 q 583 1234 603 1258 q 532 1210 563 1210 q 493 1220 510 1210 q 451 1254 476 1231 q 414 1286 430 1274 q 376 1307 399 1298 q 326 1315 353 1315 "},"Z":{"ha":861,"x_min":108,"x_max":758,"o":"m 703 1014 l 134 1014 l 108 937 l 626 937 l 615 951 l 120 57 l 129 0 l 733 0 l 758 76 l 190 76 l 208 47 l 713 959 l 703 1014 "},"Ź":{"ha":861,"x_min":108,"x_max":758,"o":"m 703 1014 l 134 1014 l 108 937 l 626 937 l 615 951 l 120 57 l 129 0 l 733 0 l 758 76 l 190 76 l 208 47 l 713 959 l 703 1014 m 462 1146 l 386 1146 l 540 1308 l 638 1308 l 462 1146 "},"Ž":{"ha":861,"x_min":108,"x_max":758,"o":"m 703 1014 l 134 1014 l 108 937 l 626 937 l 615 951 l 120 57 l 129 0 l 733 0 l 758 76 l 190 76 l 208 47 l 713 959 l 703 1014 m 390 1146 l 207 1308 l 298 1308 l 431 1184 l 563 1308 l 654 1308 l 471 1146 l 390 1146 "},"Ż":{"ha":861,"x_min":108,"x_max":758,"o":"m 703 1014 l 134 1014 l 108 937 l 626 937 l 615 951 l 120 57 l 129 0 l 733 0 l 758 76 l 190 76 l 208 47 l 713 959 l 703 1014 m 431 1155 q 484 1173 463 1155 q 504 1223 504 1191 q 484 1273 504 1255 q 431 1291 463 1291 q 377 1273 398 1291 q 357 1223 357 1255 q 377 1173 357 1191 q 431 1155 398 1155 "},"a":{"ha":861,"x_min":105,"x_max":718,"o":"m 631 0 l 718 0 l 718 515 q 690 624 718 581 q 602 689 663 667 q 447 710 542 710 q 296 696 372 710 q 157 659 220 682 l 129 569 q 294 618 210 602 q 466 635 378 635 q 552 621 515 635 q 610 576 589 607 q 631 493 631 544 l 631 0 m 644 336 l 644 408 q 403 392 521 408 q 195 327 285 377 q 105 180 105 276 q 133 82 105 126 q 216 10 160 38 q 351 -17 271 -17 q 477 1 407 -17 q 620 60 548 19 l 651 60 l 644 128 q 494 74 571 92 q 363 55 417 55 q 269 73 308 55 q 210 123 230 92 q 190 193 190 155 q 213 259 190 231 q 299 306 236 288 q 451 330 358 324 q 644 336 544 336 "},"á":{"ha":861,"x_min":105,"x_max":718,"o":"m 631 0 l 718 0 l 718 515 q 690 624 718 581 q 602 689 663 667 q 447 710 542 710 q 296 696 372 710 q 157 659 220 682 l 129 569 q 294 618 210 602 q 466 635 378 635 q 552 621 515 635 q 610 576 589 607 q 631 493 631 544 l 631 0 m 644 336 l 644 408 q 403 392 521 408 q 195 327 285 377 q 105 180 105 276 q 133 82 105 126 q 216 10 160 38 q 351 -17 271 -17 q 477 1 407 -17 q 620 60 548 19 l 651 60 l 644 128 q 494 74 571 92 q 363 55 417 55 q 269 73 308 55 q 210 123 230 92 q 190 193 190 155 q 213 259 190 231 q 299 306 236 288 q 451 330 358 324 q 644 336 544 336 m 462 885 l 386 885 l 540 1109 l 638 1109 l 462 885 "},"ă":{"ha":861,"x_min":105,"x_max":718,"o":"m 631 0 l 718 0 l 718 515 q 690 624 718 581 q 602 689 663 667 q 447 710 542 710 q 296 696 372 710 q 157 659 220 682 l 129 569 q 294 618 210 602 q 466 635 378 635 q 552 621 515 635 q 610 576 589 607 q 631 493 631 544 l 631 0 m 644 336 l 644 408 q 403 392 521 408 q 195 327 285 377 q 105 180 105 276 q 133 82 105 126 q 216 10 160 38 q 351 -17 271 -17 q 477 1 407 -17 q 620 60 548 19 l 651 60 l 644 128 q 494 74 571 92 q 363 55 417 55 q 269 73 308 55 q 210 123 230 92 q 190 193 190 155 q 213 259 190 231 q 299 306 236 288 q 451 330 358 324 q 644 336 544 336 m 308 1109 l 245 1109 q 288 939 240 999 q 431 880 335 880 q 574 939 526 880 q 616 1109 621 999 l 553 1109 q 524 989 553 1031 q 431 948 495 948 q 337 989 366 948 q 308 1109 308 1031 "},"â":{"ha":861,"x_min":105,"x_max":718,"o":"m 631 0 l 718 0 l 718 515 q 690 624 718 581 q 602 689 663 667 q 447 710 542 710 q 296 696 372 710 q 157 659 220 682 l 129 569 q 294 618 210 602 q 466 635 378 635 q 552 621 515 635 q 610 576 589 607 q 631 493 631 544 l 631 0 m 644 336 l 644 408 q 403 392 521 408 q 195 327 285 377 q 105 180 105 276 q 133 82 105 126 q 216 10 160 38 q 351 -17 271 -17 q 477 1 407 -17 q 620 60 548 19 l 651 60 l 644 128 q 494 74 571 92 q 363 55 417 55 q 269 73 308 55 q 210 123 230 92 q 190 193 190 155 q 213 259 190 231 q 299 306 236 288 q 451 330 358 324 q 644 336 544 336 m 397 1109 l 207 885 l 291 885 l 450 1085 l 411 1085 l 570 885 l 654 885 l 464 1109 l 397 1109 "},"ä":{"ha":861,"x_min":105,"x_max":718,"o":"m 631 0 l 718 0 l 718 515 q 690 624 718 581 q 602 689 663 667 q 447 710 542 710 q 296 696 372 710 q 157 659 220 682 l 129 569 q 294 618 210 602 q 466 635 378 635 q 552 621 515 635 q 610 576 589 607 q 631 493 631 544 l 631 0 m 644 336 l 644 408 q 403 392 521 408 q 195 327 285 377 q 105 180 105 276 q 133 82 105 126 q 216 10 160 38 q 351 -17 271 -17 q 477 1 407 -17 q 620 60 548 19 l 651 60 l 644 128 q 494 74 571 92 q 363 55 417 55 q 269 73 308 55 q 210 123 230 92 q 190 193 190 155 q 213 259 190 231 q 299 306 236 288 q 451 330 358 324 q 644 336 544 336 m 260 912 q 311 930 292 912 q 331 980 331 948 q 311 1030 331 1012 q 260 1048 292 1048 q 207 1030 227 1048 q 188 980 188 1012 q 207 930 188 948 q 260 912 227 912 m 602 912 q 654 930 634 912 q 674 980 674 948 q 654 1030 674 1012 q 602 1048 634 1048 q 550 1030 569 1048 q 530 980 530 1012 q 550 930 530 948 q 602 912 569 912 "},"à":{"ha":861,"x_min":105,"x_max":718,"o":"m 631 0 l 718 0 l 718 515 q 690 624 718 581 q 602 689 663 667 q 447 710 542 710 q 296 696 372 710 q 157 659 220 682 l 129 569 q 294 618 210 602 q 466 635 378 635 q 552 621 515 635 q 610 576 589 607 q 631 493 631 544 l 631 0 m 644 336 l 644 408 q 403 392 521 408 q 195 327 285 377 q 105 180 105 276 q 133 82 105 126 q 216 10 160 38 q 351 -17 271 -17 q 477 1 407 -17 q 620 60 548 19 l 651 60 l 644 128 q 494 74 571 92 q 363 55 417 55 q 269 73 308 55 q 210 123 230 92 q 190 193 190 155 q 213 259 190 231 q 299 306 236 288 q 451 330 358 324 q 644 336 544 336 m 399 885 l 475 885 l 321 1109 l 224 1109 l 399 885 "},"ā":{"ha":861,"x_min":105,"x_max":718,"o":"m 631 0 l 718 0 l 718 515 q 690 624 718 581 q 602 689 663 667 q 447 710 542 710 q 296 696 372 710 q 157 659 220 682 l 129 569 q 294 618 210 602 q 466 635 378 635 q 552 621 515 635 q 610 576 589 607 q 631 493 631 544 l 631 0 m 644 336 l 644 408 q 403 392 521 408 q 195 327 285 377 q 105 180 105 276 q 133 82 105 126 q 216 10 160 38 q 351 -17 271 -17 q 477 1 407 -17 q 620 60 548 19 l 651 60 l 644 128 q 494 74 571 92 q 363 55 417 55 q 269 73 308 55 q 210 123 230 92 q 190 193 190 155 q 213 259 190 231 q 299 306 236 288 q 451 330 358 324 q 644 336 544 336 m 644 930 l 644 999 l 217 999 l 217 930 l 644 930 "},"ą":{"ha":861,"x_min":105,"x_max":718,"o":"m 631 0 l 718 0 l 718 515 q 690 624 718 581 q 602 689 663 667 q 447 710 542 710 q 296 696 372 710 q 157 659 220 682 l 129 569 q 294 618 210 602 q 466 635 378 635 q 552 621 515 635 q 610 576 589 607 q 631 493 631 544 l 631 0 m 644 336 l 644 408 q 403 392 521 408 q 195 327 285 377 q 105 180 105 276 q 133 82 105 126 q 216 10 160 38 q 351 -17 271 -17 q 477 1 407 -17 q 620 60 548 19 l 651 60 l 644 128 q 494 74 571 92 q 363 55 417 55 q 269 73 308 55 q 210 123 230 92 q 190 193 190 155 q 213 259 190 231 q 299 306 236 288 q 451 330 358 324 q 644 336 544 336 m 718 0 l 678 26 q 580 -78 610 -33 q 549 -172 549 -124 q 578 -248 549 -218 q 681 -278 608 -278 l 718 -278 l 718 -203 l 698 -203 q 640 -190 658 -203 q 622 -151 622 -177 q 645 -85 622 -122 q 718 0 667 -47 "},"å":{"ha":861,"x_min":105,"x_max":718,"o":"m 631 0 l 718 0 l 718 515 q 690 624 718 581 q 602 689 663 667 q 447 710 542 710 q 296 696 372 710 q 157 659 220 682 l 129 569 q 294 618 210 602 q 466 635 378 635 q 552 621 515 635 q 610 576 589 607 q 631 493 631 544 l 631 0 m 644 336 l 644 408 q 403 392 521 408 q 195 327 285 377 q 105 180 105 276 q 133 82 105 126 q 216 10 160 38 q 351 -17 271 -17 q 477 1 407 -17 q 620 60 548 19 l 651 60 l 644 128 q 494 74 571 92 q 363 55 417 55 q 269 73 308 55 q 210 123 230 92 q 190 193 190 155 q 213 259 190 231 q 299 306 236 288 q 451 330 358 324 q 644 336 544 336 m 431 844 q 509 864 474 844 q 563 919 543 884 q 582 999 582 955 q 563 1079 582 1044 q 509 1134 543 1114 q 431 1154 474 1154 q 352 1134 387 1154 q 299 1079 318 1114 q 279 999 279 1044 q 299 919 279 955 q 352 864 318 884 q 431 844 387 844 m 431 901 q 361 928 388 901 q 335 999 335 956 q 361 1070 335 1042 q 431 1097 388 1097 q 500 1070 474 1097 q 526 999 526 1042 q 500 928 526 956 q 431 901 474 901 "},"ã":{"ha":861,"x_min":105,"x_max":718,"o":"m 631 0 l 718 0 l 718 515 q 690 624 718 581 q 602 689 663 667 q 447 710 542 710 q 296 696 372 710 q 157 659 220 682 l 129 569 q 294 618 210 602 q 466 635 378 635 q 552 621 515 635 q 610 576 589 607 q 631 493 631 544 l 631 0 m 644 336 l 644 408 q 403 392 521 408 q 195 327 285 377 q 105 180 105 276 q 133 82 105 126 q 216 10 160 38 q 351 -17 271 -17 q 477 1 407 -17 q 620 60 548 19 l 651 60 l 644 128 q 494 74 571 92 q 363 55 417 55 q 269 73 308 55 q 210 123 230 92 q 190 193 190 155 q 213 259 190 231 q 299 306 236 288 q 451 330 358 324 q 644 336 544 336 m 322 1088 q 258 1067 286 1088 q 211 1007 229 1047 q 186 910 193 967 l 249 888 q 278 983 259 948 q 327 1017 297 1017 q 364 1003 347 1017 q 406 958 381 989 q 446 913 429 930 q 486 884 463 897 q 538 872 510 872 q 603 893 574 872 q 650 953 631 913 q 675 1049 668 992 l 613 1072 q 583 977 602 1012 q 535 942 565 942 q 498 957 515 942 q 455 1002 481 971 q 415 1046 432 1029 q 374 1075 398 1063 q 322 1088 351 1088 "},"æ":{"ha":861,"x_min":49,"x_max":811,"o":"m 401 383 l 474 383 l 474 515 q 448 622 474 578 q 377 688 422 666 q 280 710 333 710 q 187 696 235 710 q 95 659 139 682 l 71 569 q 184 618 128 601 q 276 635 239 635 q 337 621 309 635 q 383 575 365 607 q 401 493 401 543 l 401 383 m 624 -17 q 703 -4 663 -17 q 776 27 743 9 l 784 103 q 711 74 747 85 q 643 64 675 64 q 555 103 591 64 q 502 207 519 142 q 484 353 484 273 q 500 520 484 458 q 539 610 515 583 q 574 635 553 627 q 616 643 594 643 q 700 595 669 643 q 731 461 731 548 q 726 392 731 425 l 749 433 l 433 433 l 433 372 l 811 372 l 811 447 q 792 586 811 527 q 733 678 774 645 q 630 711 693 711 q 529 682 577 711 q 450 592 481 653 q 419 440 419 531 l 419 374 l 404 352 q 430 154 404 237 q 505 27 456 71 q 624 -17 554 -17 m 238 -17 q 340 4 287 -17 q 443 77 394 25 l 474 77 l 474 157 q 365 82 423 108 q 260 55 306 55 q 190 73 219 55 q 145 123 161 92 q 130 193 130 155 q 148 259 130 231 q 215 305 166 288 q 319 328 260 321 q 428 336 377 335 l 442 336 l 442 408 q 274 392 360 408 q 118 326 188 377 q 49 180 49 276 q 71 82 49 127 q 136 10 93 38 q 238 -17 178 -17 "},"ǽ":{"ha":861,"x_min":49,"x_max":811,"o":"m 401 383 l 474 383 l 474 515 q 448 622 474 578 q 377 688 422 666 q 280 710 333 710 q 187 696 235 710 q 95 659 139 682 l 71 569 q 184 618 128 601 q 276 635 239 635 q 337 621 309 635 q 383 575 365 607 q 401 493 401 543 l 401 383 m 624 -17 q 703 -4 663 -17 q 776 27 743 9 l 784 103 q 711 74 747 85 q 643 64 675 64 q 555 103 591 64 q 502 207 519 142 q 484 353 484 273 q 500 520 484 458 q 539 610 515 583 q 574 635 553 627 q 616 643 594 643 q 700 595 669 643 q 731 461 731 548 q 726 392 731 425 l 749 433 l 433 433 l 433 372 l 811 372 l 811 447 q 792 586 811 527 q 733 678 774 645 q 630 711 693 711 q 529 682 577 711 q 450 592 481 653 q 419 440 419 531 l 419 374 l 404 352 q 430 154 404 237 q 505 27 456 71 q 624 -17 554 -17 m 238 -17 q 340 4 287 -17 q 443 77 394 25 l 474 77 l 474 157 q 365 82 423 108 q 260 55 306 55 q 190 73 219 55 q 145 123 161 92 q 130 193 130 155 q 148 259 130 231 q 215 305 166 288 q 319 328 260 321 q 428 336 377 335 l 442 336 l 442 408 q 274 392 360 408 q 118 326 188 377 q 49 180 49 276 q 71 82 49 127 q 136 10 93 38 q 238 -17 178 -17 m 462 885 l 386 885 l 540 1109 l 638 1109 l 462 885 "},"b":{"ha":861,"x_min":134,"x_max":778,"o":"m 210 88 l 220 97 l 220 1063 l 134 1063 l 134 0 l 183 0 l 210 88 m 778 375 q 746 548 778 472 q 647 667 714 623 q 481 710 581 710 q 342 685 405 710 q 223 619 279 660 l 203 619 l 199 552 q 327 615 263 592 q 456 639 392 639 q 631 559 580 639 q 683 349 683 478 q 655 186 683 242 q 584 97 628 129 q 515 61 549 72 q 437 51 481 51 q 308 70 372 51 q 184 126 243 89 l 167 65 q 286 5 221 26 q 422 -16 351 -16 q 606 31 526 -16 q 732 167 687 78 q 778 375 778 255 "},"c":{"ha":861,"x_min":128,"x_max":749,"o":"m 541 711 q 328 670 422 711 q 182 549 235 630 q 128 349 128 467 q 175 156 128 238 q 311 28 222 74 q 525 -17 401 -17 q 639 -7 588 -17 q 732 19 690 3 l 749 95 q 645 71 694 80 q 545 63 597 63 q 369 99 444 63 q 252 203 294 135 q 210 366 210 272 q 241 507 210 452 q 310 590 271 563 q 385 622 340 611 q 495 632 430 632 q 626 622 560 632 q 749 594 691 612 l 740 684 q 641 704 691 697 q 541 711 592 711 "},"ć":{"ha":861,"x_min":128,"x_max":749,"o":"m 541 711 q 328 670 422 711 q 182 549 235 630 q 128 349 128 467 q 175 156 128 238 q 311 28 222 74 q 525 -17 401 -17 q 639 -7 588 -17 q 732 19 690 3 l 749 95 q 645 71 694 80 q 545 63 597 63 q 369 99 444 63 q 252 203 294 135 q 210 366 210 272 q 241 507 210 452 q 310 590 271 563 q 385 622 340 611 q 495 632 430 632 q 626 622 560 632 q 749 594 691 612 l 740 684 q 641 704 691 697 q 541 711 592 711 m 510 885 l 435 885 l 589 1109 l 686 1109 l 510 885 "},"č":{"ha":861,"x_min":128,"x_max":749,"o":"m 541 711 q 328 670 422 711 q 182 549 235 630 q 128 349 128 467 q 175 156 128 238 q 311 28 222 74 q 525 -17 401 -17 q 639 -7 588 -17 q 732 19 690 3 l 749 95 q 645 71 694 80 q 545 63 597 63 q 369 99 444 63 q 252 203 294 135 q 210 366 210 272 q 241 507 210 452 q 310 590 271 563 q 385 622 340 611 q 495 632 430 632 q 626 622 560 632 q 749 594 691 612 l 740 684 q 641 704 691 697 q 541 711 592 711 m 446 885 l 256 1109 l 340 1109 l 479 933 l 619 1109 l 703 1109 l 513 885 l 446 885 "},"ç":{"ha":861,"x_min":128,"x_max":749,"o":"m 541 711 q 328 670 422 711 q 182 549 235 630 q 128 349 128 467 q 175 156 128 238 q 311 28 222 74 q 525 -17 401 -17 q 639 -7 588 -17 q 732 19 690 3 l 749 95 q 645 71 694 80 q 545 63 597 63 q 369 99 444 63 q 252 203 294 135 q 210 366 210 272 q 241 507 210 452 q 310 590 271 563 q 385 622 340 611 q 495 632 430 632 q 626 622 560 632 q 749 594 691 612 l 740 684 q 641 704 691 697 q 541 711 592 711 m 442 -124 l 464 -158 l 461 33 l 399 33 l 399 -177 q 481 -201 453 -183 q 508 -258 508 -220 q 481 -310 508 -292 q 384 -327 453 -327 l 357 -327 l 357 -392 l 401 -392 q 509 -378 469 -392 q 566 -335 549 -363 q 583 -264 583 -308 q 567 -191 583 -219 q 520 -147 551 -162 q 442 -124 489 -131 "},"ĉ":{"ha":861,"x_min":128,"x_max":749,"o":"m 541 711 q 328 670 422 711 q 182 549 235 630 q 128 349 128 467 q 175 156 128 238 q 311 28 222 74 q 525 -17 401 -17 q 639 -7 588 -17 q 732 19 690 3 l 749 95 q 645 71 694 80 q 545 63 597 63 q 369 99 444 63 q 252 203 294 135 q 210 366 210 272 q 241 507 210 452 q 310 590 271 563 q 385 622 340 611 q 495 632 430 632 q 626 622 560 632 q 749 594 691 612 l 740 684 q 641 704 691 697 q 541 711 592 711 m 446 1109 l 256 885 l 340 885 l 499 1085 l 460 1085 l 619 885 l 703 885 l 513 1109 l 446 1109 "},"ċ":{"ha":861,"x_min":128,"x_max":749,"o":"m 541 711 q 328 670 422 711 q 182 549 235 630 q 128 349 128 467 q 175 156 128 238 q 311 28 222 74 q 525 -17 401 -17 q 639 -7 588 -17 q 732 19 690 3 l 749 95 q 645 71 694 80 q 545 63 597 63 q 369 99 444 63 q 252 203 294 135 q 210 366 210 272 q 241 507 210 452 q 310 590 271 563 q 385 622 340 611 q 495 632 430 632 q 626 622 560 632 q 749 594 691 612 l 740 684 q 641 704 691 697 q 541 711 592 711 m 479 912 q 532 930 512 912 q 553 980 553 948 q 532 1030 553 1012 q 479 1048 512 1048 q 426 1030 447 1048 q 406 980 406 1012 q 415 943 406 959 q 441 920 424 928 q 479 912 458 912 "},"d":{"ha":861,"x_min":83,"x_max":728,"o":"m 642 1063 l 642 104 l 651 94 l 651 0 l 728 0 l 728 1063 l 642 1063 m 83 319 q 115 147 83 222 q 214 28 147 72 q 381 -16 281 -16 q 519 9 456 -16 q 638 76 582 34 l 658 76 l 663 142 q 534 79 599 103 q 405 56 469 56 q 230 136 281 56 q 178 345 178 216 q 206 509 178 452 q 277 597 233 565 q 346 633 312 622 q 424 644 380 644 q 553 625 489 644 q 677 569 618 606 l 694 629 q 575 690 640 669 q 440 710 510 710 q 255 663 335 710 q 129 528 174 616 q 83 319 83 440 "},"ď":{"ha":861,"x_min":97,"x_max":939,"o":"m 97 319 q 125 147 97 222 q 214 28 153 72 q 368 -16 275 -16 q 486 8 433 -16 q 598 76 539 32 l 618 76 l 622 142 q 500 78 555 101 q 392 56 445 56 q 235 134 279 56 q 192 345 192 213 q 203 469 192 420 q 234 548 215 519 q 278 597 253 576 q 342 632 306 619 q 427 644 378 644 q 526 625 474 644 q 637 569 577 607 l 653 629 q 543 690 599 669 q 427 710 487 710 q 253 662 328 710 q 138 525 178 614 q 97 319 97 437 m 601 1063 l 601 104 l 611 94 l 611 0 l 688 0 l 688 1063 l 601 1063 m 855 1124 l 843 890 l 910 890 l 939 1124 l 855 1124 "},"đ":{"ha":861,"x_min":83,"x_max":814,"o":"m 675 944 l 655 944 l 314 944 l 314 876 l 814 876 l 814 944 l 675 944 m 642 1063 l 642 104 l 651 94 l 651 0 l 728 0 l 728 1063 l 642 1063 m 83 319 q 115 147 83 222 q 214 28 147 72 q 381 -16 281 -16 q 519 9 456 -16 q 638 76 582 34 l 658 76 l 663 142 q 534 79 599 103 q 405 56 469 56 q 230 136 281 56 q 178 345 178 216 q 206 509 178 452 q 277 597 233 565 q 346 633 312 622 q 424 644 380 644 q 553 625 489 644 q 677 569 618 606 l 694 629 q 575 690 640 669 q 440 710 510 710 q 255 663 335 710 q 129 528 174 616 q 83 319 83 440 "},"ð":{"ha":861,"x_min":97,"x_max":764,"o":"m 673 1006 l 645 1068 l 188 865 l 216 802 l 673 1006 m 425 -17 q 595 23 518 -17 q 718 144 672 63 q 764 346 764 226 q 750 508 764 436 q 700 652 735 580 q 600 811 665 724 q 528 898 569 853 q 424 1011 488 943 q 360 1078 380 1056 l 285 1036 q 315 1003 305 1015 q 345 970 324 992 q 444 862 409 901 q 508 782 479 822 q 607 624 573 690 q 656 492 642 557 q 669 340 669 426 q 656 210 669 260 q 625 135 642 160 q 585 96 607 111 q 524 70 560 78 q 443 61 489 61 q 283 105 338 61 q 209 214 227 149 q 192 358 192 278 q 204 487 192 438 q 234 560 217 536 q 275 601 252 585 q 335 627 301 619 q 417 635 370 635 q 569 609 500 635 q 694 532 638 582 l 608 671 l 594 678 q 519 703 559 694 q 438 711 480 711 q 269 672 347 711 q 144 550 192 632 q 97 347 97 468 q 138 153 97 235 q 252 27 178 72 q 425 -17 326 -17 "},"e":{"ha":861,"x_min":117,"x_max":743,"o":"m 306 604 q 369 632 331 622 q 458 643 408 643 q 571 622 527 643 q 636 561 615 601 q 658 461 658 521 q 656 425 658 442 q 651 392 654 408 l 679 433 l 190 433 l 190 372 l 743 372 l 743 447 q 718 579 743 519 q 636 675 694 638 q 483 711 578 711 q 298 667 381 711 q 166 536 215 622 q 117 331 117 451 q 158 147 117 225 q 278 26 199 69 q 473 -17 358 -17 q 598 -4 541 -17 q 702 27 656 9 l 710 103 q 609 75 663 86 q 496 64 556 64 q 319 103 385 64 q 226 206 253 142 q 199 353 199 271 q 231 514 199 454 q 306 604 263 574 "},"é":{"ha":861,"x_min":117,"x_max":743,"o":"m 306 604 q 369 632 331 622 q 458 643 408 643 q 571 622 527 643 q 636 561 615 601 q 658 461 658 521 q 656 425 658 442 q 651 392 654 408 l 679 433 l 190 433 l 190 372 l 743 372 l 743 447 q 718 579 743 519 q 636 675 694 638 q 483 711 578 711 q 298 667 381 711 q 166 536 215 622 q 117 331 117 451 q 158 147 117 225 q 278 26 199 69 q 473 -17 358 -17 q 598 -4 541 -17 q 702 27 656 9 l 710 103 q 609 75 663 86 q 496 64 556 64 q 319 103 385 64 q 226 206 253 142 q 199 353 199 271 q 231 514 199 454 q 306 604 263 574 m 462 885 l 386 885 l 540 1109 l 638 1109 l 462 885 "},"ĕ":{"ha":861,"x_min":117,"x_max":743,"o":"m 306 604 q 369 632 331 622 q 458 643 408 643 q 571 622 527 643 q 636 561 615 601 q 658 461 658 521 q 656 425 658 442 q 651 392 654 408 l 679 433 l 190 433 l 190 372 l 743 372 l 743 447 q 718 579 743 519 q 636 675 694 638 q 483 711 578 711 q 298 667 381 711 q 166 536 215 622 q 117 331 117 451 q 158 147 117 225 q 278 26 199 69 q 473 -17 358 -17 q 598 -4 541 -17 q 702 27 656 9 l 710 103 q 609 75 663 86 q 496 64 556 64 q 319 103 385 64 q 226 206 253 142 q 199 353 199 271 q 231 514 199 454 q 306 604 263 574 m 308 1109 l 245 1109 q 288 939 240 999 q 431 880 335 880 q 574 939 526 880 q 616 1109 621 999 l 553 1109 q 524 989 553 1031 q 431 948 495 948 q 337 989 366 948 q 308 1109 308 1031 "},"ě":{"ha":861,"x_min":117,"x_max":743,"o":"m 306 604 q 369 632 331 622 q 458 643 408 643 q 571 622 527 643 q 636 561 615 601 q 658 461 658 521 q 656 425 658 442 q 651 392 654 408 l 679 433 l 190 433 l 190 372 l 743 372 l 743 447 q 718 579 743 519 q 636 675 694 638 q 483 711 578 711 q 298 667 381 711 q 166 536 215 622 q 117 331 117 451 q 158 147 117 225 q 278 26 199 69 q 473 -17 358 -17 q 598 -4 541 -17 q 702 27 656 9 l 710 103 q 609 75 663 86 q 496 64 556 64 q 319 103 385 64 q 226 206 253 142 q 199 353 199 271 q 231 514 199 454 q 306 604 263 574 m 397 885 l 207 1109 l 291 1109 l 431 933 l 570 1109 l 654 1109 l 464 885 l 397 885 "},"ê":{"ha":861,"x_min":117,"x_max":743,"o":"m 306 604 q 369 632 331 622 q 458 643 408 643 q 571 622 527 643 q 636 561 615 601 q 658 461 658 521 q 656 425 658 442 q 651 392 654 408 l 679 433 l 190 433 l 190 372 l 743 372 l 743 447 q 718 579 743 519 q 636 675 694 638 q 483 711 578 711 q 298 667 381 711 q 166 536 215 622 q 117 331 117 451 q 158 147 117 225 q 278 26 199 69 q 473 -17 358 -17 q 598 -4 541 -17 q 702 27 656 9 l 710 103 q 609 75 663 86 q 496 64 556 64 q 319 103 385 64 q 226 206 253 142 q 199 353 199 271 q 231 514 199 454 q 306 604 263 574 m 397 1109 l 207 885 l 291 885 l 450 1085 l 411 1085 l 570 885 l 654 885 l 464 1109 l 397 1109 "},"ë":{"ha":861,"x_min":117,"x_max":743,"o":"m 306 604 q 369 632 331 622 q 458 643 408 643 q 571 622 527 643 q 636 561 615 601 q 658 461 658 521 q 656 425 658 442 q 651 392 654 408 l 679 433 l 190 433 l 190 372 l 743 372 l 743 447 q 718 579 743 519 q 636 675 694 638 q 483 711 578 711 q 298 667 381 711 q 166 536 215 622 q 117 331 117 451 q 158 147 117 225 q 278 26 199 69 q 473 -17 358 -17 q 598 -4 541 -17 q 702 27 656 9 l 710 103 q 609 75 663 86 q 496 64 556 64 q 319 103 385 64 q 226 206 253 142 q 199 353 199 271 q 231 514 199 454 q 306 604 263 574 m 260 912 q 311 930 292 912 q 331 980 331 948 q 311 1030 331 1012 q 260 1048 292 1048 q 207 1030 227 1048 q 188 980 188 1012 q 207 930 188 948 q 260 912 227 912 m 602 912 q 654 930 634 912 q 674 980 674 948 q 654 1030 674 1012 q 602 1048 634 1048 q 550 1030 569 1048 q 530 980 530 1012 q 550 930 530 948 q 602 912 569 912 "},"ė":{"ha":861,"x_min":117,"x_max":743,"o":"m 306 604 q 369 632 331 622 q 458 643 408 643 q 571 622 527 643 q 636 561 615 601 q 658 461 658 521 q 656 425 658 442 q 651 392 654 408 l 679 433 l 190 433 l 190 372 l 743 372 l 743 447 q 718 579 743 519 q 636 675 694 638 q 483 711 578 711 q 298 667 381 711 q 166 536 215 622 q 117 331 117 451 q 158 147 117 225 q 278 26 199 69 q 473 -17 358 -17 q 598 -4 541 -17 q 702 27 656 9 l 710 103 q 609 75 663 86 q 496 64 556 64 q 319 103 385 64 q 226 206 253 142 q 199 353 199 271 q 231 514 199 454 q 306 604 263 574 m 431 912 q 484 930 463 912 q 504 980 504 948 q 484 1030 504 1012 q 431 1048 463 1048 q 377 1030 398 1048 q 357 980 357 1012 q 366 943 357 959 q 392 920 376 928 q 431 912 409 912 "},"ẹ":{"ha":861,"x_min":117,"x_max":743,"o":"m 306 604 q 369 632 331 622 q 458 643 408 643 q 571 622 527 643 q 636 561 615 601 q 658 461 658 521 q 656 425 658 442 q 651 392 654 408 l 679 433 l 190 433 l 190 372 l 743 372 l 743 447 q 718 579 743 519 q 636 675 694 638 q 483 711 578 711 q 298 667 381 711 q 166 536 215 622 q 117 331 117 451 q 158 147 117 225 q 278 26 199 69 q 473 -17 358 -17 q 598 -4 541 -17 q 702 27 656 9 l 710 103 q 609 75 663 86 q 496 64 556 64 q 319 103 385 64 q 226 206 253 142 q 199 353 199 271 q 231 514 199 454 q 306 604 263 574 m 431 -353 q 484 -335 463 -353 q 504 -285 504 -317 q 484 -235 504 -253 q 431 -217 463 -217 q 377 -235 398 -217 q 357 -285 357 -253 q 366 -322 357 -306 q 392 -345 376 -337 q 431 -353 409 -353 "},"è":{"ha":861,"x_min":117,"x_max":743,"o":"m 306 604 q 369 632 331 622 q 458 643 408 643 q 571 622 527 643 q 636 561 615 601 q 658 461 658 521 q 656 425 658 442 q 651 392 654 408 l 679 433 l 190 433 l 190 372 l 743 372 l 743 447 q 718 579 743 519 q 636 675 694 638 q 483 711 578 711 q 298 667 381 711 q 166 536 215 622 q 117 331 117 451 q 158 147 117 225 q 278 26 199 69 q 473 -17 358 -17 q 598 -4 541 -17 q 702 27 656 9 l 710 103 q 609 75 663 86 q 496 64 556 64 q 319 103 385 64 q 226 206 253 142 q 199 353 199 271 q 231 514 199 454 q 306 604 263 574 m 399 885 l 475 885 l 321 1109 l 224 1109 l 399 885 "},"ē":{"ha":861,"x_min":117,"x_max":743,"o":"m 306 604 q 369 632 331 622 q 458 643 408 643 q 571 622 527 643 q 636 561 615 601 q 658 461 658 521 q 656 425 658 442 q 651 392 654 408 l 679 433 l 190 433 l 190 372 l 743 372 l 743 447 q 718 579 743 519 q 636 675 694 638 q 483 711 578 711 q 298 667 381 711 q 166 536 215 622 q 117 331 117 451 q 158 147 117 225 q 278 26 199 69 q 473 -17 358 -17 q 598 -4 541 -17 q 702 27 656 9 l 710 103 q 609 75 663 86 q 496 64 556 64 q 319 103 385 64 q 226 206 253 142 q 199 353 199 271 q 231 514 199 454 q 306 604 263 574 m 644 930 l 644 999 l 217 999 l 217 930 l 644 930 "},"ę":{"ha":861,"x_min":117,"x_max":743,"o":"m 306 604 q 369 632 331 622 q 458 643 408 643 q 571 622 527 643 q 636 561 615 601 q 658 461 658 521 q 656 425 658 442 q 651 392 654 408 l 679 433 l 190 433 l 190 372 l 743 372 l 743 447 q 718 579 743 519 q 636 675 694 638 q 483 711 578 711 q 298 667 381 711 q 166 536 215 622 q 117 331 117 451 q 158 147 117 225 q 278 26 199 69 q 473 -17 358 -17 q 598 -4 541 -17 q 702 27 656 9 l 710 103 q 609 75 663 86 q 496 64 556 64 q 319 103 385 64 q 226 206 253 142 q 199 353 199 271 q 231 514 199 454 q 306 604 263 574 m 563 0 l 523 26 q 425 -78 456 -33 q 394 -172 394 -124 q 424 -248 394 -218 q 526 -278 453 -278 l 563 -278 l 563 -203 l 543 -203 q 485 -190 503 -203 q 467 -151 467 -177 q 490 -85 467 -122 q 563 0 513 -47 "},"ẽ":{"ha":861,"x_min":117,"x_max":743,"o":"m 306 604 q 369 632 331 622 q 458 643 408 643 q 571 622 527 643 q 636 561 615 601 q 658 461 658 521 q 656 425 658 442 q 651 392 654 408 l 679 433 l 190 433 l 190 372 l 743 372 l 743 447 q 718 579 743 519 q 636 675 694 638 q 483 711 578 711 q 298 667 381 711 q 166 536 215 622 q 117 331 117 451 q 158 147 117 225 q 278 26 199 69 q 473 -17 358 -17 q 598 -4 541 -17 q 702 27 656 9 l 710 103 q 609 75 663 86 q 496 64 556 64 q 319 103 385 64 q 226 206 253 142 q 199 353 199 271 q 231 514 199 454 q 306 604 263 574 m 322 1088 q 258 1067 286 1088 q 211 1007 229 1047 q 186 910 193 967 l 249 888 q 278 983 259 948 q 327 1017 297 1017 q 364 1003 347 1017 q 406 958 381 989 q 446 913 429 930 q 486 884 463 897 q 538 872 510 872 q 603 893 574 872 q 650 953 631 913 q 675 1049 668 992 l 613 1072 q 583 977 602 1012 q 535 942 565 942 q 498 957 515 942 q 455 1002 481 971 q 415 1046 432 1029 q 374 1075 398 1063 q 322 1088 351 1088 "},"ə":{"ha":861,"x_min":118,"x_max":744,"o":"m 556 90 q 492 62 531 73 q 403 51 453 51 q 290 72 334 51 q 225 133 246 93 q 203 233 203 174 q 205 269 203 253 q 210 302 207 286 l 182 262 l 672 262 l 672 322 l 118 322 l 118 248 q 143 116 118 175 q 225 20 167 56 q 378 -17 283 -17 q 563 28 480 -17 q 695 158 646 72 q 744 363 744 244 q 703 548 744 469 q 583 668 663 626 q 388 711 503 711 q 263 698 320 711 q 159 667 206 685 l 151 591 q 252 619 199 608 q 365 631 306 631 q 542 592 476 631 q 635 488 608 553 q 663 341 663 424 q 630 180 663 240 q 556 90 598 120 "},"f":{"ha":861,"x_min":82,"x_max":821,"o":"m 821 1017 l 804 1105 q 733 1118 769 1113 q 660 1122 696 1122 q 498 1094 567 1122 q 388 994 429 1065 q 346 800 346 922 l 346 0 l 432 0 l 432 854 q 443 952 432 917 q 474 1003 454 986 q 508 1024 486 1015 q 562 1039 530 1033 q 635 1044 594 1044 q 730 1037 683 1044 q 821 1017 776 1030 m 133 69 l 147 0 l 679 0 l 693 69 l 133 69 m 817 692 l 409 692 l 389 699 l 82 665 l 82 623 l 794 623 l 817 692 "},"g":{"ha":861,"x_min":62,"x_max":788,"o":"m 392 244 q 539 275 474 244 q 642 361 604 306 q 679 485 679 416 q 673 536 679 513 q 656 580 667 560 q 629 619 644 601 l 624 640 q 528 694 580 676 q 414 711 477 711 q 253 678 321 711 q 151 590 186 644 q 116 471 116 535 q 152 355 116 407 q 250 273 188 303 q 392 244 313 244 m 592 663 l 580 624 l 788 634 l 769 719 q 674 701 721 717 q 592 663 627 685 m 350 290 l 308 302 l 282 252 q 267 224 281 249 q 231 156 244 185 q 217 107 217 128 q 229 75 217 88 q 266 53 240 62 q 337 37 292 44 l 586 -2 q 676 -34 647 -12 q 706 -94 706 -57 q 662 -173 706 -141 q 546 -219 617 -204 q 392 -233 474 -233 q 256 -220 312 -233 q 173 -180 201 -206 q 144 -117 144 -154 q 160 -63 144 -90 q 202 -14 176 -37 q 263 28 228 10 q 306 49 285 40 l 272 78 l 192 26 q 92 -55 122 -19 q 62 -133 62 -90 q 102 -224 62 -187 q 214 -279 142 -260 q 380 -297 285 -297 q 592 -270 499 -297 q 736 -192 684 -242 q 788 -76 788 -142 q 766 -1 788 -31 q 709 44 744 28 q 631 68 675 60 l 325 122 q 306 129 312 124 q 299 143 299 135 q 303 162 299 151 l 350 290 m 597 455 q 586 385 597 413 q 559 344 576 358 q 509 321 541 330 q 426 312 477 312 q 258 359 314 312 q 202 496 202 406 q 212 565 202 538 q 240 606 222 592 q 290 630 258 621 q 373 639 322 639 q 541 592 485 639 q 597 455 597 545 "},"ğ":{"ha":861,"x_min":62,"x_max":788,"o":"m 392 244 q 539 275 474 244 q 642 361 604 306 q 679 485 679 416 q 673 536 679 513 q 656 580 667 560 q 629 619 644 601 l 624 640 q 528 694 580 676 q 414 711 477 711 q 253 678 321 711 q 151 590 186 644 q 116 471 116 535 q 152 355 116 407 q 250 273 188 303 q 392 244 313 244 m 592 663 l 580 624 l 788 634 l 769 719 q 674 701 721 717 q 592 663 627 685 m 350 290 l 308 302 l 282 252 q 267 224 281 249 q 231 156 244 185 q 217 107 217 128 q 229 75 217 88 q 266 53 240 62 q 337 37 292 44 l 586 -2 q 676 -34 647 -12 q 706 -94 706 -57 q 662 -173 706 -141 q 546 -219 617 -204 q 392 -233 474 -233 q 256 -220 312 -233 q 173 -180 201 -206 q 144 -117 144 -154 q 160 -63 144 -90 q 202 -14 176 -37 q 263 28 228 10 q 306 49 285 40 l 272 78 l 192 26 q 92 -55 122 -19 q 62 -133 62 -90 q 102 -224 62 -187 q 214 -279 142 -260 q 380 -297 285 -297 q 592 -270 499 -297 q 736 -192 684 -242 q 788 -76 788 -142 q 766 -1 788 -31 q 709 44 744 28 q 631 68 675 60 l 325 122 q 306 129 312 124 q 299 143 299 135 q 303 162 299 151 l 350 290 m 597 455 q 586 385 597 413 q 559 344 576 358 q 509 321 541 330 q 426 312 477 312 q 258 359 314 312 q 202 496 202 406 q 212 565 202 538 q 240 606 222 592 q 290 630 258 621 q 373 639 322 639 q 541 592 485 639 q 597 455 597 545 m 308 1109 l 245 1109 q 288 939 240 999 q 431 880 335 880 q 574 939 526 880 q 616 1109 621 999 l 553 1109 q 524 989 553 1031 q 431 948 495 948 q 337 989 366 948 q 308 1109 308 1031 "},"ǧ":{"ha":861,"x_min":62,"x_max":788,"o":"m 392 244 q 539 275 474 244 q 642 361 604 306 q 679 485 679 416 q 673 536 679 513 q 656 580 667 560 q 629 619 644 601 l 624 640 q 528 694 580 676 q 414 711 477 711 q 253 678 321 711 q 151 590 186 644 q 116 471 116 535 q 152 355 116 407 q 250 273 188 303 q 392 244 313 244 m 592 663 l 580 624 l 788 634 l 769 719 q 674 701 721 717 q 592 663 627 685 m 350 290 l 308 302 l 282 252 q 267 224 281 249 q 231 156 244 185 q 217 107 217 128 q 229 75 217 88 q 266 53 240 62 q 337 37 292 44 l 586 -2 q 676 -34 647 -12 q 706 -94 706 -57 q 662 -173 706 -141 q 546 -219 617 -204 q 392 -233 474 -233 q 256 -220 312 -233 q 173 -180 201 -206 q 144 -117 144 -154 q 160 -63 144 -90 q 202 -14 176 -37 q 263 28 228 10 q 306 49 285 40 l 272 78 l 192 26 q 92 -55 122 -19 q 62 -133 62 -90 q 102 -224 62 -187 q 214 -279 142 -260 q 380 -297 285 -297 q 592 -270 499 -297 q 736 -192 684 -242 q 788 -76 788 -142 q 766 -1 788 -31 q 709 44 744 28 q 631 68 675 60 l 325 122 q 306 129 312 124 q 299 143 299 135 q 303 162 299 151 l 350 290 m 597 455 q 586 385 597 413 q 559 344 576 358 q 509 321 541 330 q 426 312 477 312 q 258 359 314 312 q 202 496 202 406 q 212 565 202 538 q 240 606 222 592 q 290 630 258 621 q 373 639 322 639 q 541 592 485 639 q 597 455 597 545 m 397 885 l 207 1109 l 291 1109 l 431 933 l 570 1109 l 654 1109 l 464 885 l 397 885 "},"ĝ":{"ha":861,"x_min":62,"x_max":788,"o":"m 392 244 q 539 275 474 244 q 642 361 604 306 q 679 485 679 416 q 673 536 679 513 q 656 580 667 560 q 629 619 644 601 l 624 640 q 528 694 580 676 q 414 711 477 711 q 253 678 321 711 q 151 590 186 644 q 116 471 116 535 q 152 355 116 407 q 250 273 188 303 q 392 244 313 244 m 592 663 l 580 624 l 788 634 l 769 719 q 674 701 721 717 q 592 663 627 685 m 350 290 l 308 302 l 282 252 q 267 224 281 249 q 231 156 244 185 q 217 107 217 128 q 229 75 217 88 q 266 53 240 62 q 337 37 292 44 l 586 -2 q 676 -34 647 -12 q 706 -94 706 -57 q 662 -173 706 -141 q 546 -219 617 -204 q 392 -233 474 -233 q 256 -220 312 -233 q 173 -180 201 -206 q 144 -117 144 -154 q 160 -63 144 -90 q 202 -14 176 -37 q 263 28 228 10 q 306 49 285 40 l 272 78 l 192 26 q 92 -55 122 -19 q 62 -133 62 -90 q 102 -224 62 -187 q 214 -279 142 -260 q 380 -297 285 -297 q 592 -270 499 -297 q 736 -192 684 -242 q 788 -76 788 -142 q 766 -1 788 -31 q 709 44 744 28 q 631 68 675 60 l 325 122 q 306 129 312 124 q 299 143 299 135 q 303 162 299 151 l 350 290 m 597 455 q 586 385 597 413 q 559 344 576 358 q 509 321 541 330 q 426 312 477 312 q 258 359 314 312 q 202 496 202 406 q 212 565 202 538 q 240 606 222 592 q 290 630 258 621 q 373 639 322 639 q 541 592 485 639 q 597 455 597 545 m 397 1109 l 207 885 l 291 885 l 450 1085 l 411 1085 l 570 885 l 654 885 l 464 1109 l 397 1109 "},"ģ":{"ha":861,"x_min":62,"x_max":788,"o":"m 392 244 q 539 275 474 244 q 642 361 604 306 q 679 485 679 416 q 673 536 679 513 q 656 580 667 560 q 629 619 644 601 l 624 640 q 528 694 580 676 q 414 711 477 711 q 253 678 321 711 q 151 590 186 644 q 116 471 116 535 q 152 355 116 407 q 250 273 188 303 q 392 244 313 244 m 592 663 l 580 624 l 788 634 l 769 719 q 674 701 721 717 q 592 663 627 685 m 350 290 l 308 302 l 282 252 q 267 224 281 249 q 231 156 244 185 q 217 107 217 128 q 229 75 217 88 q 266 53 240 62 q 337 37 292 44 l 586 -2 q 676 -34 647 -12 q 706 -94 706 -57 q 662 -173 706 -141 q 546 -219 617 -204 q 392 -233 474 -233 q 256 -220 312 -233 q 173 -180 201 -206 q 144 -117 144 -154 q 160 -63 144 -90 q 202 -14 176 -37 q 263 28 228 10 q 306 49 285 40 l 272 78 l 192 26 q 92 -55 122 -19 q 62 -133 62 -90 q 102 -224 62 -187 q 214 -279 142 -260 q 380 -297 285 -297 q 592 -270 499 -297 q 736 -192 684 -242 q 788 -76 788 -142 q 766 -1 788 -31 q 709 44 744 28 q 631 68 675 60 l 325 122 q 306 129 312 124 q 299 143 299 135 q 303 162 299 151 l 350 290 m 597 455 q 586 385 597 413 q 559 344 576 358 q 509 321 541 330 q 426 312 477 312 q 258 359 314 312 q 202 496 202 406 q 212 565 202 538 q 240 606 222 592 q 290 630 258 621 q 373 639 322 639 q 541 592 485 639 q 597 455 597 545 m 429 1057 q 391 1049 408 1057 l 409 1038 q 432 1087 417 1065 q 469 1128 448 1109 q 519 1167 490 1147 l 481 1213 q 383 1124 422 1178 q 343 1009 343 1069 q 368 936 343 961 q 432 911 394 911 q 489 931 466 911 q 512 984 512 950 q 502 1023 512 1006 q 473 1048 492 1040 q 429 1057 454 1057 "},"ġ":{"ha":861,"x_min":62,"x_max":788,"o":"m 392 244 q 539 275 474 244 q 642 361 604 306 q 679 485 679 416 q 673 536 679 513 q 656 580 667 560 q 629 619 644 601 l 624 640 q 528 694 580 676 q 414 711 477 711 q 253 678 321 711 q 151 590 186 644 q 116 471 116 535 q 152 355 116 407 q 250 273 188 303 q 392 244 313 244 m 592 663 l 580 624 l 788 634 l 769 719 q 674 701 721 717 q 592 663 627 685 m 350 290 l 308 302 l 282 252 q 267 224 281 249 q 231 156 244 185 q 217 107 217 128 q 229 75 217 88 q 266 53 240 62 q 337 37 292 44 l 586 -2 q 676 -34 647 -12 q 706 -94 706 -57 q 662 -173 706 -141 q 546 -219 617 -204 q 392 -233 474 -233 q 256 -220 312 -233 q 173 -180 201 -206 q 144 -117 144 -154 q 160 -63 144 -90 q 202 -14 176 -37 q 263 28 228 10 q 306 49 285 40 l 272 78 l 192 26 q 92 -55 122 -19 q 62 -133 62 -90 q 102 -224 62 -187 q 214 -279 142 -260 q 380 -297 285 -297 q 592 -270 499 -297 q 736 -192 684 -242 q 788 -76 788 -142 q 766 -1 788 -31 q 709 44 744 28 q 631 68 675 60 l 325 122 q 306 129 312 124 q 299 143 299 135 q 303 162 299 151 l 350 290 m 597 455 q 586 385 597 413 q 559 344 576 358 q 509 321 541 330 q 426 312 477 312 q 258 359 314 312 q 202 496 202 406 q 212 565 202 538 q 240 606 222 592 q 290 630 258 621 q 373 639 322 639 q 541 592 485 639 q 597 455 597 545 m 431 912 q 484 930 463 912 q 504 980 504 948 q 484 1030 504 1012 q 431 1048 463 1048 q 377 1030 398 1048 q 357 980 357 1012 q 366 943 357 959 q 392 920 376 928 q 431 912 409 912 "},"h":{"ha":861,"x_min":153,"x_max":708,"o":"m 239 0 l 239 599 l 239 608 l 239 1063 l 153 1063 l 153 0 l 239 0 m 620 0 l 708 0 l 706 536 q 657 665 705 619 q 517 710 608 710 q 381 685 448 710 q 243 615 314 660 l 210 615 l 210 545 q 357 613 288 589 q 484 637 426 637 q 556 623 526 637 q 603 578 586 609 q 620 495 620 547 l 620 0 "},"ħ":{"ha":861,"x_min":47,"x_max":708,"o":"m 547 944 l 206 944 l 186 944 l 47 944 l 47 876 l 547 876 l 547 944 m 239 0 l 239 599 l 239 608 l 239 1063 l 153 1063 l 153 0 l 239 0 m 620 0 l 708 0 l 706 536 q 657 665 705 619 q 517 710 608 710 q 381 685 448 710 q 243 615 314 660 l 210 615 l 210 545 q 357 613 288 589 q 484 637 426 637 q 556 623 526 637 q 603 578 586 609 q 620 495 620 547 l 620 0 "},"ĥ":{"ha":861,"x_min":-28,"x_max":708,"o":"m 239 0 l 239 599 l 239 608 l 239 1063 l 153 1063 l 153 0 l 239 0 m 620 0 l 708 0 l 706 536 q 657 665 705 619 q 517 710 608 710 q 381 685 448 710 q 243 615 314 660 l 210 615 l 210 545 q 357 613 288 589 q 484 637 426 637 q 556 623 526 637 q 603 578 586 609 q 620 495 620 547 l 620 0 m 156 1356 l -28 1194 l 63 1194 l 215 1336 l 176 1336 l 328 1194 l 419 1194 l 236 1356 l 156 1356 "},"i":{"ha":861,"x_min":112,"x_max":746,"o":"m 380 657 l 380 172 q 396 64 380 105 q 450 4 412 24 q 556 -16 488 -16 q 651 -5 607 -16 q 735 24 695 6 l 746 97 q 668 71 710 82 q 584 60 625 60 q 513 72 538 60 q 476 108 487 84 q 466 170 466 131 l 466 694 l 126 694 l 112 626 l 411 626 l 380 657 m 401 912 q 455 930 434 912 q 475 980 475 948 q 455 1030 475 1012 q 401 1048 434 1048 q 348 1030 369 1048 q 328 980 328 1012 q 337 943 328 959 q 363 920 347 928 q 401 912 380 912 "},"ı":{"ha":861,"x_min":112,"x_max":746,"o":"m 380 657 l 380 172 q 396 64 380 105 q 450 4 412 24 q 556 -16 488 -16 q 651 -5 607 -16 q 735 24 695 6 l 746 97 q 668 71 710 82 q 584 60 625 60 q 513 72 538 60 q 476 108 487 84 q 466 170 466 131 l 466 694 l 126 694 l 112 626 l 411 626 l 380 657 "},"í":{"ha":861,"x_min":112,"x_max":746,"o":"m 380 657 l 380 172 q 396 64 380 105 q 450 4 412 24 q 556 -16 488 -16 q 651 -5 607 -16 q 735 24 695 6 l 746 97 q 668 71 710 82 q 584 60 625 60 q 513 72 538 60 q 476 108 487 84 q 466 170 466 131 l 466 694 l 126 694 l 112 626 l 411 626 l 380 657 m 433 885 l 357 885 l 511 1109 l 608 1109 l 433 885 "},"ĭ":{"ha":861,"x_min":112,"x_max":746,"o":"m 380 657 l 380 172 q 396 64 380 105 q 450 4 412 24 q 556 -16 488 -16 q 651 -5 607 -16 q 735 24 695 6 l 746 97 q 668 71 710 82 q 584 60 625 60 q 513 72 538 60 q 476 108 487 84 q 466 170 466 131 l 466 694 l 126 694 l 112 626 l 411 626 l 380 657 m 278 1109 l 216 1109 q 258 939 211 999 q 401 880 306 880 q 544 939 497 880 q 587 1109 592 999 l 524 1109 q 495 989 524 1031 q 401 948 466 948 q 308 989 337 948 q 278 1109 278 1031 "},"î":{"ha":861,"x_min":112,"x_max":746,"o":"m 380 657 l 380 172 q 396 64 380 105 q 450 4 412 24 q 556 -16 488 -16 q 651 -5 607 -16 q 735 24 695 6 l 746 97 q 668 71 710 82 q 584 60 625 60 q 513 72 538 60 q 476 108 487 84 q 466 170 466 131 l 466 694 l 126 694 l 112 626 l 411 626 l 380 657 m 368 1109 l 178 885 l 262 885 l 421 1085 l 382 1085 l 541 885 l 625 885 l 435 1109 l 368 1109 "},"ï":{"ha":861,"x_min":112,"x_max":746,"o":"m 380 657 l 380 172 q 396 64 380 105 q 450 4 412 24 q 556 -16 488 -16 q 651 -5 607 -16 q 735 24 695 6 l 746 97 q 668 71 710 82 q 584 60 625 60 q 513 72 538 60 q 476 108 487 84 q 466 170 466 131 l 466 694 l 126 694 l 112 626 l 411 626 l 380 657 m 231 912 q 282 930 263 912 q 302 980 302 948 q 282 1030 302 1012 q 231 1048 263 1048 q 178 1030 198 1048 q 158 980 158 1012 q 178 930 158 948 q 231 912 198 912 m 573 912 q 625 930 605 912 q 644 980 644 948 q 625 1030 644 1012 q 573 1048 605 1048 q 520 1030 540 1048 q 501 980 501 1012 q 520 930 501 948 q 573 912 540 912 "},"ị":{"ha":861,"x_min":112,"x_max":746,"o":"m 380 657 l 380 172 q 396 64 380 105 q 450 4 412 24 q 556 -16 488 -16 q 651 -5 607 -16 q 735 24 695 6 l 746 97 q 668 71 710 82 q 584 60 625 60 q 513 72 538 60 q 476 108 487 84 q 466 170 466 131 l 466 694 l 126 694 l 112 626 l 411 626 l 380 657 m 401 912 q 455 930 434 912 q 475 980 475 948 q 455 1030 475 1012 q 401 1048 434 1048 q 348 1030 369 1048 q 328 980 328 1012 q 337 943 328 959 q 363 920 347 928 q 401 912 380 912 m 431 -353 q 484 -335 463 -353 q 504 -285 504 -317 q 484 -235 504 -253 q 431 -217 463 -217 q 377 -235 398 -217 q 357 -285 357 -253 q 366 -322 357 -306 q 392 -345 376 -337 q 431 -353 409 -353 "},"ì":{"ha":861,"x_min":112,"x_max":746,"o":"m 380 657 l 380 172 q 396 64 380 105 q 450 4 412 24 q 556 -16 488 -16 q 651 -5 607 -16 q 735 24 695 6 l 746 97 q 668 71 710 82 q 584 60 625 60 q 513 72 538 60 q 476 108 487 84 q 466 170 466 131 l 466 694 l 126 694 l 112 626 l 411 626 l 380 657 m 370 885 l 446 885 l 292 1109 l 194 1109 l 370 885 "},"ī":{"ha":861,"x_min":112,"x_max":746,"o":"m 380 657 l 380 172 q 396 64 380 105 q 450 4 412 24 q 556 -16 488 -16 q 651 -5 607 -16 q 735 24 695 6 l 746 97 q 668 71 710 82 q 584 60 625 60 q 513 72 538 60 q 476 108 487 84 q 466 170 466 131 l 466 694 l 126 694 l 112 626 l 411 626 l 380 657 m 615 930 l 615 999 l 188 999 l 188 930 l 615 930 "},"į":{"ha":861,"x_min":112,"x_max":746,"o":"m 380 657 l 380 172 q 396 64 380 105 q 450 4 412 24 q 556 -16 488 -16 q 651 -5 607 -16 q 735 24 695 6 l 746 97 q 668 71 710 82 q 584 60 625 60 q 513 72 538 60 q 476 108 487 84 q 466 170 466 131 l 466 694 l 126 694 l 112 626 l 411 626 l 380 657 m 401 912 q 455 930 434 912 q 475 980 475 948 q 455 1030 475 1012 q 401 1048 434 1048 q 348 1030 369 1048 q 328 980 328 1012 q 337 943 328 959 q 363 920 347 928 q 401 912 380 912 m 645 0 l 605 26 q 507 -78 538 -33 q 476 -172 476 -124 q 506 -248 476 -218 q 608 -278 535 -278 l 645 -278 l 645 -203 l 625 -203 q 567 -190 585 -203 q 549 -151 549 -177 q 572 -85 549 -122 q 645 0 594 -47 "},"ĳ":{"ha":861,"x_min":84,"x_max":738,"o":"m 262 912 q 315 930 294 912 q 335 980 335 948 q 315 1030 335 1012 q 262 1048 294 1048 q 209 1030 229 1048 q 188 980 188 1012 q 198 943 188 959 q 224 920 207 928 q 262 912 240 912 m 728 694 l 499 694 l 485 626 l 673 626 l 642 657 l 642 -28 q 629 -125 642 -90 q 595 -179 616 -161 q 533 -211 574 -198 q 433 -225 492 -225 q 332 -218 379 -225 q 239 -197 284 -210 l 256 -278 q 331 -292 292 -287 q 419 -296 370 -296 q 581 -271 514 -296 q 688 -178 648 -246 q 728 13 728 -110 l 728 694 m 664 912 q 717 930 697 912 q 738 980 738 948 q 717 1030 738 1012 q 664 1048 697 1048 q 611 1030 631 1048 q 590 980 590 1012 q 600 943 590 959 q 626 920 609 928 q 664 912 642 912 m 241 657 l 241 141 q 254 51 241 85 q 296 1 267 17 q 376 -16 325 -16 q 432 -8 403 -16 q 488 13 461 0 l 494 85 q 483 81 489 83 q 441 68 463 73 q 397 63 419 63 q 355 70 370 63 q 334 95 340 78 q 327 139 327 111 l 327 694 l 98 694 l 84 626 l 272 626 l 241 657 "},"j":{"ha":861,"x_min":75,"x_max":601,"o":"m 592 694 l 135 694 l 121 626 l 537 626 l 506 657 l 506 -28 q 493 -125 506 -90 q 459 -179 480 -161 q 392 -212 438 -199 q 269 -225 346 -225 q 168 -218 215 -225 q 75 -197 120 -210 l 92 -278 q 167 -292 128 -287 q 256 -296 206 -296 q 437 -271 365 -296 q 551 -178 510 -246 q 592 13 592 -110 l 592 694 m 528 912 q 581 930 560 912 q 601 980 601 948 q 581 1030 601 1012 q 528 1048 560 1048 q 475 1030 495 1048 q 454 980 454 1012 q 464 943 454 959 q 490 920 473 928 q 528 912 506 912 "},"ȷ":{"ha":861,"x_min":75,"x_max":592,"o":"m 592 694 l 135 694 l 121 626 l 537 626 l 506 657 l 506 -28 q 493 -125 506 -90 q 459 -179 480 -161 q 392 -212 438 -199 q 269 -225 346 -225 q 168 -218 215 -225 q 75 -197 120 -210 l 92 -278 q 167 -292 128 -287 q 256 -296 206 -296 q 437 -271 365 -296 q 551 -178 510 -246 q 592 13 592 -110 l 592 694 "},"ĵ":{"ha":861,"x_min":75,"x_max":751,"o":"m 592 694 l 135 694 l 121 626 l 537 626 l 506 657 l 506 -28 q 493 -125 506 -90 q 459 -179 480 -161 q 392 -212 438 -199 q 269 -225 346 -225 q 168 -218 215 -225 q 75 -197 120 -210 l 92 -278 q 167 -292 128 -287 q 256 -296 206 -296 q 437 -271 365 -296 q 551 -178 510 -246 q 592 13 592 -110 l 592 694 m 494 1109 l 304 885 l 388 885 l 547 1085 l 508 1085 l 667 885 l 751 885 l 561 1109 l 494 1109 "},"k":{"ha":861,"x_min":153,"x_max":815,"o":"m 239 1063 l 153 1063 l 153 0 l 239 0 l 239 1063 m 777 694 l 670 694 q 537 546 606 620 q 376 383 467 472 l 440 415 l 208 415 l 208 342 l 435 342 l 385 363 q 552 189 477 274 q 703 0 626 104 l 815 0 q 652 207 737 114 q 480 381 568 301 l 480 390 q 634 539 565 468 q 777 694 703 610 "},"ķ":{"ha":861,"x_min":153,"x_max":815,"o":"m 239 1063 l 153 1063 l 153 0 l 239 0 l 239 1063 m 777 694 l 670 694 q 537 546 606 620 q 376 383 467 472 l 440 415 l 208 415 l 208 342 l 435 342 l 385 363 q 552 189 477 274 q 703 0 626 104 l 815 0 q 652 207 737 114 q 480 381 568 301 l 480 390 q 634 539 565 468 q 777 694 703 610 m 432 -362 q 470 -355 453 -362 l 452 -344 q 429 -392 444 -370 q 392 -434 413 -415 q 342 -473 371 -453 l 381 -519 q 478 -430 439 -484 q 518 -315 518 -375 q 493 -242 518 -267 q 429 -217 467 -217 q 372 -236 395 -217 q 349 -290 349 -256 q 359 -328 349 -312 q 388 -354 369 -345 q 432 -362 407 -362 "},"ĸ":{"ha":861,"x_min":153,"x_max":815,"o":"m 153 0 l 239 0 l 239 694 l 153 694 l 153 0 m 777 694 l 670 694 q 537 546 606 620 q 376 383 467 472 l 440 415 l 208 415 l 208 342 l 435 342 l 385 363 q 552 189 477 274 q 703 0 626 104 l 815 0 q 652 207 737 114 q 480 381 568 301 l 480 390 q 634 539 565 468 q 777 694 703 610 "},"l":{"ha":861,"x_min":112,"x_max":746,"o":"m 380 1025 l 380 172 q 396 64 380 105 q 450 4 412 24 q 556 -16 488 -16 q 651 -5 607 -16 q 735 24 695 6 l 746 97 q 668 71 710 82 q 584 60 625 60 q 513 72 538 60 q 476 108 487 84 q 466 170 466 131 l 466 1063 l 126 1063 l 112 994 l 411 994 l 380 1025 "},"ĺ":{"ha":861,"x_min":112,"x_max":746,"o":"m 380 1025 l 380 172 q 396 64 380 105 q 450 4 412 24 q 556 -16 488 -16 q 651 -5 607 -16 q 735 24 695 6 l 746 97 q 668 71 710 82 q 584 60 625 60 q 513 72 538 60 q 476 108 487 84 q 466 170 466 131 l 466 1063 l 126 1063 l 112 994 l 411 994 l 380 1025 m 462 1194 l 386 1194 l 540 1356 l 638 1356 l 462 1194 "},"ľ":{"ha":861,"x_min":112,"x_max":746,"o":"m 380 1025 l 380 172 q 396 64 380 105 q 450 4 412 24 q 556 -16 488 -16 q 651 -5 607 -16 q 735 24 695 6 l 746 97 q 668 71 710 82 q 584 60 625 60 q 513 72 538 60 q 476 108 487 84 q 466 170 466 131 l 466 1063 l 126 1063 l 112 994 l 411 994 l 380 1025 m 632 1124 l 620 890 l 688 890 l 716 1124 l 632 1124 "},"ļ":{"ha":861,"x_min":112,"x_max":746,"o":"m 380 1025 l 380 172 q 396 64 380 105 q 450 4 412 24 q 556 -16 488 -16 q 651 -5 607 -16 q 735 24 695 6 l 746 97 q 668 71 710 82 q 584 60 625 60 q 513 72 538 60 q 476 108 487 84 q 466 170 466 131 l 466 1063 l 126 1063 l 112 994 l 411 994 l 380 1025 m 551 -378 q 589 -371 572 -378 l 571 -360 q 548 -408 563 -386 q 511 -450 532 -431 q 461 -489 490 -469 l 499 -535 q 597 -445 558 -500 q 637 -331 637 -391 q 611 -258 637 -283 q 548 -233 586 -233 q 491 -252 514 -233 q 468 -306 468 -272 q 478 -344 468 -328 q 507 -370 488 -361 q 551 -378 526 -378 "},"ŀ":{"ha":861,"x_min":112,"x_max":847,"o":"m 774 493 q 827 511 806 493 q 847 561 847 529 q 827 611 847 593 q 774 629 806 629 q 720 611 741 629 q 700 561 700 593 q 720 511 700 529 q 774 493 741 493 m 380 1025 l 380 172 q 396 64 380 105 q 450 4 412 24 q 556 -16 488 -16 q 651 -5 607 -16 q 735 24 695 6 l 746 97 q 668 71 710 82 q 584 60 625 60 q 513 72 538 60 q 476 108 487 84 q 466 170 466 131 l 466 1063 l 126 1063 l 112 994 l 411 994 l 380 1025 "},"ł":{"ha":861,"x_min":112,"x_max":746,"o":"m 680 665 l 680 744 l 181 501 l 181 422 l 680 665 m 380 1025 l 380 172 q 396 64 380 105 q 450 4 412 24 q 556 -16 488 -16 q 651 -5 607 -16 q 735 24 695 6 l 746 97 q 668 71 710 82 q 584 60 625 60 q 513 72 538 60 q 476 108 487 84 q 466 170 466 131 l 466 1063 l 126 1063 l 112 994 l 411 994 l 380 1025 "},"m":{"ha":861,"x_min":124,"x_max":738,"o":"m 210 0 l 210 599 l 205 608 l 205 694 l 124 694 l 124 0 l 210 0 m 386 0 l 474 0 l 472 599 q 459 660 472 635 q 424 698 447 685 q 366 710 400 710 q 279 686 319 710 q 209 615 239 663 l 181 615 l 181 545 q 255 612 219 587 q 327 637 292 637 q 370 620 353 637 q 386 565 386 604 l 386 0 m 649 0 l 738 0 l 735 599 q 723 660 735 635 q 687 698 710 685 q 629 710 663 710 q 542 686 582 710 q 472 615 502 663 l 444 615 l 444 545 q 518 612 482 587 q 590 637 555 637 q 633 620 617 637 q 649 565 649 604 l 649 0 "},"n":{"ha":861,"x_min":153,"x_max":708,"o":"m 239 0 l 239 599 l 234 608 l 234 694 l 153 694 l 153 0 l 239 0 m 620 0 l 708 0 l 706 536 q 657 665 705 619 q 517 710 608 710 q 378 685 448 710 q 238 615 308 660 l 210 615 l 210 545 q 357 613 288 589 q 484 637 426 637 q 556 623 526 637 q 603 578 586 609 q 620 495 620 547 l 620 0 "},"ń":{"ha":861,"x_min":153,"x_max":708,"o":"m 239 0 l 239 599 l 234 608 l 234 694 l 153 694 l 153 0 l 239 0 m 620 0 l 708 0 l 706 536 q 657 665 705 619 q 517 710 608 710 q 378 685 448 710 q 238 615 308 660 l 210 615 l 210 545 q 357 613 288 589 q 484 637 426 637 q 556 623 526 637 q 603 578 586 609 q 620 495 620 547 l 620 0 m 462 885 l 386 885 l 540 1109 l 638 1109 l 462 885 "},"ň":{"ha":861,"x_min":153,"x_max":708,"o":"m 239 0 l 239 599 l 234 608 l 234 694 l 153 694 l 153 0 l 239 0 m 620 0 l 708 0 l 706 536 q 657 665 705 619 q 517 710 608 710 q 378 685 448 710 q 238 615 308 660 l 210 615 l 210 545 q 357 613 288 589 q 484 637 426 637 q 556 623 526 637 q 603 578 586 609 q 620 495 620 547 l 620 0 m 397 885 l 207 1109 l 291 1109 l 431 933 l 570 1109 l 654 1109 l 464 885 l 397 885 "},"ņ":{"ha":861,"x_min":153,"x_max":708,"o":"m 239 0 l 239 599 l 234 608 l 234 694 l 153 694 l 153 0 l 239 0 m 620 0 l 708 0 l 706 536 q 657 665 705 619 q 517 710 608 710 q 378 685 448 710 q 238 615 308 660 l 210 615 l 210 545 q 357 613 288 589 q 484 637 426 637 q 556 623 526 637 q 603 578 586 609 q 620 495 620 547 l 620 0 m 432 -362 q 470 -355 453 -362 l 452 -344 q 429 -392 444 -370 q 392 -434 413 -415 q 342 -473 371 -453 l 381 -519 q 478 -430 439 -484 q 518 -315 518 -375 q 493 -242 518 -267 q 429 -217 467 -217 q 372 -236 395 -217 q 349 -290 349 -256 q 359 -328 349 -312 q 388 -354 369 -345 q 432 -362 407 -362 "},"ɲ":{"ha":861,"x_min":-40,"x_max":708,"o":"m 70 -244 q 150 -224 112 -244 q 213 -156 188 -205 q 239 -25 239 -107 l 239 14 l 153 14 l 153 -11 q 152 -89 153 -65 q 145 -130 151 -112 q 128 -157 140 -147 q 101 -169 117 -166 q 72 -172 86 -172 q 24 -164 49 -172 q -40 -139 -1 -156 l -24 -218 q 70 -244 24 -244 m 239 0 l 239 599 l 234 608 l 234 694 l 153 694 l 153 0 l 239 0 m 620 0 l 708 0 l 706 536 q 657 665 705 619 q 517 710 608 710 q 378 685 448 710 q 238 615 308 660 l 210 615 l 210 545 q 357 613 288 589 q 484 637 426 637 q 556 623 526 637 q 603 578 586 609 q 620 495 620 547 l 620 0 "},"ñ":{"ha":861,"x_min":153,"x_max":708,"o":"m 239 0 l 239 599 l 234 608 l 234 694 l 153 694 l 153 0 l 239 0 m 620 0 l 708 0 l 706 536 q 657 665 705 619 q 517 710 608 710 q 378 685 448 710 q 238 615 308 660 l 210 615 l 210 545 q 357 613 288 589 q 484 637 426 637 q 556 623 526 637 q 603 578 586 609 q 620 495 620 547 l 620 0 m 322 1088 q 258 1067 286 1088 q 211 1007 229 1047 q 186 910 193 967 l 249 888 q 278 983 259 948 q 327 1017 297 1017 q 364 1003 347 1017 q 406 958 381 989 q 446 913 429 930 q 486 884 463 897 q 538 872 510 872 q 603 893 574 872 q 650 953 631 913 q 675 1049 668 992 l 613 1072 q 583 977 602 1012 q 535 942 565 942 q 498 957 515 942 q 455 1002 481 971 q 415 1046 432 1029 q 374 1075 398 1063 q 322 1088 351 1088 "},"ŋ":{"ha":861,"x_min":153,"x_max":708,"o":"m 538 -244 q 618 -224 580 -244 q 683 -156 657 -205 q 708 -25 708 -107 l 708 14 l 620 14 l 620 -11 q 619 -89 620 -65 q 613 -130 618 -112 q 595 -157 608 -147 q 569 -169 584 -166 q 540 -172 553 -172 q 491 -164 516 -172 q 428 -139 466 -156 l 443 -218 q 538 -244 492 -244 m 239 0 l 239 599 l 234 608 l 234 694 l 153 694 l 153 0 l 239 0 m 620 0 l 708 0 l 706 536 q 657 665 705 619 q 517 710 608 710 q 378 685 448 710 q 238 615 308 660 l 210 615 l 210 545 q 357 613 288 589 q 484 637 426 637 q 556 623 526 637 q 603 578 586 609 q 620 495 620 547 l 620 0 "},"o":{"ha":861,"x_min":97,"x_max":764,"o":"m 425 -17 q 595 23 518 -17 q 718 144 672 63 q 764 346 764 226 q 723 541 764 458 q 609 667 683 623 q 438 711 535 711 q 269 672 347 711 q 144 550 192 632 q 97 347 97 468 q 138 153 97 235 q 252 27 178 72 q 425 -17 326 -17 m 443 61 q 283 105 338 61 q 209 214 227 149 q 192 358 192 278 q 204 487 192 438 q 234 560 217 536 q 275 601 252 585 q 335 627 301 619 q 417 635 370 635 q 577 591 522 635 q 651 483 633 547 q 669 340 669 419 q 644 173 669 226 q 585 96 620 120 q 524 70 560 78 q 443 61 489 61 "},"ó":{"ha":861,"x_min":97,"x_max":764,"o":"m 425 -17 q 595 23 518 -17 q 718 144 672 63 q 764 346 764 226 q 723 541 764 458 q 609 667 683 623 q 438 711 535 711 q 269 672 347 711 q 144 550 192 632 q 97 347 97 468 q 138 153 97 235 q 252 27 178 72 q 425 -17 326 -17 m 443 61 q 283 105 338 61 q 209 214 227 149 q 192 358 192 278 q 204 487 192 438 q 234 560 217 536 q 275 601 252 585 q 335 627 301 619 q 417 635 370 635 q 577 591 522 635 q 651 483 633 547 q 669 340 669 419 q 644 173 669 226 q 585 96 620 120 q 524 70 560 78 q 443 61 489 61 m 462 885 l 386 885 l 540 1109 l 638 1109 l 462 885 "},"ŏ":{"ha":861,"x_min":97,"x_max":764,"o":"m 425 -17 q 595 23 518 -17 q 718 144 672 63 q 764 346 764 226 q 723 541 764 458 q 609 667 683 623 q 438 711 535 711 q 269 672 347 711 q 144 550 192 632 q 97 347 97 468 q 138 153 97 235 q 252 27 178 72 q 425 -17 326 -17 m 443 61 q 283 105 338 61 q 209 214 227 149 q 192 358 192 278 q 204 487 192 438 q 234 560 217 536 q 275 601 252 585 q 335 627 301 619 q 417 635 370 635 q 577 591 522 635 q 651 483 633 547 q 669 340 669 419 q 644 173 669 226 q 585 96 620 120 q 524 70 560 78 q 443 61 489 61 m 308 1109 l 245 1109 q 288 939 240 999 q 431 880 335 880 q 574 939 526 880 q 616 1109 621 999 l 553 1109 q 524 989 553 1031 q 431 948 495 948 q 337 989 366 948 q 308 1109 308 1031 "},"ô":{"ha":861,"x_min":97,"x_max":764,"o":"m 425 -17 q 595 23 518 -17 q 718 144 672 63 q 764 346 764 226 q 723 541 764 458 q 609 667 683 623 q 438 711 535 711 q 269 672 347 711 q 144 550 192 632 q 97 347 97 468 q 138 153 97 235 q 252 27 178 72 q 425 -17 326 -17 m 443 61 q 283 105 338 61 q 209 214 227 149 q 192 358 192 278 q 204 487 192 438 q 234 560 217 536 q 275 601 252 585 q 335 627 301 619 q 417 635 370 635 q 577 591 522 635 q 651 483 633 547 q 669 340 669 419 q 644 173 669 226 q 585 96 620 120 q 524 70 560 78 q 443 61 489 61 m 397 1109 l 207 885 l 291 885 l 450 1085 l 411 1085 l 570 885 l 654 885 l 464 1109 l 397 1109 "},"ö":{"ha":861,"x_min":97,"x_max":764,"o":"m 425 -17 q 595 23 518 -17 q 718 144 672 63 q 764 346 764 226 q 723 541 764 458 q 609 667 683 623 q 438 711 535 711 q 269 672 347 711 q 144 550 192 632 q 97 347 97 468 q 138 153 97 235 q 252 27 178 72 q 425 -17 326 -17 m 443 61 q 283 105 338 61 q 209 214 227 149 q 192 358 192 278 q 204 487 192 438 q 234 560 217 536 q 275 601 252 585 q 335 627 301 619 q 417 635 370 635 q 577 591 522 635 q 651 483 633 547 q 669 340 669 419 q 644 173 669 226 q 585 96 620 120 q 524 70 560 78 q 443 61 489 61 m 260 912 q 311 930 292 912 q 331 980 331 948 q 311 1030 331 1012 q 260 1048 292 1048 q 207 1030 227 1048 q 188 980 188 1012 q 207 930 188 948 q 260 912 227 912 m 602 912 q 654 930 634 912 q 674 980 674 948 q 654 1030 674 1012 q 602 1048 634 1048 q 550 1030 569 1048 q 530 980 530 1012 q 550 930 530 948 q 602 912 569 912 "},"ọ":{"ha":861,"x_min":97,"x_max":764,"o":"m 425 -17 q 595 23 518 -17 q 718 144 672 63 q 764 346 764 226 q 723 541 764 458 q 609 667 683 623 q 438 711 535 711 q 269 672 347 711 q 144 550 192 632 q 97 347 97 468 q 138 153 97 235 q 252 27 178 72 q 425 -17 326 -17 m 443 61 q 283 105 338 61 q 209 214 227 149 q 192 358 192 278 q 204 487 192 438 q 234 560 217 536 q 275 601 252 585 q 335 627 301 619 q 417 635 370 635 q 577 591 522 635 q 651 483 633 547 q 669 340 669 419 q 644 173 669 226 q 585 96 620 120 q 524 70 560 78 q 443 61 489 61 m 431 -353 q 484 -335 463 -353 q 504 -285 504 -317 q 484 -235 504 -253 q 431 -217 463 -217 q 377 -235 398 -217 q 357 -285 357 -253 q 366 -322 357 -306 q 392 -345 376 -337 q 431 -353 409 -353 "},"ò":{"ha":861,"x_min":97,"x_max":764,"o":"m 425 -17 q 595 23 518 -17 q 718 144 672 63 q 764 346 764 226 q 723 541 764 458 q 609 667 683 623 q 438 711 535 711 q 269 672 347 711 q 144 550 192 632 q 97 347 97 468 q 138 153 97 235 q 252 27 178 72 q 425 -17 326 -17 m 443 61 q 283 105 338 61 q 209 214 227 149 q 192 358 192 278 q 204 487 192 438 q 234 560 217 536 q 275 601 252 585 q 335 627 301 619 q 417 635 370 635 q 577 591 522 635 q 651 483 633 547 q 669 340 669 419 q 644 173 669 226 q 585 96 620 120 q 524 70 560 78 q 443 61 489 61 m 399 885 l 475 885 l 321 1109 l 224 1109 l 399 885 "},"ő":{"ha":861,"x_min":97,"x_max":764,"o":"m 425 -17 q 595 23 518 -17 q 718 144 672 63 q 764 346 764 226 q 723 541 764 458 q 609 667 683 623 q 438 711 535 711 q 269 672 347 711 q 144 550 192 632 q 97 347 97 468 q 138 153 97 235 q 252 27 178 72 q 425 -17 326 -17 m 443 61 q 283 105 338 61 q 209 214 227 149 q 192 358 192 278 q 204 487 192 438 q 234 560 217 536 q 275 601 252 585 q 335 627 301 619 q 417 635 370 635 q 577 591 522 635 q 651 483 633 547 q 669 340 669 419 q 644 173 669 226 q 585 96 620 120 q 524 70 560 78 q 443 61 489 61 m 367 1109 l 265 885 l 335 885 l 456 1109 l 367 1109 m 617 1109 l 516 885 l 585 885 l 708 1109 l 617 1109 "},"ō":{"ha":861,"x_min":97,"x_max":764,"o":"m 425 -17 q 595 23 518 -17 q 718 144 672 63 q 764 346 764 226 q 723 541 764 458 q 609 667 683 623 q 438 711 535 711 q 269 672 347 711 q 144 550 192 632 q 97 347 97 468 q 138 153 97 235 q 252 27 178 72 q 425 -17 326 -17 m 443 61 q 283 105 338 61 q 209 214 227 149 q 192 358 192 278 q 204 487 192 438 q 234 560 217 536 q 275 601 252 585 q 335 627 301 619 q 417 635 370 635 q 577 591 522 635 q 651 483 633 547 q 669 340 669 419 q 644 173 669 226 q 585 96 620 120 q 524 70 560 78 q 443 61 489 61 m 644 930 l 644 999 l 217 999 l 217 930 l 644 930 "},"ǫ":{"ha":861,"x_min":97,"x_max":764,"o":"m 425 -17 q 595 23 518 -17 q 718 144 672 63 q 764 346 764 226 q 723 541 764 458 q 609 667 683 623 q 438 711 535 711 q 269 672 347 711 q 144 550 192 632 q 97 347 97 468 q 138 153 97 235 q 252 27 178 72 q 425 -17 326 -17 m 443 61 q 283 105 338 61 q 209 214 227 149 q 192 358 192 278 q 204 487 192 438 q 234 560 217 536 q 275 601 252 585 q 335 627 301 619 q 417 635 370 635 q 577 591 522 635 q 651 483 633 547 q 669 340 669 419 q 644 173 669 226 q 585 96 620 120 q 524 70 560 78 q 443 61 489 61 m 540 0 l 500 26 q 402 -78 433 -33 q 371 -172 371 -124 q 401 -248 371 -218 q 503 -278 431 -278 l 540 -278 l 540 -203 l 520 -203 q 462 -190 480 -203 q 444 -151 444 -177 q 467 -85 444 -122 q 540 0 490 -47 "},"ø":{"ha":861,"x_min":97,"x_max":764,"o":"m 689 842 l 567 647 l 633 590 l 762 797 l 689 842 m 575 654 l 219 82 l 291 47 l 641 611 l 575 654 m 172 -148 l 298 53 l 227 103 l 99 -102 l 172 -148 m 425 -17 q 595 23 518 -17 q 718 144 672 63 q 764 346 764 226 q 723 541 764 458 q 609 667 683 623 q 438 711 535 711 q 269 672 347 711 q 144 550 192 632 q 97 347 97 468 q 138 153 97 235 q 252 27 178 72 q 425 -17 326 -17 m 443 61 q 283 105 338 61 q 209 214 227 149 q 192 358 192 278 q 204 487 192 438 q 234 560 217 536 q 275 601 252 585 q 335 627 301 619 q 417 635 370 635 q 577 591 522 635 q 651 483 633 547 q 669 340 669 419 q 644 173 669 226 q 585 96 620 120 q 524 70 560 78 q 443 61 489 61 "},"ǿ":{"ha":861,"x_min":97,"x_max":764,"o":"m 689 842 l 567 647 l 633 590 l 762 797 l 689 842 m 575 654 l 219 82 l 291 47 l 641 611 l 575 654 m 172 -148 l 298 53 l 227 103 l 99 -102 l 172 -148 m 425 -17 q 595 23 518 -17 q 718 144 672 63 q 764 346 764 226 q 723 541 764 458 q 609 667 683 623 q 438 711 535 711 q 269 672 347 711 q 144 550 192 632 q 97 347 97 468 q 138 153 97 235 q 252 27 178 72 q 425 -17 326 -17 m 443 61 q 283 105 338 61 q 209 214 227 149 q 192 358 192 278 q 204 487 192 438 q 234 560 217 536 q 275 601 252 585 q 335 627 301 619 q 417 635 370 635 q 577 591 522 635 q 651 483 633 547 q 669 340 669 419 q 644 173 669 226 q 585 96 620 120 q 524 70 560 78 q 443 61 489 61 m 462 885 l 386 885 l 540 1109 l 638 1109 l 462 885 "},"õ":{"ha":861,"x_min":97,"x_max":764,"o":"m 425 -17 q 595 23 518 -17 q 718 144 672 63 q 764 346 764 226 q 723 541 764 458 q 609 667 683 623 q 438 711 535 711 q 269 672 347 711 q 144 550 192 632 q 97 347 97 468 q 138 153 97 235 q 252 27 178 72 q 425 -17 326 -17 m 443 61 q 283 105 338 61 q 209 214 227 149 q 192 358 192 278 q 204 487 192 438 q 234 560 217 536 q 275 601 252 585 q 335 627 301 619 q 417 635 370 635 q 577 591 522 635 q 651 483 633 547 q 669 340 669 419 q 644 173 669 226 q 585 96 620 120 q 524 70 560 78 q 443 61 489 61 m 322 1088 q 258 1067 286 1088 q 211 1007 229 1047 q 186 910 193 967 l 249 888 q 278 983 259 948 q 327 1017 297 1017 q 364 1003 347 1017 q 406 958 381 989 q 446 913 429 930 q 486 884 463 897 q 538 872 510 872 q 603 893 574 872 q 650 953 631 913 q 675 1049 668 992 l 613 1072 q 583 977 602 1012 q 535 942 565 942 q 498 957 515 942 q 455 1002 481 971 q 415 1046 432 1029 q 374 1075 398 1063 q 322 1088 351 1088 "},"œ":{"ha":861,"x_min":49,"x_max":811,"o":"m 624 -17 q 703 -4 663 -17 q 776 27 743 9 l 784 103 q 711 74 747 85 q 643 64 675 64 q 555 103 591 64 q 502 207 519 142 q 484 353 484 273 q 500 520 484 458 q 539 610 515 583 q 574 635 553 627 q 616 643 594 643 q 700 595 669 643 q 731 461 731 548 q 726 392 731 425 l 749 433 l 433 433 l 433 372 l 811 372 l 811 447 q 792 586 811 527 q 733 678 774 645 q 630 711 693 711 q 529 682 577 711 q 450 592 481 653 q 419 440 419 531 l 419 374 l 404 352 q 430 154 404 237 q 505 27 456 71 q 624 -17 554 -17 m 249 -17 q 356 23 309 -17 q 430 143 403 62 q 457 346 457 225 q 433 547 457 465 q 365 670 410 628 q 258 711 321 711 q 151 672 199 711 q 76 551 104 633 q 49 347 49 469 q 72 147 49 228 q 140 25 95 66 q 249 -17 185 -17 m 263 61 q 164 145 189 61 q 139 358 139 230 q 150 524 139 472 q 180 601 162 576 q 210 627 193 619 q 249 635 226 635 q 349 551 324 635 q 374 340 374 467 q 362 172 374 225 q 333 96 350 119 q 263 61 308 61 "},"p":{"ha":861,"x_min":134,"x_max":778,"o":"m 220 -278 l 220 605 l 210 615 l 210 695 l 134 695 l 134 -278 l 220 -278 m 778 375 q 746 548 778 472 q 647 667 714 623 q 481 710 581 710 q 342 685 405 710 q 223 619 279 660 l 203 619 l 199 552 q 327 615 263 592 q 456 639 392 639 q 631 559 580 639 q 683 349 683 478 q 655 186 683 242 q 584 97 628 129 q 515 61 549 72 q 437 51 481 51 q 308 70 372 51 q 184 126 243 89 l 167 65 q 286 5 221 26 q 422 -16 351 -16 q 606 31 526 -16 q 732 167 687 78 q 778 375 778 255 "},"þ":{"ha":861,"x_min":153,"x_max":772,"o":"m 239 -278 l 239 1063 l 153 1063 l 153 -278 l 239 -278 m 772 375 q 740 548 772 472 q 642 667 708 623 q 475 710 575 710 q 336 685 399 710 q 217 619 274 660 l 197 619 l 193 552 q 322 615 257 592 q 451 639 387 639 q 626 559 574 639 q 677 349 677 478 q 650 186 677 242 q 578 97 622 129 q 510 61 544 72 q 431 51 476 51 q 302 70 367 51 q 178 126 238 89 l 162 65 q 280 5 215 26 q 416 -16 345 -16 q 601 31 520 -16 q 727 167 681 78 q 772 375 772 255 "},"q":{"ha":861,"x_min":83,"x_max":728,"o":"m 651 607 l 642 597 l 642 -278 l 728 -278 l 728 694 l 679 694 l 651 607 m 83 320 q 115 148 83 223 q 214 28 147 72 q 381 -15 281 -15 q 519 10 456 -15 q 638 76 582 35 l 658 76 l 663 143 q 534 80 599 103 q 405 56 469 56 q 230 136 281 56 q 178 346 178 217 q 206 509 178 453 q 277 598 233 566 q 346 634 312 623 q 424 644 380 644 q 553 625 489 644 q 677 569 618 606 l 694 630 q 575 690 640 669 q 440 711 510 711 q 255 664 335 711 q 129 528 174 617 q 83 320 83 440 "},"r":{"ha":861,"x_min":98,"x_max":788,"o":"m 393 549 l 393 694 l 317 694 l 317 0 l 403 0 l 403 540 l 393 549 m 98 69 l 112 0 l 678 0 l 692 69 l 98 69 m 112 694 l 98 626 l 363 626 l 363 694 l 112 694 m 788 619 l 778 705 q 720 710 753 710 q 598 693 656 710 q 493 644 541 676 q 405 567 444 612 l 367 567 l 383 510 q 510 575 451 551 q 636 610 569 599 q 788 619 703 622 "},"ŕ":{"ha":861,"x_min":98,"x_max":788,"o":"m 393 549 l 393 694 l 317 694 l 317 0 l 403 0 l 403 540 l 393 549 m 98 69 l 112 0 l 678 0 l 692 69 l 98 69 m 112 694 l 98 626 l 363 626 l 363 694 l 112 694 m 788 619 l 778 705 q 720 710 753 710 q 598 693 656 710 q 493 644 541 676 q 405 567 444 612 l 367 567 l 383 510 q 510 575 451 551 q 636 610 569 599 q 788 619 703 622 m 462 885 l 386 885 l 540 1109 l 638 1109 l 462 885 "},"ř":{"ha":861,"x_min":98,"x_max":788,"o":"m 393 549 l 393 694 l 317 694 l 317 0 l 403 0 l 403 540 l 393 549 m 98 69 l 112 0 l 678 0 l 692 69 l 98 69 m 112 694 l 98 626 l 363 626 l 363 694 l 112 694 m 788 619 l 778 705 q 720 710 753 710 q 598 693 656 710 q 493 644 541 676 q 405 567 444 612 l 367 567 l 383 510 q 510 575 451 551 q 636 610 569 599 q 788 619 703 622 m 397 885 l 207 1109 l 291 1109 l 431 933 l 570 1109 l 654 1109 l 464 885 l 397 885 "},"ŗ":{"ha":861,"x_min":98,"x_max":788,"o":"m 393 549 l 393 694 l 317 694 l 317 0 l 403 0 l 403 540 l 393 549 m 98 69 l 112 0 l 678 0 l 692 69 l 98 69 m 112 694 l 98 626 l 363 626 l 363 694 l 112 694 m 788 619 l 778 705 q 720 710 753 710 q 598 693 656 710 q 493 644 541 676 q 405 567 444 612 l 367 567 l 383 510 q 510 575 451 551 q 636 610 569 599 q 788 619 703 622 m 392 -362 q 430 -355 413 -362 l 412 -344 q 389 -392 404 -370 q 352 -434 373 -415 q 302 -473 331 -453 l 340 -519 q 438 -430 399 -484 q 478 -315 478 -375 q 452 -242 478 -267 q 389 -217 427 -217 q 332 -236 355 -217 q 309 -290 309 -256 q 319 -328 309 -312 q 348 -354 329 -345 q 392 -362 367 -362 "},"s":{"ha":861,"x_min":118,"x_max":742,"o":"m 505 710 q 329 690 411 710 q 194 626 247 670 q 142 512 142 581 q 170 430 142 464 q 251 370 197 395 q 390 325 305 346 q 482 302 436 314 q 584 269 547 285 q 641 231 622 253 q 660 174 660 208 q 650 130 660 149 q 620 98 640 110 q 547 73 590 79 q 449 66 503 66 q 269 80 351 66 q 118 116 188 94 l 124 29 q 248 -2 181 10 q 390 -13 314 -13 q 576 10 497 -13 q 698 81 655 34 q 742 193 742 127 q 708 287 742 251 q 621 343 675 323 q 476 384 567 363 q 418 399 447 392 q 303 436 348 417 q 236 478 258 456 q 214 527 214 501 q 224 562 214 545 q 254 592 235 579 q 336 624 286 615 q 452 633 387 633 q 591 623 526 633 q 713 599 657 614 l 710 683 q 611 703 662 696 q 505 710 560 710 "},"ś":{"ha":861,"x_min":118,"x_max":742,"o":"m 505 710 q 329 690 411 710 q 194 626 247 670 q 142 512 142 581 q 170 430 142 464 q 251 370 197 395 q 390 325 305 346 q 482 302 436 314 q 584 269 547 285 q 641 231 622 253 q 660 174 660 208 q 650 130 660 149 q 620 98 640 110 q 547 73 590 79 q 449 66 503 66 q 269 80 351 66 q 118 116 188 94 l 124 29 q 248 -2 181 10 q 390 -13 314 -13 q 576 10 497 -13 q 698 81 655 34 q 742 193 742 127 q 708 287 742 251 q 621 343 675 323 q 476 384 567 363 q 418 399 447 392 q 303 436 348 417 q 236 478 258 456 q 214 527 214 501 q 224 562 214 545 q 254 592 235 579 q 336 624 286 615 q 452 633 387 633 q 591 623 526 633 q 713 599 657 614 l 710 683 q 611 703 662 696 q 505 710 560 710 m 462 885 l 386 885 l 540 1109 l 638 1109 l 462 885 "},"š":{"ha":861,"x_min":118,"x_max":742,"o":"m 505 710 q 329 690 411 710 q 194 626 247 670 q 142 512 142 581 q 170 430 142 464 q 251 370 197 395 q 390 325 305 346 q 482 302 436 314 q 584 269 547 285 q 641 231 622 253 q 660 174 660 208 q 650 130 660 149 q 620 98 640 110 q 547 73 590 79 q 449 66 503 66 q 269 80 351 66 q 118 116 188 94 l 124 29 q 248 -2 181 10 q 390 -13 314 -13 q 576 10 497 -13 q 698 81 655 34 q 742 193 742 127 q 708 287 742 251 q 621 343 675 323 q 476 384 567 363 q 418 399 447 392 q 303 436 348 417 q 236 478 258 456 q 214 527 214 501 q 224 562 214 545 q 254 592 235 579 q 336 624 286 615 q 452 633 387 633 q 591 623 526 633 q 713 599 657 614 l 710 683 q 611 703 662 696 q 505 710 560 710 m 397 885 l 207 1109 l 291 1109 l 431 933 l 570 1109 l 654 1109 l 464 885 l 397 885 "},"ş":{"ha":861,"x_min":118,"x_max":742,"o":"m 505 710 q 329 690 411 710 q 194 626 247 670 q 142 512 142 581 q 170 430 142 464 q 251 370 197 395 q 390 325 305 346 q 482 302 436 314 q 584 269 547 285 q 641 231 622 253 q 660 174 660 208 q 650 130 660 149 q 620 98 640 110 q 547 73 590 79 q 449 66 503 66 q 269 80 351 66 q 118 116 188 94 l 124 29 q 248 -2 181 10 q 390 -13 314 -13 q 576 10 497 -13 q 698 81 655 34 q 742 193 742 127 q 708 287 742 251 q 621 343 675 323 q 476 384 567 363 q 418 399 447 392 q 303 436 348 417 q 236 478 258 456 q 214 527 214 501 q 224 562 214 545 q 254 592 235 579 q 336 624 286 615 q 452 633 387 633 q 591 623 526 633 q 713 599 657 614 l 710 683 q 611 703 662 696 q 505 710 560 710 m 442 -124 l 464 -158 l 461 33 l 399 33 l 399 -177 q 481 -201 453 -183 q 508 -258 508 -220 q 481 -310 508 -292 q 384 -327 453 -327 l 357 -327 l 357 -392 l 401 -392 q 509 -378 469 -392 q 566 -335 549 -363 q 583 -264 583 -308 q 567 -191 583 -219 q 520 -147 551 -162 q 442 -124 489 -131 "},"ŝ":{"ha":861,"x_min":118,"x_max":742,"o":"m 505 710 q 329 690 411 710 q 194 626 247 670 q 142 512 142 581 q 170 430 142 464 q 251 370 197 395 q 390 325 305 346 q 482 302 436 314 q 584 269 547 285 q 641 231 622 253 q 660 174 660 208 q 650 130 660 149 q 620 98 640 110 q 547 73 590 79 q 449 66 503 66 q 269 80 351 66 q 118 116 188 94 l 124 29 q 248 -2 181 10 q 390 -13 314 -13 q 576 10 497 -13 q 698 81 655 34 q 742 193 742 127 q 708 287 742 251 q 621 343 675 323 q 476 384 567 363 q 418 399 447 392 q 303 436 348 417 q 236 478 258 456 q 214 527 214 501 q 224 562 214 545 q 254 592 235 579 q 336 624 286 615 q 452 633 387 633 q 591 623 526 633 q 713 599 657 614 l 710 683 q 611 703 662 696 q 505 710 560 710 m 397 1109 l 207 885 l 291 885 l 450 1085 l 411 1085 l 570 885 l 654 885 l 464 1109 l 397 1109 "},"ș":{"ha":861,"x_min":118,"x_max":742,"o":"m 505 710 q 329 690 411 710 q 194 626 247 670 q 142 512 142 581 q 170 430 142 464 q 251 370 197 395 q 390 325 305 346 q 482 302 436 314 q 584 269 547 285 q 641 231 622 253 q 660 174 660 208 q 650 130 660 149 q 620 98 640 110 q 547 73 590 79 q 449 66 503 66 q 269 80 351 66 q 118 116 188 94 l 124 29 q 248 -2 181 10 q 390 -13 314 -13 q 576 10 497 -13 q 698 81 655 34 q 742 193 742 127 q 708 287 742 251 q 621 343 675 323 q 476 384 567 363 q 418 399 447 392 q 303 436 348 417 q 236 478 258 456 q 214 527 214 501 q 224 562 214 545 q 254 592 235 579 q 336 624 286 615 q 452 633 387 633 q 591 623 526 633 q 713 599 657 614 l 710 683 q 611 703 662 696 q 505 710 560 710 m 432 -362 q 470 -355 453 -362 l 452 -344 q 429 -392 444 -370 q 392 -434 413 -415 q 342 -473 371 -453 l 381 -519 q 478 -430 439 -484 q 518 -315 518 -375 q 493 -242 518 -267 q 429 -217 467 -217 q 372 -236 395 -217 q 349 -290 349 -256 q 359 -328 349 -312 q 388 -354 369 -345 q 432 -362 407 -362 "},"ß":{"ha":861,"x_min":144,"x_max":776,"o":"m 461 1006 q 550 989 515 1006 q 603 937 585 972 q 621 851 621 903 q 590 737 621 787 q 503 651 559 687 q 370 592 447 616 l 370 538 q 524 499 462 520 q 636 425 587 477 q 685 284 685 374 q 658 170 685 217 q 582 100 631 124 q 470 76 533 76 l 370 76 l 370 0 l 438 0 q 622 34 547 0 q 737 133 698 68 q 776 288 776 197 q 731 447 776 387 q 615 535 685 508 q 457 572 544 563 l 457 575 q 576 622 517 585 q 674 717 635 658 q 713 853 713 776 q 682 973 713 922 q 595 1052 650 1024 q 472 1079 540 1079 q 281 1022 353 1079 q 176 850 208 964 q 144 558 144 735 l 144 0 l 231 0 l 231 606 q 242 782 231 710 q 269 893 253 853 q 302 952 285 933 q 366 992 325 978 q 461 1006 408 1006 "},"t":{"ha":861,"x_min":92,"x_max":746,"o":"m 381 653 l 294 653 l 294 172 q 313 64 294 105 q 376 4 331 24 q 499 -16 421 -16 q 623 -5 565 -16 q 733 24 680 6 l 746 97 q 644 71 700 82 q 535 60 588 60 q 443 72 476 60 q 395 108 409 84 q 381 170 381 131 l 381 653 m 744 694 l 317 694 l 385 673 l 385 866 l 356 866 l 92 657 l 92 625 l 724 625 l 744 694 "},"ŧ":{"ha":861,"x_min":92,"x_max":746,"o":"m 744 513 l 338 513 l 318 513 l 92 513 l 92 444 l 724 444 l 744 513 m 381 719 l 294 719 l 294 172 q 313 64 294 105 q 376 4 331 24 q 499 -16 421 -16 q 623 -5 565 -16 q 733 24 680 6 l 746 97 q 644 71 700 82 q 535 60 588 60 q 443 72 476 60 q 395 108 409 84 q 381 170 381 131 l 381 719 m 744 760 l 317 760 l 385 738 l 385 931 l 356 931 l 92 722 l 92 690 l 724 690 l 744 760 "},"ť":{"ha":861,"x_min":92,"x_max":746,"o":"m 381 653 l 294 653 l 294 172 q 313 64 294 105 q 376 4 331 24 q 499 -16 421 -16 q 623 -5 565 -16 q 733 24 680 6 l 746 97 q 644 71 700 82 q 535 60 588 60 q 443 72 476 60 q 395 108 409 84 q 381 170 381 131 l 381 653 m 744 694 l 317 694 l 385 673 l 385 866 l 356 866 l 92 657 l 92 625 l 724 625 l 744 694 m 632 1075 l 620 842 l 688 842 l 716 1075 l 632 1075 "},"ţ":{"ha":861,"x_min":92,"x_max":746,"o":"m 381 653 l 294 653 l 294 172 q 313 64 294 105 q 376 4 331 24 q 499 -16 421 -16 q 623 -5 565 -16 q 733 24 680 6 l 746 97 q 644 71 700 82 q 535 60 588 60 q 443 72 476 60 q 395 108 409 84 q 381 170 381 131 l 381 653 m 744 694 l 317 694 l 385 673 l 385 866 l 356 866 l 92 657 l 92 625 l 724 625 l 744 694 m 521 -124 l 542 -158 l 540 33 l 477 33 l 477 -177 q 559 -201 532 -183 q 586 -258 586 -220 q 559 -310 586 -292 q 463 -327 532 -327 l 435 -327 l 435 -392 l 480 -392 q 588 -378 548 -392 q 645 -335 628 -363 q 662 -264 662 -308 q 645 -191 662 -219 q 598 -147 629 -162 q 521 -124 567 -131 "},"ț":{"ha":861,"x_min":92,"x_max":746,"o":"m 381 653 l 294 653 l 294 172 q 313 64 294 105 q 376 4 331 24 q 499 -16 421 -16 q 623 -5 565 -16 q 733 24 680 6 l 746 97 q 644 71 700 82 q 535 60 588 60 q 443 72 476 60 q 395 108 409 84 q 381 170 381 131 l 381 653 m 744 694 l 317 694 l 385 673 l 385 866 l 356 866 l 92 657 l 92 625 l 724 625 l 744 694 m 510 -362 q 549 -355 532 -362 l 531 -344 q 507 -392 523 -370 q 470 -434 492 -415 q 421 -473 449 -453 l 459 -519 q 557 -430 517 -484 q 597 -315 597 -375 q 571 -242 597 -267 q 508 -217 546 -217 q 451 -236 474 -217 q 428 -290 428 -256 q 438 -328 428 -312 q 467 -354 448 -345 q 510 -362 485 -362 "},"u":{"ha":861,"x_min":153,"x_max":708,"o":"m 622 694 l 622 96 l 627 86 l 627 0 l 708 0 l 708 694 l 622 694 m 241 694 l 153 694 l 156 158 q 205 30 156 76 q 344 -16 253 -16 q 483 9 413 -16 q 623 80 553 35 l 651 80 l 651 149 q 504 82 574 106 q 377 58 435 58 q 305 72 335 58 q 258 117 275 85 q 241 199 241 148 l 241 694 "},"ú":{"ha":861,"x_min":153,"x_max":708,"o":"m 622 694 l 622 96 l 627 86 l 627 0 l 708 0 l 708 694 l 622 694 m 241 694 l 153 694 l 156 158 q 205 30 156 76 q 344 -16 253 -16 q 483 9 413 -16 q 623 80 553 35 l 651 80 l 651 149 q 504 82 574 106 q 377 58 435 58 q 305 72 335 58 q 258 117 275 85 q 241 199 241 148 l 241 694 m 462 885 l 386 885 l 540 1109 l 638 1109 l 462 885 "},"ŭ":{"ha":861,"x_min":153,"x_max":708,"o":"m 622 694 l 622 96 l 627 86 l 627 0 l 708 0 l 708 694 l 622 694 m 241 694 l 153 694 l 156 158 q 205 30 156 76 q 344 -16 253 -16 q 483 9 413 -16 q 623 80 553 35 l 651 80 l 651 149 q 504 82 574 106 q 377 58 435 58 q 305 72 335 58 q 258 117 275 85 q 241 199 241 148 l 241 694 m 308 1109 l 245 1109 q 288 939 240 999 q 431 880 335 880 q 574 939 526 880 q 616 1109 621 999 l 553 1109 q 524 989 553 1031 q 431 948 495 948 q 337 989 366 948 q 308 1109 308 1031 "},"û":{"ha":861,"x_min":153,"x_max":708,"o":"m 622 694 l 622 96 l 627 86 l 627 0 l 708 0 l 708 694 l 622 694 m 241 694 l 153 694 l 156 158 q 205 30 156 76 q 344 -16 253 -16 q 483 9 413 -16 q 623 80 553 35 l 651 80 l 651 149 q 504 82 574 106 q 377 58 435 58 q 305 72 335 58 q 258 117 275 85 q 241 199 241 148 l 241 694 m 397 1109 l 207 885 l 291 885 l 450 1085 l 411 1085 l 570 885 l 654 885 l 464 1109 l 397 1109 "},"ü":{"ha":861,"x_min":153,"x_max":708,"o":"m 622 694 l 622 96 l 627 86 l 627 0 l 708 0 l 708 694 l 622 694 m 241 694 l 153 694 l 156 158 q 205 30 156 76 q 344 -16 253 -16 q 483 9 413 -16 q 623 80 553 35 l 651 80 l 651 149 q 504 82 574 106 q 377 58 435 58 q 305 72 335 58 q 258 117 275 85 q 241 199 241 148 l 241 694 m 260 912 q 311 930 292 912 q 331 980 331 948 q 311 1030 331 1012 q 260 1048 292 1048 q 207 1030 227 1048 q 188 980 188 1012 q 207 930 188 948 q 260 912 227 912 m 602 912 q 654 930 634 912 q 674 980 674 948 q 654 1030 674 1012 q 602 1048 634 1048 q 550 1030 569 1048 q 530 980 530 1012 q 550 930 530 948 q 602 912 569 912 "},"ụ":{"ha":861,"x_min":153,"x_max":708,"o":"m 622 694 l 622 96 l 627 86 l 627 0 l 708 0 l 708 694 l 622 694 m 241 694 l 153 694 l 156 158 q 205 30 156 76 q 344 -16 253 -16 q 483 9 413 -16 q 623 80 553 35 l 651 80 l 651 149 q 504 82 574 106 q 377 58 435 58 q 305 72 335 58 q 258 117 275 85 q 241 199 241 148 l 241 694 m 431 -353 q 484 -335 463 -353 q 504 -285 504 -317 q 484 -235 504 -253 q 431 -217 463 -217 q 377 -235 398 -217 q 357 -285 357 -253 q 366 -322 357 -306 q 392 -345 376 -337 q 431 -353 409 -353 "},"ù":{"ha":861,"x_min":153,"x_max":708,"o":"m 622 694 l 622 96 l 627 86 l 627 0 l 708 0 l 708 694 l 622 694 m 241 694 l 153 694 l 156 158 q 205 30 156 76 q 344 -16 253 -16 q 483 9 413 -16 q 623 80 553 35 l 651 80 l 651 149 q 504 82 574 106 q 377 58 435 58 q 305 72 335 58 q 258 117 275 85 q 241 199 241 148 l 241 694 m 399 885 l 475 885 l 321 1109 l 224 1109 l 399 885 "},"ű":{"ha":861,"x_min":153,"x_max":708,"o":"m 622 694 l 622 96 l 627 86 l 627 0 l 708 0 l 708 694 l 622 694 m 241 694 l 153 694 l 156 158 q 205 30 156 76 q 344 -16 253 -16 q 483 9 413 -16 q 623 80 553 35 l 651 80 l 651 149 q 504 82 574 106 q 377 58 435 58 q 305 72 335 58 q 258 117 275 85 q 241 199 241 148 l 241 694 m 367 1109 l 265 885 l 335 885 l 456 1109 l 367 1109 m 617 1109 l 516 885 l 585 885 l 708 1109 l 617 1109 "},"ū":{"ha":861,"x_min":153,"x_max":708,"o":"m 622 694 l 622 96 l 627 86 l 627 0 l 708 0 l 708 694 l 622 694 m 241 694 l 153 694 l 156 158 q 205 30 156 76 q 344 -16 253 -16 q 483 9 413 -16 q 623 80 553 35 l 651 80 l 651 149 q 504 82 574 106 q 377 58 435 58 q 305 72 335 58 q 258 117 275 85 q 241 199 241 148 l 241 694 m 644 930 l 644 999 l 217 999 l 217 930 l 644 930 "},"ų":{"ha":861,"x_min":153,"x_max":708,"o":"m 622 694 l 622 96 l 627 86 l 627 0 l 708 0 l 708 694 l 622 694 m 241 694 l 153 694 l 156 158 q 205 30 156 76 q 344 -16 253 -16 q 483 9 413 -16 q 623 80 553 35 l 651 80 l 651 149 q 504 82 574 106 q 377 58 435 58 q 305 72 335 58 q 258 117 275 85 q 241 199 241 148 l 241 694 m 708 0 l 668 26 q 570 -78 601 -33 q 539 -172 539 -124 q 569 -248 539 -218 q 671 -278 599 -278 l 708 -278 l 708 -203 l 688 -203 q 630 -190 648 -203 q 613 -151 613 -177 q 635 -85 613 -122 q 708 0 658 -47 "},"ů":{"ha":861,"x_min":153,"x_max":708,"o":"m 622 694 l 622 96 l 627 86 l 627 0 l 708 0 l 708 694 l 622 694 m 241 694 l 153 694 l 156 158 q 205 30 156 76 q 344 -16 253 -16 q 483 9 413 -16 q 623 80 553 35 l 651 80 l 651 149 q 504 82 574 106 q 377 58 435 58 q 305 72 335 58 q 258 117 275 85 q 241 199 241 148 l 241 694 m 431 844 q 509 864 474 844 q 563 919 543 884 q 582 999 582 955 q 563 1079 582 1044 q 509 1134 543 1114 q 431 1154 474 1154 q 352 1134 387 1154 q 299 1079 318 1114 q 279 999 279 1044 q 299 919 279 955 q 352 864 318 884 q 431 844 387 844 m 431 901 q 361 928 388 901 q 335 999 335 956 q 361 1070 335 1042 q 431 1097 388 1097 q 500 1070 474 1097 q 526 999 526 1042 q 500 928 526 956 q 431 901 474 901 "},"ũ":{"ha":861,"x_min":153,"x_max":708,"o":"m 622 694 l 622 96 l 627 86 l 627 0 l 708 0 l 708 694 l 622 694 m 241 694 l 153 694 l 156 158 q 205 30 156 76 q 344 -16 253 -16 q 483 9 413 -16 q 623 80 553 35 l 651 80 l 651 149 q 504 82 574 106 q 377 58 435 58 q 305 72 335 58 q 258 117 275 85 q 241 199 241 148 l 241 694 m 322 1088 q 258 1067 286 1088 q 211 1007 229 1047 q 186 910 193 967 l 249 888 q 278 983 259 948 q 327 1017 297 1017 q 364 1003 347 1017 q 406 958 381 989 q 446 913 429 930 q 486 884 463 897 q 538 872 510 872 q 603 893 574 872 q 650 953 631 913 q 675 1049 668 992 l 613 1072 q 583 977 602 1012 q 535 942 565 942 q 498 957 515 942 q 455 1002 481 971 q 415 1046 432 1029 q 374 1075 398 1063 q 322 1088 351 1088 "},"v":{"ha":861,"x_min":90,"x_max":769,"o":"m 182 694 l 90 694 q 203 340 127 517 q 393 0 279 163 l 467 0 q 657 340 581 163 q 769 694 733 517 l 681 694 q 590 383 651 534 q 436 88 528 231 l 427 88 q 273 383 335 231 q 182 694 212 534 "},"w":{"ha":861,"x_min":21,"x_max":840,"o":"m 581 0 l 649 0 q 776 346 730 176 q 840 694 823 515 l 761 694 q 711 395 747 543 q 625 113 675 247 l 617 113 q 552 315 585 200 q 491 535 519 429 l 480 578 l 394 578 q 326 339 365 468 q 250 113 287 209 l 241 113 q 157 391 192 242 q 108 694 122 540 l 21 694 q 84 347 38 517 q 208 0 130 178 l 275 0 q 427 471 363 219 l 437 471 q 497 247 460 369 q 581 0 533 124 "},"ẃ":{"ha":861,"x_min":21,"x_max":840,"o":"m 581 0 l 649 0 q 776 346 730 176 q 840 694 823 515 l 761 694 q 711 395 747 543 q 625 113 675 247 l 617 113 q 552 315 585 200 q 491 535 519 429 l 480 578 l 394 578 q 326 339 365 468 q 250 113 287 209 l 241 113 q 157 391 192 242 q 108 694 122 540 l 21 694 q 84 347 38 517 q 208 0 130 178 l 275 0 q 427 471 363 219 l 437 471 q 497 247 460 369 q 581 0 533 124 m 462 885 l 386 885 l 540 1109 l 638 1109 l 462 885 "},"ŵ":{"ha":861,"x_min":21,"x_max":840,"o":"m 581 0 l 649 0 q 776 346 730 176 q 840 694 823 515 l 761 694 q 711 395 747 543 q 625 113 675 247 l 617 113 q 552 315 585 200 q 491 535 519 429 l 480 578 l 394 578 q 326 339 365 468 q 250 113 287 209 l 241 113 q 157 391 192 242 q 108 694 122 540 l 21 694 q 84 347 38 517 q 208 0 130 178 l 275 0 q 427 471 363 219 l 437 471 q 497 247 460 369 q 581 0 533 124 m 397 1109 l 207 885 l 291 885 l 450 1085 l 411 1085 l 570 885 l 654 885 l 464 1109 l 397 1109 "},"ẅ":{"ha":861,"x_min":21,"x_max":840,"o":"m 581 0 l 649 0 q 776 346 730 176 q 840 694 823 515 l 761 694 q 711 395 747 543 q 625 113 675 247 l 617 113 q 552 315 585 200 q 491 535 519 429 l 480 578 l 394 578 q 326 339 365 468 q 250 113 287 209 l 241 113 q 157 391 192 242 q 108 694 122 540 l 21 694 q 84 347 38 517 q 208 0 130 178 l 275 0 q 427 471 363 219 l 437 471 q 497 247 460 369 q 581 0 533 124 m 260 912 q 311 930 292 912 q 331 980 331 948 q 311 1030 331 1012 q 260 1048 292 1048 q 207 1030 227 1048 q 188 980 188 1012 q 207 930 188 948 q 260 912 227 912 m 602 912 q 654 930 634 912 q 674 980 674 948 q 654 1030 674 1012 q 602 1048 634 1048 q 550 1030 569 1048 q 530 980 530 1012 q 550 930 530 948 q 602 912 569 912 "},"ẁ":{"ha":861,"x_min":21,"x_max":840,"o":"m 581 0 l 649 0 q 776 346 730 176 q 840 694 823 515 l 761 694 q 711 395 747 543 q 625 113 675 247 l 617 113 q 552 315 585 200 q 491 535 519 429 l 480 578 l 394 578 q 326 339 365 468 q 250 113 287 209 l 241 113 q 157 391 192 242 q 108 694 122 540 l 21 694 q 84 347 38 517 q 208 0 130 178 l 275 0 q 427 471 363 219 l 437 471 q 497 247 460 369 q 581 0 533 124 m 399 885 l 475 885 l 321 1109 l 224 1109 l 399 885 "},"x":{"ha":861,"x_min":72,"x_max":790,"o":"m 194 694 l 83 694 l 676 0 l 790 0 l 194 694 m 667 694 l 426 395 l 463 333 l 774 694 l 667 694 m 181 0 l 450 322 l 409 388 l 72 0 l 181 0 "},"y":{"ha":861,"x_min":26,"x_max":789,"o":"m 167 694 l 77 694 q 169 425 117 555 q 280 176 220 295 q 412 -62 340 56 l 424 -32 l 410 -8 l 373 -74 q 322 -143 351 -112 q 245 -196 292 -175 q 135 -217 198 -217 q 26 -206 83 -217 l 45 -287 q 131 -294 92 -294 q 288 -255 219 -294 q 405 -154 356 -215 q 496 -12 453 -93 l 536 65 q 680 376 610 208 q 789 694 749 544 l 700 694 q 596 371 656 524 q 449 61 535 219 l 438 61 q 281 369 349 214 q 167 694 213 524 "},"ý":{"ha":861,"x_min":26,"x_max":789,"o":"m 167 694 l 77 694 q 169 425 117 555 q 280 176 220 295 q 412 -62 340 56 l 424 -32 l 410 -8 l 373 -74 q 322 -143 351 -112 q 245 -196 292 -175 q 135 -217 198 -217 q 26 -206 83 -217 l 45 -287 q 131 -294 92 -294 q 288 -255 219 -294 q 405 -154 356 -215 q 496 -12 453 -93 l 536 65 q 680 376 610 208 q 789 694 749 544 l 700 694 q 596 371 656 524 q 449 61 535 219 l 438 61 q 281 369 349 214 q 167 694 213 524 m 462 885 l 386 885 l 540 1109 l 638 1109 l 462 885 "},"ŷ":{"ha":861,"x_min":26,"x_max":789,"o":"m 167 694 l 77 694 q 169 425 117 555 q 280 176 220 295 q 412 -62 340 56 l 424 -32 l 410 -8 l 373 -74 q 322 -143 351 -112 q 245 -196 292 -175 q 135 -217 198 -217 q 26 -206 83 -217 l 45 -287 q 131 -294 92 -294 q 288 -255 219 -294 q 405 -154 356 -215 q 496 -12 453 -93 l 536 65 q 680 376 610 208 q 789 694 749 544 l 700 694 q 596 371 656 524 q 449 61 535 219 l 438 61 q 281 369 349 214 q 167 694 213 524 m 397 1109 l 207 885 l 291 885 l 450 1085 l 411 1085 l 570 885 l 654 885 l 464 1109 l 397 1109 "},"ÿ":{"ha":861,"x_min":26,"x_max":789,"o":"m 167 694 l 77 694 q 169 425 117 555 q 280 176 220 295 q 412 -62 340 56 l 424 -32 l 410 -8 l 373 -74 q 322 -143 351 -112 q 245 -196 292 -175 q 135 -217 198 -217 q 26 -206 83 -217 l 45 -287 q 131 -294 92 -294 q 288 -255 219 -294 q 405 -154 356 -215 q 496 -12 453 -93 l 536 65 q 680 376 610 208 q 789 694 749 544 l 700 694 q 596 371 656 524 q 449 61 535 219 l 438 61 q 281 369 349 214 q 167 694 213 524 m 260 912 q 311 930 292 912 q 331 980 331 948 q 311 1030 331 1012 q 260 1048 292 1048 q 207 1030 227 1048 q 188 980 188 1012 q 207 930 188 948 q 260 912 227 912 m 602 912 q 654 930 634 912 q 674 980 674 948 q 654 1030 674 1012 q 602 1048 634 1048 q 550 1030 569 1048 q 530 980 530 1012 q 550 930 530 948 q 602 912 569 912 "},"ỳ":{"ha":861,"x_min":26,"x_max":789,"o":"m 167 694 l 77 694 q 169 425 117 555 q 280 176 220 295 q 412 -62 340 56 l 424 -32 l 410 -8 l 373 -74 q 322 -143 351 -112 q 245 -196 292 -175 q 135 -217 198 -217 q 26 -206 83 -217 l 45 -287 q 131 -294 92 -294 q 288 -255 219 -294 q 405 -154 356 -215 q 496 -12 453 -93 l 536 65 q 680 376 610 208 q 789 694 749 544 l 700 694 q 596 371 656 524 q 449 61 535 219 l 438 61 q 281 369 349 214 q 167 694 213 524 m 399 885 l 475 885 l 321 1109 l 224 1109 l 399 885 "},"ȳ":{"ha":861,"x_min":26,"x_max":789,"o":"m 167 694 l 77 694 q 169 425 117 555 q 280 176 220 295 q 412 -62 340 56 l 424 -32 l 410 -8 l 373 -74 q 322 -143 351 -112 q 245 -196 292 -175 q 135 -217 198 -217 q 26 -206 83 -217 l 45 -287 q 131 -294 92 -294 q 288 -255 219 -294 q 405 -154 356 -215 q 496 -12 453 -93 l 536 65 q 680 376 610 208 q 789 694 749 544 l 700 694 q 596 371 656 524 q 449 61 535 219 l 438 61 q 281 369 349 214 q 167 694 213 524 m 644 930 l 644 999 l 217 999 l 217 930 l 644 930 "},"ỹ":{"ha":861,"x_min":26,"x_max":789,"o":"m 167 694 l 77 694 q 169 425 117 555 q 280 176 220 295 q 412 -62 340 56 l 424 -32 l 410 -8 l 373 -74 q 322 -143 351 -112 q 245 -196 292 -175 q 135 -217 198 -217 q 26 -206 83 -217 l 45 -287 q 131 -294 92 -294 q 288 -255 219 -294 q 405 -154 356 -215 q 496 -12 453 -93 l 536 65 q 680 376 610 208 q 789 694 749 544 l 700 694 q 596 371 656 524 q 449 61 535 219 l 438 61 q 281 369 349 214 q 167 694 213 524 m 322 1088 q 258 1067 286 1088 q 211 1007 229 1047 q 186 910 193 967 l 249 888 q 278 983 259 948 q 327 1017 297 1017 q 364 1003 347 1017 q 406 958 381 989 q 446 913 429 930 q 486 884 463 897 q 538 872 510 872 q 603 893 574 872 q 650 953 631 913 q 675 1049 668 992 l 613 1072 q 583 977 602 1012 q 535 942 565 942 q 498 957 515 942 q 455 1002 481 971 q 415 1046 432 1029 q 374 1075 398 1063 q 322 1088 351 1088 "},"z":{"ha":861,"x_min":113,"x_max":738,"o":"m 682 696 l 141 696 l 115 624 l 596 624 l 585 639 l 113 52 l 122 0 l 712 0 l 738 72 l 197 72 l 211 42 l 692 647 l 682 696 "},"ź":{"ha":861,"x_min":113,"x_max":738,"o":"m 682 696 l 141 696 l 115 624 l 596 624 l 585 639 l 113 52 l 122 0 l 712 0 l 738 72 l 197 72 l 211 42 l 692 647 l 682 696 m 462 885 l 386 885 l 540 1109 l 638 1109 l 462 885 "},"ž":{"ha":861,"x_min":113,"x_max":738,"o":"m 682 696 l 141 696 l 115 624 l 596 624 l 585 639 l 113 52 l 122 0 l 712 0 l 738 72 l 197 72 l 211 42 l 692 647 l 682 696 m 397 885 l 207 1109 l 291 1109 l 431 933 l 570 1109 l 654 1109 l 464 885 l 397 885 "},"ż":{"ha":861,"x_min":113,"x_max":738,"o":"m 682 696 l 141 696 l 115 624 l 596 624 l 585 639 l 113 52 l 122 0 l 712 0 l 738 72 l 197 72 l 211 42 l 692 647 l 682 696 m 431 912 q 484 930 463 912 q 504 980 504 948 q 484 1030 504 1012 q 431 1048 463 1048 q 377 1030 398 1048 q 357 980 357 1012 q 366 943 357 959 q 392 920 376 928 q 431 912 409 912 "},"":{"ha":861,"x_min":260,"x_max":629,"o":"m 629 -1 q 586 146 629 92 q 467 200 543 200 q 391 184 424 200 q 333 140 358 168 l 317 140 l 317 82 q 377 129 347 115 q 440 143 407 143 q 529 106 499 143 q 559 -1 559 69 q 528 -110 559 -73 q 439 -147 497 -147 q 375 -132 405 -147 q 317 -85 345 -118 l 317 -143 l 333 -143 q 388 -187 356 -171 q 463 -203 420 -203 q 551 -179 514 -203 q 609 -109 589 -155 q 629 -1 629 -64 m 326 -125 l 328 -125 l 328 383 l 260 383 l 260 -194 l 317 -194 l 326 -125 "},"":{"ha":861,"x_min":231,"x_max":626,"o":"m 626 -78 l 560 -67 q 516 -127 547 -106 q 436 -148 484 -148 q 337 -111 373 -148 q 301 -1 301 -74 q 336 107 301 70 q 438 144 371 144 q 519 123 488 144 q 558 58 551 102 l 626 64 q 567 166 617 131 q 440 200 517 200 q 330 177 376 200 q 257 110 283 155 q 231 -1 231 65 q 257 -111 231 -66 q 329 -180 283 -157 q 435 -203 375 -203 q 558 -172 507 -203 q 626 -78 608 -140 "},"":{"ha":861,"x_min":231,"x_max":600,"o":"m 231 -3 q 274 -149 231 -95 q 394 -203 317 -203 q 469 -187 437 -203 q 528 -143 502 -172 l 544 -143 l 544 -86 q 484 -133 515 -119 q 420 -147 453 -147 q 332 -110 362 -147 q 301 -3 301 -74 q 333 106 301 69 q 422 143 364 143 q 485 129 456 143 q 544 82 515 115 l 544 140 l 527 140 q 472 184 503 168 q 397 200 440 200 q 309 176 347 200 q 251 106 272 151 q 231 -3 231 60 m 532 383 l 532 -125 l 535 -125 l 543 -194 l 600 -194 l 600 383 l 532 383 "},"":{"ha":861,"x_min":220,"x_max":631,"o":"m 631 340 l 631 399 q 537 410 585 410 q 440 393 480 410 q 377 336 399 376 q 356 233 356 297 l 356 -194 l 424 -194 l 424 237 q 437 308 424 283 q 475 342 451 333 q 539 351 500 351 q 584 348 564 351 q 631 340 604 346 m 243 -140 l 243 -194 l 574 -194 l 574 -140 l 243 -140 m 615 137 l 615 191 l 220 191 l 220 137 l 615 137 "},"":{"ha":861,"x_min":231,"x_max":600,"o":"m 231 16 q 251 -80 231 -39 q 307 -144 271 -122 q 394 -167 344 -167 q 469 -151 435 -167 q 528 -107 503 -135 l 544 -107 l 544 -49 q 484 -96 515 -82 q 420 -110 454 -110 q 332 -77 363 -110 q 301 16 301 -43 q 333 109 301 76 q 422 143 365 143 q 485 129 456 143 q 544 82 515 115 l 544 140 l 527 140 q 472 184 504 167 q 397 200 440 200 q 310 177 347 200 q 252 113 272 155 q 231 16 231 72 m 600 -173 l 600 191 l 543 191 l 535 123 l 532 123 l 532 -180 q 501 -273 532 -246 q 416 -300 471 -300 q 342 -284 372 -300 q 302 -234 313 -267 l 241 -249 q 295 -323 253 -296 q 416 -350 338 -350 q 517 -332 476 -350 q 579 -275 558 -314 q 600 -173 600 -236 "},"":{"ha":861,"x_min":231,"x_max":600,"o":"m 231 -2 q 274 -149 231 -95 q 394 -203 317 -203 q 469 -187 435 -203 q 528 -143 503 -171 l 544 -143 l 544 -85 q 484 -132 514 -118 q 420 -147 454 -147 q 332 -110 362 -147 q 301 -2 301 -73 q 333 106 301 69 q 422 143 364 143 q 485 129 456 143 q 544 82 515 115 l 544 140 l 527 140 q 472 184 505 167 q 397 200 440 200 q 276 146 320 200 q 231 -2 231 92 m 535 123 l 532 123 l 532 -341 l 600 -341 l 600 191 l 543 191 l 535 123 "},"ₐ":{"ha":861,"x_min":237,"x_max":628,"o":"m 422 200 q 293 170 335 200 q 251 88 251 140 l 251 67 l 315 67 l 315 84 q 342 136 316 122 q 413 151 368 151 q 486 135 462 151 q 510 74 510 119 l 510 -131 l 514 -137 q 529 -184 514 -167 q 581 -202 544 -202 q 628 -194 603 -202 l 628 -145 q 589 -143 600 -149 q 578 -116 578 -137 l 578 78 q 539 172 578 144 q 422 200 499 200 m 535 -22 l 518 22 q 370 14 431 22 q 274 -21 310 6 q 237 -99 237 -48 q 270 -176 237 -149 q 363 -203 304 -203 q 441 -188 409 -203 q 508 -146 474 -173 l 522 -146 l 519 -105 q 456 -141 486 -128 q 391 -153 426 -153 q 330 -137 351 -153 q 308 -92 308 -121 q 349 -34 308 -51 q 469 -17 390 -17 q 535 -22 498 -17 "},"ₑ":{"ha":861,"x_min":231,"x_max":623,"o":"m 231 -1 q 257 -111 231 -66 q 329 -180 283 -157 q 437 -203 375 -203 q 553 -175 506 -203 q 621 -93 601 -147 l 555 -82 q 509 -132 540 -116 q 437 -148 479 -148 q 337 -111 372 -148 q 301 -1 301 -74 q 336 107 301 69 q 437 144 372 144 q 523 119 490 144 q 556 42 556 93 l 556 26 l 578 43 l 282 43 l 282 -3 l 623 -3 l 623 31 q 575 157 623 113 q 439 200 527 200 q 329 177 376 200 q 257 108 282 153 q 231 -1 231 63 "},"ᵢ":{"ha":861,"x_min":247,"x_max":613,"o":"m 396 -194 l 464 -194 l 464 191 l 455 199 l 247 191 l 247 138 l 415 138 l 396 160 l 396 -194 m 247 -140 l 247 -194 l 613 -194 l 613 -140 l 247 -140 m 416 292 q 453 305 439 292 q 467 339 467 317 q 453 372 467 360 q 416 385 439 385 q 378 372 393 385 q 364 339 364 360 q 378 305 364 317 q 416 292 392 292 "},"ⱼ":{"ha":861,"x_min":248,"x_max":533,"o":"m 531 -180 l 531 191 l 522 199 l 264 191 l 264 138 l 481 138 l 463 162 l 463 -176 q 452 -247 463 -222 q 419 -282 442 -272 q 357 -292 397 -292 q 248 -279 304 -292 l 248 -338 q 302 -349 274 -345 q 358 -352 329 -352 q 459 -337 422 -352 q 514 -284 497 -322 q 531 -180 531 -247 m 482 292 q 519 305 505 292 q 533 339 533 317 q 519 372 533 360 q 482 385 505 385 q 444 373 458 385 q 430 339 430 360 q 444 305 430 317 q 482 292 458 292 "},"ₒ":{"ha":861,"x_min":231,"x_max":629,"o":"m 629 -2 q 603 108 629 63 q 532 177 576 153 q 431 200 487 200 q 329 177 374 200 q 258 108 284 154 q 231 -2 231 63 q 258 -112 231 -67 q 329 -181 284 -158 q 431 -203 374 -203 q 532 -181 487 -203 q 603 -112 576 -158 q 629 -2 629 -67 m 559 -2 q 524 -111 559 -74 q 431 -148 490 -148 q 336 -111 371 -148 q 301 -2 301 -74 q 336 107 301 70 q 431 144 371 144 q 524 107 490 144 q 559 -2 559 70 "},"ᵣ":{"ha":861,"x_min":240,"x_max":624,"o":"m 417 121 l 409 191 l 240 191 l 240 137 l 370 137 l 352 154 l 352 -194 l 420 -194 l 420 121 l 417 121 m 624 135 l 624 197 q 584 200 605 200 q 497 185 533 200 q 425 136 461 170 l 403 136 l 403 75 q 469 114 438 101 q 534 131 500 126 q 624 135 569 135 m 240 -140 l 240 -194 l 571 -194 l 571 -140 l 240 -140 "},"ₔ":{"ha":861,"x_min":238,"x_max":630,"o":"m 630 -2 q 604 108 630 63 q 532 177 578 153 q 424 200 486 200 q 308 172 356 200 q 240 90 260 143 l 306 78 q 352 128 322 113 q 424 144 382 144 q 524 107 489 144 q 560 -2 560 70 q 525 -110 560 -73 q 424 -148 490 -148 q 338 -122 371 -148 q 305 -45 305 -97 l 305 -30 l 283 -47 l 579 -47 l 579 -1 l 238 -1 l 238 -34 q 286 -160 238 -117 q 422 -203 334 -203 q 532 -180 485 -203 q 605 -111 579 -157 q 630 -2 630 -66 "},"ᵤ":{"ha":861,"x_min":261,"x_max":601,"o":"m 533 191 l 533 -130 l 535 -130 l 544 -194 l 601 -194 l 601 191 l 533 191 m 329 191 l 261 191 l 261 -84 q 293 -174 261 -145 q 383 -203 326 -203 q 466 -186 431 -203 q 528 -140 500 -168 l 546 -140 l 546 -74 q 486 -128 519 -109 q 410 -148 452 -148 q 351 -130 374 -148 q 329 -66 329 -111 l 329 191 "},"ᵥ":{"ha":861,"x_min":224,"x_max":636,"o":"m 297 191 l 224 191 l 396 -194 l 464 -194 l 636 191 l 570 191 l 436 -112 l 431 -112 l 297 191 "},"ₓ":{"ha":861,"x_min":216,"x_max":644,"o":"m 306 191 l 222 191 l 560 -194 l 644 -194 l 306 191 m 559 191 l 420 26 l 458 -17 l 638 191 l 559 191 m 298 -194 l 442 -22 l 408 25 l 216 -194 l 298 -194 "},"ª":{"ha":861,"x_min":237,"x_max":628,"o":"m 422 1158 q 293 1128 335 1158 q 251 1046 251 1098 l 251 1025 l 315 1025 l 315 1042 q 342 1095 316 1080 q 413 1110 368 1110 q 486 1093 462 1110 q 510 1032 510 1077 l 510 828 l 514 822 q 529 774 514 792 q 581 756 544 756 q 628 764 603 756 l 628 813 q 589 815 600 809 q 578 842 578 821 l 578 1036 q 539 1130 578 1102 q 422 1158 499 1158 m 535 937 l 518 980 q 370 972 431 981 q 274 937 310 964 q 237 859 237 910 q 270 782 237 810 q 363 755 304 755 q 441 770 409 755 q 508 813 474 785 l 522 813 l 519 853 q 456 818 486 830 q 391 806 426 806 q 330 822 351 806 q 308 867 308 838 q 349 924 308 907 q 469 942 390 942 q 535 937 498 942 "},"º":{"ha":861,"x_min":231,"x_max":629,"o":"m 629 956 q 603 1066 629 1021 q 532 1135 576 1112 q 431 1158 487 1158 q 329 1135 374 1158 q 258 1067 284 1113 q 231 956 231 1021 q 258 846 231 891 q 329 778 284 801 q 431 755 374 755 q 532 778 487 755 q 603 846 576 801 q 629 956 629 892 m 559 956 q 524 847 559 884 q 431 810 490 810 q 336 847 371 810 q 301 956 301 884 q 336 1066 301 1028 q 431 1103 371 1103 q 524 1066 490 1103 q 559 956 559 1028 "},"ʰ":{"ha":861,"x_min":260,"x_max":600,"o":"m 260 764 l 328 764 l 328 1341 l 260 1341 l 260 764 m 532 764 l 600 764 l 600 1039 q 568 1129 600 1100 q 481 1158 537 1158 q 399 1141 433 1158 q 337 1094 365 1123 l 317 1094 l 317 1030 q 376 1084 342 1064 q 451 1103 409 1103 q 510 1085 488 1103 q 532 1021 532 1066 l 532 764 "},"ⁱ":{"ha":861,"x_min":247,"x_max":613,"o":"m 396 764 l 464 764 l 464 1149 l 455 1158 l 247 1149 l 247 1097 l 415 1097 l 396 1119 l 396 764 m 247 818 l 247 764 l 613 764 l 613 818 l 247 818 m 416 1251 q 453 1263 439 1251 q 467 1297 467 1276 q 453 1331 467 1318 q 416 1343 439 1343 q 378 1331 393 1343 q 364 1297 364 1318 q 378 1263 364 1276 q 416 1251 392 1251 "},"ʲ":{"ha":861,"x_min":248,"x_max":533,"o":"m 531 778 l 531 1149 l 522 1158 l 264 1149 l 264 1097 l 481 1097 l 463 1120 l 463 782 q 452 711 463 736 q 419 676 442 686 q 357 666 397 666 q 248 679 304 666 l 248 620 q 302 610 274 613 q 358 606 329 606 q 459 622 422 606 q 514 674 497 637 q 531 778 531 711 m 482 1251 q 519 1263 505 1251 q 533 1297 533 1276 q 519 1331 533 1318 q 482 1343 505 1343 q 444 1331 458 1343 q 430 1297 430 1319 q 444 1263 430 1276 q 482 1251 458 1251 "},"ˡ":{"ha":861,"x_min":247,"x_max":613,"o":"m 247 818 l 247 764 l 613 764 l 613 818 l 247 818 m 396 764 l 464 764 l 464 1340 l 455 1349 l 247 1341 l 247 1288 l 415 1288 l 397 1310 l 396 764 "},"ⁿ":{"ha":861,"x_min":260,"x_max":600,"o":"m 328 764 l 328 1085 l 325 1085 l 317 1149 l 260 1149 l 260 764 l 328 764 m 532 764 l 600 764 l 600 1039 q 568 1129 600 1100 q 478 1158 535 1158 q 395 1141 430 1158 q 333 1094 361 1123 l 315 1094 l 315 1030 q 375 1084 342 1065 q 451 1103 409 1103 q 510 1085 488 1103 q 532 1021 532 1066 l 532 764 "},"ʳ":{"ha":861,"x_min":240,"x_max":624,"o":"m 417 1079 l 409 1149 l 240 1149 l 240 1095 l 370 1095 l 352 1113 l 352 765 l 420 765 l 420 1079 l 417 1079 m 624 1093 l 624 1155 q 584 1158 605 1158 q 497 1143 533 1158 q 425 1094 461 1128 l 403 1094 l 403 1033 q 469 1072 438 1060 q 534 1089 500 1085 q 624 1093 569 1093 m 240 818 l 240 764 l 571 764 l 571 818 l 240 818 "},"ˢ":{"ha":861,"x_min":232,"x_max":609,"o":"m 432 1158 q 298 1128 342 1158 q 254 1046 254 1099 q 291 974 254 998 q 406 934 327 949 q 489 915 460 924 q 530 895 518 906 q 542 867 542 884 q 515 825 542 842 q 433 808 488 808 q 371 813 397 808 q 325 834 345 817 q 294 884 304 851 l 232 876 q 294 783 246 810 q 431 755 342 755 q 564 787 518 755 q 609 875 609 819 q 593 929 609 908 q 541 963 576 949 q 444 987 506 976 l 422 991 q 360 1008 383 999 q 329 1026 338 1016 q 319 1052 319 1037 q 348 1094 319 1080 q 426 1108 376 1108 q 510 1091 481 1108 q 544 1040 540 1074 l 606 1044 q 559 1129 602 1100 q 432 1158 515 1158 "},"ʷ":{"ha":861,"x_min":190,"x_max":671,"o":"m 255 1149 l 190 1149 l 292 764 l 349 764 l 428 999 l 433 999 l 507 764 l 569 764 l 671 1149 l 608 1149 l 536 866 l 529 866 l 458 1088 l 410 1088 l 335 866 l 328 866 l 255 1149 "},"ˣ":{"ha":861,"x_min":216,"x_max":644,"o":"m 306 1149 l 222 1149 l 560 764 l 644 764 l 306 1149 m 559 1149 l 420 984 l 458 941 l 638 1149 l 559 1149 m 298 764 l 442 937 l 408 983 l 216 764 l 298 764 "},"ʸ":{"ha":861,"x_min":219,"x_max":640,"o":"m 219 1149 l 420 723 l 428 778 l 417 787 l 398 738 q 357 688 385 708 q 278 667 328 667 q 234 672 257 667 l 230 673 l 230 613 q 278 608 253 608 q 369 629 331 608 q 433 684 407 649 q 479 767 459 719 l 640 1149 l 572 1149 l 444 840 l 439 840 l 292 1149 l 219 1149 "},"ℂ":{"ha":861,"x_min":85,"x_max":774,"o":"m 178 506 q 214 761 178 663 q 310 904 249 860 q 452 949 372 949 q 572 917 521 949 q 653 828 624 885 q 689 694 683 771 l 774 702 q 729 873 769 799 q 617 988 688 947 q 450 1030 545 1030 q 260 972 342 1030 q 131 796 178 914 q 85 506 85 678 q 131 218 85 335 q 260 43 178 101 q 450 -15 342 -15 q 617 26 545 -15 q 729 142 688 68 q 774 313 769 216 l 689 321 q 653 186 683 244 q 572 98 624 129 q 452 66 521 66 q 310 110 372 66 q 214 253 249 155 q 178 506 178 351 m 275 958 l 275 56 l 358 56 l 358 958 l 275 958 "},"ℕ":{"ha":861,"x_min":132,"x_max":729,"o":"m 132 1014 l 132 0 l 215 0 l 215 1014 l 132 1014 m 646 1014 l 646 0 l 729 0 l 729 1014 l 646 1014 m 156 1014 l 694 194 l 706 324 l 253 1014 l 156 1014 m 705 0 l 167 820 l 156 690 l 608 0 l 705 0 "},"ℚ":{"ha":861,"x_min":76,"x_max":785,"o":"m 596 70 l 501 273 l 417 273 l 526 51 l 540 20 l 638 -176 l 728 -176 l 613 43 l 596 70 m 785 508 q 741 798 785 681 q 618 973 697 915 q 431 1031 538 1031 q 243 973 323 1031 q 120 798 164 915 q 76 508 76 681 q 120 217 76 335 q 243 42 164 99 q 431 -16 322 -16 q 618 42 539 -16 q 741 217 697 99 q 785 508 785 335 m 691 508 q 659 252 691 351 q 570 110 628 154 q 431 65 513 65 q 291 110 349 65 q 202 252 233 154 q 170 508 170 351 q 202 763 170 665 q 291 905 233 861 q 431 949 349 949 q 570 905 513 949 q 659 763 628 861 q 691 508 691 665 m 270 958 l 270 56 l 353 56 l 353 958 l 270 958 "},"ℝ":{"ha":861,"x_min":132,"x_max":789,"o":"m 789 0 l 547 491 l 475 454 l 690 0 l 789 0 m 399 490 l 339 490 l 339 417 l 408 417 q 608 454 529 417 q 725 561 687 492 q 763 726 763 631 q 724 889 763 825 q 612 984 685 953 q 436 1014 540 1014 l 364 1014 l 364 938 l 419 938 q 566 917 510 938 q 649 850 622 896 q 676 726 676 803 q 613 551 676 613 q 399 490 549 490 m 132 0 l 215 0 l 215 1014 l 132 1014 l 132 0 m 309 0 l 392 0 l 392 1014 l 309 1014 l 309 0 m 178 1014 l 178 938 l 347 938 l 347 1014 l 178 1014 m 178 76 l 178 0 l 347 0 l 347 76 l 178 76 "},"ℤ":{"ha":861,"x_min":104,"x_max":757,"o":"m 757 1014 l 104 1014 l 104 931 l 757 931 l 757 1014 m 757 83 l 104 83 l 104 0 l 757 0 l 757 83 m 181 49 l 580 965 l 496 984 l 104 83 l 181 49 m 680 965 l 281 49 l 365 30 l 757 931 l 680 965 "},"ₕ":{"ha":861,"x_min":260,"x_max":600,"o":"m 260 -194 l 328 -194 l 328 383 l 260 383 l 260 -194 m 532 -194 l 600 -194 l 600 81 q 568 171 600 142 q 481 200 537 200 q 399 182 433 200 q 337 136 365 165 l 317 136 l 317 72 q 376 125 342 106 q 451 145 409 145 q 510 126 488 145 q 532 63 532 108 l 532 -194 "},"ₖ":{"ha":861,"x_min":260,"x_max":656,"o":"m 260 -194 l 328 -194 l 328 383 l 260 383 l 260 -194 m 437 41 l 310 41 l 310 -14 l 434 -14 l 397 -1 l 573 -194 l 656 -194 l 469 12 l 469 17 l 638 191 l 558 191 l 395 22 l 437 41 "},"ₗ":{"ha":861,"x_min":247,"x_max":613,"o":"m 247 -140 l 247 -194 l 613 -194 l 613 -140 l 247 -140 m 396 -194 l 464 -194 l 464 382 l 455 391 l 247 383 l 247 330 l 415 330 l 397 352 l 396 -194 "},"ₘ":{"ha":861,"x_min":245,"x_max":616,"o":"m 308 -194 l 308 126 l 306 126 l 297 191 l 245 191 l 245 -194 l 308 -194 m 399 -194 l 462 -194 l 462 131 q 444 182 462 165 q 395 199 426 199 q 344 184 366 199 q 308 143 322 169 l 289 143 l 301 99 q 329 131 313 118 q 364 143 344 143 q 389 135 378 143 q 399 107 399 126 l 399 -194 m 553 -194 l 616 -194 l 616 131 q 598 182 616 165 q 549 199 580 199 q 498 184 520 199 q 463 143 476 169 l 442 143 l 455 99 q 484 132 469 121 q 518 143 500 143 q 543 135 533 143 q 553 107 553 126 l 553 -194 "},"ₙ":{"ha":861,"x_min":260,"x_max":600,"o":"m 328 -194 l 328 126 l 325 126 l 317 191 l 260 191 l 260 -194 l 328 -194 m 532 -194 l 600 -194 l 600 81 q 568 171 600 142 q 478 200 535 200 q 395 182 430 200 q 333 136 361 165 l 315 136 l 315 72 q 375 126 342 106 q 451 145 409 145 q 510 126 488 145 q 532 63 532 108 l 532 -194 "},"ₚ":{"ha":861,"x_min":260,"x_max":629,"o":"m 629 -1 q 586 146 629 92 q 467 200 543 200 q 391 184 424 200 q 333 140 358 168 l 317 140 l 317 82 q 377 129 347 115 q 440 143 407 143 q 529 106 499 143 q 559 -1 559 69 q 528 -110 559 -73 q 439 -147 497 -147 q 375 -132 405 -147 q 317 -85 345 -118 l 317 -143 l 333 -143 q 388 -187 356 -171 q 463 -203 420 -203 q 551 -179 514 -203 q 609 -109 589 -155 q 629 -1 629 -64 m 328 -341 l 328 123 l 325 123 l 317 191 l 260 191 l 260 -341 l 328 -341 "},"ₛ":{"ha":861,"x_min":232,"x_max":609,"o":"m 432 200 q 298 170 342 200 q 254 88 254 140 q 291 15 254 40 q 406 -24 327 -9 q 489 -43 460 -34 q 530 -63 518 -52 q 542 -91 542 -74 q 515 -134 542 -117 q 433 -151 488 -151 q 371 -146 397 -151 q 325 -124 345 -141 q 294 -74 304 -108 l 232 -83 q 294 -176 246 -148 q 431 -203 342 -203 q 564 -171 518 -203 q 609 -83 609 -139 q 593 -30 609 -50 q 541 4 576 -9 q 444 28 506 17 l 422 33 q 360 49 383 41 q 329 68 338 58 q 319 94 319 78 q 348 135 319 122 q 426 149 376 149 q 510 132 481 149 q 544 81 540 115 l 606 85 q 559 171 602 142 q 432 200 515 200 "},"ₜ":{"ha":861,"x_min":220,"x_max":617,"o":"m 607 191 l 375 191 l 363 191 l 220 191 l 220 137 l 607 137 l 607 191 m 511 -201 q 617 -187 569 -201 l 617 -129 q 515 -142 563 -142 q 453 -133 476 -142 q 421 -101 431 -124 q 411 -35 411 -78 l 411 314 l 344 314 l 344 -38 q 361 -137 344 -102 q 414 -187 378 -173 q 511 -201 450 -201 "},"ᴬ":{"ha":861,"x_min":244,"x_max":617,"o":"m 544 764 l 617 764 l 467 1149 l 393 1149 l 244 764 l 314 764 l 426 1056 l 431 1056 l 544 764 m 321 907 l 321 858 l 544 858 l 544 907 l 321 907 "},"ᴮ":{"ha":861,"x_min":285,"x_max":604,"o":"m 285 764 l 354 764 l 354 1149 l 285 1149 l 285 764 m 435 1149 l 329 1149 l 329 1101 l 412 1101 q 485 1088 463 1101 q 508 1050 508 1076 q 482 1003 508 1020 q 408 987 456 987 l 308 987 l 308 940 l 412 940 q 502 926 470 940 q 533 878 533 913 q 503 827 533 842 q 412 813 472 813 l 335 813 l 335 764 l 428 764 q 558 793 511 764 q 604 876 604 823 q 568 942 604 919 q 476 967 533 965 l 476 969 q 547 999 515 974 q 578 1066 578 1024 q 560 1116 578 1097 q 512 1142 543 1134 q 435 1149 481 1149 "},"ᴰ":{"ha":861,"x_min":283,"x_max":601,"o":"m 283 764 l 351 764 l 351 1149 l 283 1149 l 283 764 m 530 955 q 516 873 530 903 q 473 830 501 842 q 397 817 444 817 l 319 817 l 319 764 l 397 764 q 511 781 467 764 q 578 840 556 799 q 601 955 601 882 q 578 1070 601 1028 q 511 1131 556 1113 q 397 1149 466 1149 l 319 1149 l 319 1096 l 397 1096 q 473 1082 444 1096 q 516 1038 501 1069 q 530 955 530 1007 "},"ᴱ":{"ha":861,"x_min":283,"x_max":580,"o":"m 283 764 l 351 764 l 351 1149 l 283 1149 l 283 764 m 580 764 l 580 819 l 321 819 l 321 764 l 580 764 m 540 931 l 540 984 l 325 984 l 325 931 l 540 931 m 321 1094 l 580 1094 l 580 1149 l 321 1149 l 321 1094 "},"ᴳ":{"ha":861,"x_min":261,"x_max":598,"o":"m 598 966 l 441 966 l 441 913 l 556 913 l 533 930 l 533 901 q 509 834 533 855 q 441 814 485 814 q 360 846 387 814 q 333 957 333 878 q 360 1065 333 1032 q 440 1097 388 1097 q 501 1081 478 1097 q 530 1031 524 1065 l 596 1036 q 546 1126 588 1097 q 439 1156 504 1156 q 308 1107 354 1156 q 261 956 261 1058 q 308 806 261 854 q 440 758 354 758 q 554 794 510 758 q 598 908 598 831 l 598 966 "},"ᴴ":{"ha":861,"x_min":283,"x_max":579,"o":"m 283 764 l 351 764 l 351 1149 l 283 1149 l 283 764 m 510 764 l 579 764 l 579 1149 l 510 1149 l 510 764 m 317 987 l 317 931 l 544 931 l 544 987 l 317 987 "},"ᴵ":{"ha":861,"x_min":282,"x_max":581,"o":"m 397 764 l 466 764 l 466 1149 l 397 1149 l 397 764 m 581 1149 l 282 1149 l 282 1094 l 581 1094 l 581 1149 m 282 819 l 282 764 l 581 764 l 581 819 l 282 819 "},"ᴶ":{"ha":861,"x_min":281,"x_max":573,"o":"m 347 899 l 281 899 l 283 862 q 321 784 285 810 q 422 758 357 758 q 505 770 471 758 q 556 810 538 783 q 573 881 573 838 l 573 1149 l 504 1149 l 504 876 q 483 828 504 843 q 426 814 463 814 q 369 828 390 814 q 348 868 349 842 l 347 899 m 544 1094 l 544 1149 l 303 1149 l 303 1094 l 544 1094 "},"ᴷ":{"ha":861,"x_min":283,"x_max":610,"o":"m 283 764 l 351 764 l 351 1149 l 283 1149 l 283 764 m 439 985 l 335 985 l 335 930 l 438 930 l 399 945 l 532 764 l 610 764 l 470 957 l 470 962 l 604 1149 l 530 1149 l 403 964 l 439 985 "},"ᴸ":{"ha":861,"x_min":294,"x_max":591,"o":"m 294 764 l 363 764 l 363 1149 l 294 1149 l 294 764 m 591 764 l 591 819 l 330 819 l 330 764 l 591 764 "},"ᴹ":{"ha":861,"x_min":273,"x_max":588,"o":"m 337 1149 l 273 1149 l 273 764 l 327 764 l 327 1051 l 330 1051 l 421 867 l 439 867 l 529 1051 l 533 1051 l 533 764 l 588 764 l 588 1149 l 526 1149 l 433 962 l 430 962 l 337 1149 "},"ᴺ":{"ha":861,"x_min":283,"x_max":579,"o":"m 349 1042 l 510 764 l 579 764 l 579 1149 l 521 1149 l 521 872 l 513 872 l 352 1149 l 283 1149 l 283 764 l 341 764 l 341 1042 l 349 1042 "},"ᴼ":{"ha":861,"x_min":259,"x_max":603,"o":"m 603 957 q 558 1107 603 1058 q 431 1156 513 1156 q 304 1107 349 1156 q 259 957 259 1058 q 304 808 259 858 q 431 758 349 758 q 558 808 513 758 q 603 957 603 858 m 531 957 q 520 874 531 905 q 486 829 508 843 q 431 815 465 815 q 376 829 398 815 q 342 874 353 843 q 331 957 331 906 q 342 1040 331 1008 q 376 1084 353 1071 q 431 1098 398 1098 q 486 1084 465 1098 q 520 1040 508 1071 q 531 957 531 1008 "},"ᴾ":{"ha":861,"x_min":285,"x_max":597,"o":"m 285 764 l 354 764 l 354 1149 l 285 1149 l 285 764 m 408 951 l 325 951 l 325 900 l 403 900 q 549 934 502 900 q 597 1029 597 967 q 551 1118 597 1088 q 433 1149 506 1149 l 325 1149 l 325 1099 l 417 1099 q 499 1082 472 1099 q 526 1029 526 1065 q 499 972 526 992 q 408 951 471 951 "},"ᴿ":{"ha":861,"x_min":285,"x_max":610,"o":"m 610 764 l 474 944 l 410 935 l 527 764 l 610 764 m 285 764 l 354 764 l 354 1149 l 285 1149 l 285 764 m 406 966 l 328 966 l 328 916 l 408 916 q 546 947 498 916 q 594 1035 594 977 q 550 1119 594 1088 q 433 1149 506 1149 l 328 1149 l 328 1099 l 414 1099 q 496 1084 469 1099 q 523 1035 523 1069 q 495 984 523 1002 q 406 966 468 966 "},"ᵀ":{"ha":861,"x_min":267,"x_max":594,"o":"m 397 764 l 465 764 l 465 1149 l 397 1149 l 397 764 m 267 1149 l 267 1094 l 594 1094 l 594 1149 l 267 1149 "},"ᵁ":{"ha":861,"x_min":278,"x_max":584,"o":"m 431 815 q 364 838 382 815 q 347 907 347 862 l 347 1149 l 278 1149 l 278 907 q 314 795 278 832 q 431 758 351 758 q 548 795 511 758 q 584 907 584 832 l 584 1149 l 515 1149 l 515 907 q 498 838 515 862 q 431 815 480 815 "},"ᵂ":{"ha":861,"x_min":239,"x_max":622,"o":"m 303 1149 l 239 1149 l 313 764 l 368 764 l 428 986 l 433 986 l 488 764 l 549 764 l 622 1149 l 560 1149 l 511 905 l 506 905 l 459 1085 l 410 1085 l 357 905 l 352 905 l 303 1149 "},"ᵃ":{"ha":861,"x_min":237,"x_max":628,"o":"m 422 1158 q 293 1128 335 1158 q 251 1046 251 1098 l 251 1025 l 315 1025 l 315 1042 q 342 1095 316 1080 q 413 1110 368 1110 q 486 1093 462 1110 q 510 1032 510 1077 l 510 828 l 514 822 q 529 774 514 792 q 581 756 544 756 q 628 764 603 756 l 628 813 q 589 815 600 809 q 578 842 578 821 l 578 1036 q 539 1130 578 1102 q 422 1158 499 1158 m 535 937 l 518 980 q 370 972 431 981 q 274 937 310 964 q 237 859 237 910 q 270 782 237 810 q 363 755 304 755 q 441 770 409 755 q 508 813 474 785 l 522 813 l 519 853 q 456 818 486 830 q 391 806 426 806 q 330 822 351 806 q 308 867 308 838 q 349 924 308 907 q 469 942 390 942 q 535 937 498 942 "},"ᵇ":{"ha":861,"x_min":260,"x_max":629,"o":"m 629 957 q 586 1104 629 1050 q 467 1158 543 1158 q 391 1142 424 1158 q 333 1098 358 1126 l 317 1098 l 317 1040 q 377 1088 347 1074 q 440 1101 407 1101 q 529 1065 499 1101 q 559 957 559 1028 q 528 849 559 885 q 439 812 497 812 q 375 826 405 812 q 317 873 345 840 l 317 815 l 333 815 q 388 771 356 788 q 463 755 420 755 q 551 779 514 755 q 609 849 589 803 q 629 957 629 894 m 326 833 l 328 833 l 328 1341 l 260 1341 l 260 764 l 317 764 l 326 833 "},"ᶜ":{"ha":861,"x_min":231,"x_max":626,"o":"m 626 881 l 560 892 q 516 831 547 852 q 436 810 484 810 q 337 848 373 810 q 301 958 301 885 q 336 1066 301 1028 q 438 1103 371 1103 q 519 1082 488 1103 q 558 1017 551 1060 l 626 1022 q 567 1124 617 1090 q 440 1158 517 1158 q 330 1136 376 1158 q 257 1068 283 1113 q 231 958 231 1023 q 257 847 231 892 q 329 778 283 801 q 435 755 375 755 q 558 786 507 755 q 626 881 608 818 "},"ᵈ":{"ha":861,"x_min":231,"x_max":600,"o":"m 231 956 q 274 809 231 863 q 394 755 317 755 q 469 771 437 755 q 528 815 502 787 l 544 815 l 544 872 q 484 826 515 840 q 420 812 453 812 q 332 848 362 812 q 301 956 301 885 q 333 1065 301 1028 q 422 1101 364 1101 q 485 1087 456 1101 q 544 1040 515 1073 l 544 1098 l 527 1098 q 472 1142 503 1126 q 397 1158 440 1158 q 309 1134 347 1158 q 251 1064 272 1110 q 231 956 231 1019 m 532 1341 l 532 833 l 535 833 l 543 764 l 600 764 l 600 1341 l 532 1341 "},"ᵉ":{"ha":861,"x_min":231,"x_max":623,"o":"m 231 957 q 257 847 231 892 q 329 778 283 801 q 437 755 375 755 q 553 783 506 755 q 621 865 601 812 l 555 876 q 509 826 540 842 q 437 810 479 810 q 337 848 372 810 q 301 957 301 885 q 336 1065 301 1028 q 437 1103 372 1103 q 523 1077 490 1103 q 556 1000 556 1051 l 556 985 l 578 1001 l 282 1001 l 282 956 l 623 956 l 623 989 q 575 1115 623 1072 q 439 1158 527 1158 q 329 1135 376 1158 q 257 1066 282 1112 q 231 957 231 1021 "},"ᶠ":{"ha":861,"x_min":220,"x_max":631,"o":"m 631 1299 l 631 1357 q 537 1369 585 1369 q 440 1351 480 1369 q 377 1294 399 1334 q 356 1191 356 1255 l 356 764 l 424 764 l 424 1195 q 437 1266 424 1242 q 475 1300 451 1291 q 539 1309 500 1309 q 584 1307 564 1309 q 631 1299 604 1304 m 243 818 l 243 764 l 574 764 l 574 818 l 243 818 m 615 1095 l 615 1149 l 220 1149 l 220 1095 l 615 1095 "},"ᵍ":{"ha":861,"x_min":231,"x_max":600,"o":"m 231 974 q 251 878 231 919 q 307 814 271 837 q 394 791 344 791 q 469 807 435 791 q 528 851 503 824 l 544 851 l 544 909 q 484 862 515 876 q 420 848 454 848 q 332 882 363 848 q 301 974 301 915 q 333 1068 301 1034 q 422 1101 365 1101 q 485 1087 456 1101 q 544 1040 515 1073 l 544 1098 l 527 1098 q 472 1142 504 1126 q 397 1158 440 1158 q 310 1136 347 1158 q 252 1072 272 1113 q 231 974 231 1030 m 600 785 l 600 1149 l 543 1149 l 535 1081 l 532 1081 l 532 778 q 501 685 532 713 q 416 658 471 658 q 342 675 372 658 q 302 724 313 691 l 241 710 q 295 635 253 663 q 416 608 338 608 q 517 626 476 608 q 579 683 558 644 q 600 785 600 722 "},"ᵏ":{"ha":861,"x_min":260,"x_max":656,"o":"m 260 764 l 328 764 l 328 1341 l 260 1341 l 260 764 m 437 999 l 310 999 l 310 944 l 434 944 l 397 958 l 573 764 l 656 764 l 469 970 l 469 975 l 638 1149 l 558 1149 l 395 981 l 437 999 "},"ᵐ":{"ha":861,"x_min":245,"x_max":616,"o":"m 308 764 l 308 1085 l 306 1085 l 297 1149 l 245 1149 l 245 764 l 308 764 m 399 764 l 462 764 l 462 1090 q 444 1140 462 1123 q 395 1158 426 1158 q 344 1143 366 1158 q 308 1101 322 1128 l 289 1101 l 301 1057 q 329 1089 313 1076 q 364 1101 344 1101 q 389 1093 378 1101 q 399 1065 399 1085 l 399 764 m 553 764 l 616 764 l 616 1090 q 598 1141 616 1124 q 549 1158 580 1158 q 498 1143 520 1158 q 463 1101 476 1128 l 442 1101 l 455 1057 q 484 1090 469 1079 q 518 1101 500 1101 q 543 1093 533 1101 q 553 1065 553 1085 l 553 764 "},"ᵒ":{"ha":861,"x_min":231,"x_max":629,"o":"m 629 956 q 603 1066 629 1021 q 532 1135 576 1112 q 431 1158 487 1158 q 329 1135 374 1158 q 258 1067 284 1113 q 231 956 231 1021 q 258 846 231 891 q 329 778 284 801 q 431 755 374 755 q 532 778 487 755 q 603 846 576 801 q 629 956 629 892 m 559 956 q 524 847 559 884 q 431 810 490 810 q 336 847 371 810 q 301 956 301 884 q 336 1066 301 1028 q 431 1103 371 1103 q 524 1066 490 1103 q 559 956 559 1028 "},"ᵖ":{"ha":861,"x_min":260,"x_max":629,"o":"m 629 957 q 586 1104 629 1050 q 467 1158 543 1158 q 391 1142 424 1158 q 333 1098 358 1126 l 317 1098 l 317 1040 q 377 1088 347 1074 q 440 1101 407 1101 q 529 1065 499 1101 q 559 957 559 1028 q 528 849 559 885 q 439 812 497 812 q 375 826 405 812 q 317 873 345 840 l 317 815 l 333 815 q 388 771 356 788 q 463 755 420 755 q 551 779 514 755 q 609 849 589 803 q 629 957 629 894 m 328 617 l 328 1081 l 325 1081 l 317 1149 l 260 1149 l 260 617 l 328 617 "},"ᵗ":{"ha":861,"x_min":220,"x_max":617,"o":"m 607 1149 l 375 1149 l 363 1149 l 220 1149 l 220 1095 l 607 1095 l 607 1149 m 511 757 q 617 771 569 757 l 617 829 q 515 816 563 816 q 453 825 476 816 q 421 858 431 835 q 411 924 411 881 l 411 1272 l 344 1272 l 344 920 q 361 821 344 856 q 414 771 378 785 q 511 757 450 757 "},"ᵘ":{"ha":861,"x_min":261,"x_max":601,"o":"m 533 1149 l 533 828 l 535 828 l 544 764 l 601 764 l 601 1149 l 533 1149 m 329 1149 l 261 1149 l 261 874 q 293 784 261 813 q 383 755 326 755 q 466 773 431 755 q 528 819 500 790 l 546 819 l 546 884 q 486 830 519 849 q 410 810 452 810 q 351 829 374 810 q 329 892 329 847 l 329 1149 "},"ᵛ":{"ha":861,"x_min":224,"x_max":636,"o":"m 297 1149 l 224 1149 l 396 764 l 464 764 l 636 1149 l 570 1149 l 436 847 l 431 847 l 297 1149 "},"ᶻ":{"ha":861,"x_min":252,"x_max":608,"o":"m 592 1149 l 252 1149 l 252 1095 l 529 1095 l 510 1110 l 252 803 l 252 764 l 608 764 l 608 818 l 320 818 l 333 803 l 592 1110 l 592 1149 "},"⓿":{"ha":861,"x_min":13,"x_max":848,"o":"m 431 86 q 220 139 315 86 q 69 287 125 191 q 13 507 13 383 q 69 727 13 631 q 220 875 125 823 q 431 928 315 928 q 641 875 546 928 q 792 727 736 823 q 848 507 848 631 q 792 287 848 383 q 641 139 736 191 q 431 86 546 86 m 595 506 q 552 656 595 607 q 431 704 510 704 q 309 656 351 704 q 266 506 266 607 q 309 356 266 406 q 431 306 352 306 q 552 356 509 306 q 595 506 595 406 m 524 506 q 513 422 524 453 q 482 377 503 391 q 431 364 462 364 q 379 377 399 364 q 348 422 358 391 q 338 506 338 453 q 348 588 338 557 q 379 633 358 619 q 431 647 399 647 q 482 633 462 647 q 513 588 503 619 q 524 506 524 557 "},"❶":{"ha":861,"x_min":13,"x_max":848,"o":"m 431 86 q 220 139 315 86 q 69 287 125 191 q 13 507 13 383 q 69 727 13 631 q 220 875 125 823 q 431 928 315 928 q 641 875 546 928 q 792 727 736 823 q 848 507 848 631 q 792 287 848 383 q 641 139 736 191 q 431 86 546 86 m 305 631 l 305 564 q 356 576 329 564 q 406 608 383 588 l 406 368 l 294 368 l 294 313 l 588 313 l 588 368 l 474 368 l 474 698 l 406 698 q 385 665 403 681 q 345 640 368 649 q 305 631 322 631 "},"❷":{"ha":861,"x_min":13,"x_max":848,"o":"m 431 86 q 220 139 315 86 q 69 287 125 191 q 13 507 13 383 q 69 727 13 631 q 220 875 125 823 q 431 928 315 928 q 641 875 546 928 q 792 727 736 823 q 848 507 848 631 q 792 287 848 383 q 641 139 736 191 q 431 86 546 86 m 417 704 q 345 691 376 704 q 296 653 314 678 q 278 593 278 628 l 343 588 q 368 637 347 623 q 426 651 388 651 q 480 638 460 651 q 499 597 499 626 q 484 553 499 571 q 439 521 468 536 q 408 506 429 515 q 337 466 365 485 q 294 423 309 447 q 278 368 278 399 l 278 313 l 582 313 l 582 368 l 344 368 q 356 399 345 386 q 385 424 366 412 q 440 453 403 435 q 453 460 447 457 q 511 493 488 476 q 551 535 535 509 q 568 597 568 561 q 528 678 568 651 q 417 704 488 704 "},"❸":{"ha":861,"x_min":13,"x_max":848,"o":"m 431 86 q 220 139 315 86 q 69 287 125 191 q 13 507 13 383 q 69 727 13 631 q 220 875 125 823 q 431 928 315 928 q 641 875 546 928 q 792 727 736 823 q 848 507 848 631 q 792 287 848 383 q 641 139 736 191 q 431 86 546 86 m 426 704 q 323 676 359 704 q 285 594 286 648 l 348 588 q 372 637 352 624 q 428 651 392 651 q 487 638 467 651 q 507 597 507 626 q 477 546 507 565 q 397 528 447 528 l 388 528 l 388 478 l 398 478 q 458 472 431 478 q 500 453 484 466 q 515 419 515 440 q 494 375 515 390 q 431 360 472 360 q 367 375 389 360 q 340 426 346 389 l 275 420 q 293 357 276 383 q 345 319 311 332 q 431 306 380 306 q 545 335 506 306 q 585 417 585 363 q 564 477 585 456 q 504 508 542 499 q 555 543 535 520 q 574 601 574 567 q 535 678 574 651 q 426 704 497 704 "},"❹":{"ha":861,"x_min":13,"x_max":848,"o":"m 431 86 q 220 139 315 86 q 69 287 125 191 q 13 507 13 383 q 69 727 13 631 q 220 875 125 823 q 431 928 315 928 q 641 875 546 928 q 792 727 736 823 q 848 507 848 631 q 792 287 848 383 q 641 139 736 191 q 431 86 546 86 m 461 313 l 528 313 l 528 410 l 578 410 l 578 465 l 528 465 l 528 698 l 457 698 l 255 465 l 255 410 l 461 410 l 461 313 m 461 458 l 319 458 l 461 617 l 461 458 "},"❺":{"ha":861,"x_min":13,"x_max":848,"o":"m 431 86 q 220 139 315 86 q 69 287 125 191 q 13 507 13 383 q 69 727 13 631 q 220 875 125 823 q 431 928 315 928 q 641 875 546 928 q 792 727 736 823 q 848 507 848 631 q 792 287 848 383 q 641 139 736 191 q 431 86 546 86 m 562 698 l 310 698 l 282 492 l 343 483 q 383 507 360 498 q 431 515 406 515 q 495 495 473 515 q 517 438 517 475 q 495 378 517 396 q 431 361 474 361 q 368 375 390 361 q 341 426 347 389 l 275 420 q 316 335 276 363 q 431 306 356 306 q 546 338 507 306 q 585 436 585 369 q 548 527 585 494 q 443 559 510 559 q 393 554 416 559 q 351 540 371 549 l 367 642 l 562 642 l 562 698 "},"❻":{"ha":861,"x_min":13,"x_max":848,"o":"m 431 86 q 220 139 315 86 q 69 287 125 191 q 13 507 13 383 q 69 727 13 631 q 220 875 125 823 q 431 928 315 928 q 641 875 546 928 q 792 727 736 823 q 848 507 848 631 q 792 287 848 383 q 641 139 736 191 q 431 86 546 86 m 435 704 q 312 659 356 704 q 268 507 268 614 q 309 351 268 396 q 426 306 350 306 q 545 337 505 306 q 585 433 585 367 q 551 519 585 492 q 453 547 517 547 q 339 505 392 547 q 351 592 339 560 q 383 638 363 624 q 432 651 403 651 q 489 638 469 651 q 513 594 508 624 l 577 599 q 537 678 576 651 q 435 704 498 704 m 340 466 q 439 501 387 501 q 496 484 475 501 q 517 433 517 466 q 493 379 517 397 q 428 361 469 361 q 368 385 390 361 q 340 466 346 408 "},"❼":{"ha":861,"x_min":13,"x_max":848,"o":"m 431 86 q 220 139 315 86 q 69 287 125 191 q 13 507 13 383 q 69 727 13 631 q 220 875 125 823 q 431 928 315 928 q 641 875 546 928 q 792 727 736 823 q 848 507 848 631 q 792 287 848 383 q 641 139 736 191 q 431 86 546 86 m 578 693 l 283 693 l 283 638 l 503 638 l 356 308 l 427 308 l 578 651 l 578 693 "},"❽":{"ha":861,"x_min":13,"x_max":848,"o":"m 431 86 q 220 139 315 86 q 69 287 125 191 q 13 507 13 383 q 69 727 13 631 q 220 875 125 823 q 431 928 315 928 q 641 875 546 928 q 792 727 736 823 q 848 507 848 631 q 792 287 848 383 q 641 139 736 191 q 431 86 546 86 m 431 704 q 354 693 387 704 q 302 660 321 683 q 284 601 284 637 q 302 549 284 572 q 355 508 319 526 q 292 469 314 492 q 270 413 270 446 q 310 332 270 358 q 431 306 350 306 q 550 334 509 306 q 591 417 591 361 q 569 472 591 449 q 505 514 547 496 q 558 549 538 528 q 578 603 578 571 q 559 660 578 637 q 507 693 540 683 q 431 704 474 704 m 337 418 q 354 459 337 443 q 401 488 372 476 q 470 463 450 471 q 505 443 490 456 q 520 413 520 431 q 497 375 520 389 q 433 360 474 360 q 363 373 389 360 q 337 418 337 386 m 350 604 q 371 640 350 628 q 430 651 392 651 q 492 638 470 651 q 515 598 515 625 q 506 570 515 582 q 483 549 497 558 q 450 533 469 541 q 374 566 397 550 q 350 604 350 583 "},"❾":{"ha":861,"x_min":13,"x_max":848,"o":"m 431 86 q 220 139 315 86 q 69 287 125 191 q 13 507 13 383 q 69 727 13 631 q 220 875 125 823 q 431 928 315 928 q 641 875 546 928 q 792 727 736 823 q 848 507 848 631 q 792 287 848 383 q 641 139 736 191 q 431 86 546 86 m 425 307 q 548 352 503 307 q 592 503 592 397 q 551 659 592 615 q 434 704 510 704 q 315 674 355 704 q 275 578 275 643 q 309 491 275 519 q 407 463 344 463 q 469 475 442 463 q 521 505 497 486 q 509 418 521 450 q 477 373 497 385 q 428 360 456 360 q 371 373 390 360 q 347 417 352 387 l 283 411 q 323 333 284 360 q 425 307 363 307 m 344 578 q 367 632 344 614 q 432 650 391 650 q 492 626 470 650 q 519 544 515 601 q 473 519 498 528 q 422 509 449 509 q 364 527 385 509 q 344 578 344 544 "},"⓪":{"ha":861,"x_min":13,"x_max":848,"o":"m 431 86 q 641 139 546 86 q 792 287 736 191 q 848 507 848 383 q 792 727 848 631 q 641 875 736 823 q 431 928 546 928 q 220 875 315 928 q 69 727 125 823 q 13 507 13 631 q 69 287 13 383 q 220 139 125 191 q 431 86 315 86 m 431 139 q 246 185 329 139 q 114 315 163 231 q 66 507 66 399 q 114 699 66 615 q 246 829 163 783 q 431 875 329 875 q 615 829 532 875 q 747 699 699 783 q 795 507 795 615 q 747 315 795 399 q 615 185 699 231 q 431 139 532 139 m 595 506 q 552 656 595 607 q 431 704 510 704 q 309 656 351 704 q 266 506 266 607 q 309 356 266 406 q 431 306 352 306 q 552 356 509 306 q 595 506 595 406 m 524 506 q 513 422 524 453 q 482 377 503 391 q 431 364 462 364 q 379 377 399 364 q 348 422 358 391 q 338 506 338 453 q 348 588 338 557 q 379 633 358 619 q 431 647 399 647 q 482 633 462 647 q 513 588 503 619 q 524 506 524 557 "},"①":{"ha":861,"x_min":13,"x_max":848,"o":"m 431 86 q 641 139 546 86 q 792 287 736 191 q 848 507 848 383 q 792 727 848 631 q 641 875 736 823 q 431 928 546 928 q 220 875 315 928 q 69 727 125 823 q 13 507 13 631 q 69 287 13 383 q 220 139 125 191 q 431 86 315 86 m 431 139 q 246 185 329 139 q 114 315 163 231 q 66 507 66 399 q 114 699 66 615 q 246 829 163 783 q 431 875 329 875 q 615 829 532 875 q 747 699 699 783 q 795 507 795 615 q 747 315 795 399 q 615 185 699 231 q 431 139 532 139 m 305 631 l 305 564 q 356 576 329 564 q 406 608 383 588 l 406 368 l 294 368 l 294 313 l 588 313 l 588 368 l 474 368 l 474 698 l 406 698 q 385 665 403 681 q 345 640 368 649 q 305 631 322 631 "},"②":{"ha":861,"x_min":13,"x_max":848,"o":"m 431 86 q 641 139 546 86 q 792 287 736 191 q 848 507 848 383 q 792 727 848 631 q 641 875 736 823 q 431 928 546 928 q 220 875 315 928 q 69 727 125 823 q 13 507 13 631 q 69 287 13 383 q 220 139 125 191 q 431 86 315 86 m 431 139 q 246 185 329 139 q 114 315 163 231 q 66 507 66 399 q 114 699 66 615 q 246 829 163 783 q 431 875 329 875 q 615 829 532 875 q 747 699 699 783 q 795 507 795 615 q 747 315 795 399 q 615 185 699 231 q 431 139 532 139 m 417 704 q 345 691 376 704 q 296 653 314 678 q 278 593 278 628 l 343 588 q 368 637 347 623 q 426 651 388 651 q 480 638 460 651 q 499 597 499 626 q 484 553 499 571 q 439 521 468 536 q 408 506 429 515 q 337 466 365 485 q 294 423 309 447 q 278 368 278 399 l 278 313 l 582 313 l 582 368 l 344 368 q 356 399 345 386 q 385 424 366 412 q 440 453 403 435 q 453 460 447 457 q 511 493 488 476 q 551 535 535 509 q 568 597 568 561 q 528 678 568 651 q 417 704 488 704 "},"③":{"ha":861,"x_min":13,"x_max":848,"o":"m 431 86 q 641 139 546 86 q 792 287 736 191 q 848 507 848 383 q 792 727 848 631 q 641 875 736 823 q 431 928 546 928 q 220 875 315 928 q 69 727 125 823 q 13 507 13 631 q 69 287 13 383 q 220 139 125 191 q 431 86 315 86 m 431 139 q 246 185 329 139 q 114 315 163 231 q 66 507 66 399 q 114 699 66 615 q 246 829 163 783 q 431 875 329 875 q 615 829 532 875 q 747 699 699 783 q 795 507 795 615 q 747 315 795 399 q 615 185 699 231 q 431 139 532 139 m 426 704 q 323 676 359 704 q 285 594 286 648 l 348 588 q 372 637 352 624 q 428 651 392 651 q 487 638 467 651 q 507 597 507 626 q 477 546 507 565 q 397 528 447 528 l 388 528 l 388 478 l 398 478 q 458 472 431 478 q 500 453 484 466 q 515 419 515 440 q 494 375 515 390 q 431 360 472 360 q 367 375 389 360 q 340 426 346 389 l 275 420 q 293 357 276 383 q 345 319 311 332 q 431 306 380 306 q 545 335 506 306 q 585 417 585 363 q 564 477 585 456 q 504 508 542 499 q 555 543 535 520 q 574 601 574 567 q 535 678 574 651 q 426 704 497 704 "},"④":{"ha":861,"x_min":13,"x_max":848,"o":"m 431 86 q 641 139 546 86 q 792 287 736 191 q 848 507 848 383 q 792 727 848 631 q 641 875 736 823 q 431 928 546 928 q 220 875 315 928 q 69 727 125 823 q 13 507 13 631 q 69 287 13 383 q 220 139 125 191 q 431 86 315 86 m 431 139 q 246 185 329 139 q 114 315 163 231 q 66 507 66 399 q 114 699 66 615 q 246 829 163 783 q 431 875 329 875 q 615 829 532 875 q 747 699 699 783 q 795 507 795 615 q 747 315 795 399 q 615 185 699 231 q 431 139 532 139 m 461 313 l 528 313 l 528 410 l 578 410 l 578 465 l 528 465 l 528 698 l 457 698 l 255 465 l 255 410 l 461 410 l 461 313 m 461 458 l 319 458 l 461 617 l 461 458 "},"⑤":{"ha":861,"x_min":13,"x_max":848,"o":"m 431 86 q 641 139 546 86 q 792 287 736 191 q 848 507 848 383 q 792 727 848 631 q 641 875 736 823 q 431 928 546 928 q 220 875 315 928 q 69 727 125 823 q 13 507 13 631 q 69 287 13 383 q 220 139 125 191 q 431 86 315 86 m 431 139 q 246 185 329 139 q 114 315 163 231 q 66 507 66 399 q 114 699 66 615 q 246 829 163 783 q 431 875 329 875 q 615 829 532 875 q 747 699 699 783 q 795 507 795 615 q 747 315 795 399 q 615 185 699 231 q 431 139 532 139 m 562 698 l 310 698 l 282 492 l 343 483 q 383 507 360 498 q 431 515 406 515 q 495 495 473 515 q 517 438 517 475 q 495 378 517 396 q 431 361 474 361 q 368 375 390 361 q 341 426 347 389 l 275 420 q 316 335 276 363 q 431 306 356 306 q 546 338 507 306 q 585 436 585 369 q 548 527 585 494 q 443 559 510 559 q 393 554 416 559 q 351 540 371 549 l 367 642 l 562 642 l 562 698 "},"⑥":{"ha":861,"x_min":13,"x_max":848,"o":"m 431 86 q 641 139 546 86 q 792 287 736 191 q 848 507 848 383 q 792 727 848 631 q 641 875 736 823 q 431 928 546 928 q 220 875 315 928 q 69 727 125 823 q 13 507 13 631 q 69 287 13 383 q 220 139 125 191 q 431 86 315 86 m 431 139 q 246 185 329 139 q 114 315 163 231 q 66 507 66 399 q 114 699 66 615 q 246 829 163 783 q 431 875 329 875 q 615 829 532 875 q 747 699 699 783 q 795 507 795 615 q 747 315 795 399 q 615 185 699 231 q 431 139 532 139 m 435 704 q 312 659 356 704 q 268 507 268 614 q 309 351 268 396 q 426 306 350 306 q 545 337 505 306 q 585 433 585 367 q 551 519 585 492 q 453 547 517 547 q 339 505 392 547 q 351 592 339 560 q 383 638 363 624 q 432 651 403 651 q 489 638 469 651 q 513 594 508 624 l 577 599 q 537 678 576 651 q 435 704 498 704 m 340 466 q 439 501 387 501 q 496 484 475 501 q 517 433 517 466 q 493 379 517 397 q 428 361 469 361 q 368 385 390 361 q 340 466 346 408 "},"⑦":{"ha":861,"x_min":13,"x_max":848,"o":"m 431 86 q 641 139 546 86 q 792 287 736 191 q 848 507 848 383 q 792 727 848 631 q 641 875 736 823 q 431 928 546 928 q 220 875 315 928 q 69 727 125 823 q 13 507 13 631 q 69 287 13 383 q 220 139 125 191 q 431 86 315 86 m 431 139 q 246 185 329 139 q 114 315 163 231 q 66 507 66 399 q 114 699 66 615 q 246 829 163 783 q 431 875 329 875 q 615 829 532 875 q 747 699 699 783 q 795 507 795 615 q 747 315 795 399 q 615 185 699 231 q 431 139 532 139 m 578 693 l 283 693 l 283 638 l 503 638 l 356 308 l 427 308 l 578 651 l 578 693 "},"⑧":{"ha":861,"x_min":13,"x_max":848,"o":"m 431 86 q 641 139 546 86 q 792 287 736 191 q 848 507 848 383 q 792 727 848 631 q 641 875 736 823 q 431 928 546 928 q 220 875 315 928 q 69 727 125 823 q 13 507 13 631 q 69 287 13 383 q 220 139 125 191 q 431 86 315 86 m 431 139 q 246 185 329 139 q 114 315 163 231 q 66 507 66 399 q 114 699 66 615 q 246 829 163 783 q 431 875 329 875 q 615 829 532 875 q 747 699 699 783 q 795 507 795 615 q 747 315 795 399 q 615 185 699 231 q 431 139 532 139 m 431 704 q 354 693 387 704 q 302 660 321 683 q 284 601 284 637 q 302 549 284 572 q 355 508 319 526 q 292 469 314 492 q 270 413 270 446 q 310 332 270 358 q 431 306 350 306 q 550 334 509 306 q 591 417 591 361 q 569 472 591 449 q 505 514 547 496 q 558 549 538 528 q 578 603 578 571 q 559 660 578 637 q 507 693 540 683 q 431 704 474 704 m 337 418 q 354 459 337 443 q 401 488 372 476 q 470 463 450 471 q 505 443 490 456 q 520 413 520 431 q 497 375 520 389 q 433 360 474 360 q 363 373 389 360 q 337 418 337 386 m 350 604 q 371 640 350 628 q 430 651 392 651 q 492 638 470 651 q 515 598 515 625 q 506 570 515 582 q 483 549 497 558 q 450 533 469 541 q 374 566 397 550 q 350 604 350 583 "},"⑨":{"ha":861,"x_min":13,"x_max":848,"o":"m 431 86 q 641 139 546 86 q 792 287 736 191 q 848 507 848 383 q 792 727 848 631 q 641 875 736 823 q 431 928 546 928 q 220 875 315 928 q 69 727 125 823 q 13 507 13 631 q 69 287 13 383 q 220 139 125 191 q 431 86 315 86 m 431 139 q 246 185 329 139 q 114 315 163 231 q 66 507 66 399 q 114 699 66 615 q 246 829 163 783 q 431 875 329 875 q 615 829 532 875 q 747 699 699 783 q 795 507 795 615 q 747 315 795 399 q 615 185 699 231 q 431 139 532 139 m 425 307 q 548 352 503 307 q 592 503 592 397 q 551 659 592 615 q 434 704 510 704 q 315 674 355 704 q 275 578 275 643 q 309 491 275 519 q 407 463 344 463 q 469 475 442 463 q 521 505 497 486 q 509 418 521 450 q 477 373 497 385 q 428 360 456 360 q 371 373 390 360 q 347 417 352 387 l 283 411 q 323 333 284 360 q 425 307 363 307 m 344 578 q 367 632 344 614 q 432 650 391 650 q 492 626 470 650 q 519 544 515 601 q 473 519 498 528 q 422 509 449 509 q 364 527 385 509 q 344 578 344 544 "},"⑴":{"ha":861,"x_min":13,"x_max":848,"o":"m 72 507 q 95 651 72 585 q 156 767 118 716 q 245 867 193 819 l 188 867 q 61 716 110 804 q 13 507 13 628 q 61 298 13 385 q 188 147 110 210 l 245 147 q 156 247 193 195 q 95 363 118 298 q 72 507 72 428 m 789 507 q 766 363 789 428 q 706 247 743 298 q 616 147 668 195 l 674 147 q 800 298 751 210 q 848 507 848 385 q 800 716 848 628 q 674 867 751 804 l 616 867 q 706 767 668 819 q 766 651 743 716 q 789 507 789 585 m 305 631 l 305 564 q 356 576 329 564 q 406 608 383 588 l 406 368 l 294 368 l 294 313 l 588 313 l 588 368 l 474 368 l 474 698 l 406 698 q 385 665 403 681 q 345 640 368 649 q 305 631 322 631 "},"⑵":{"ha":861,"x_min":13,"x_max":848,"o":"m 72 507 q 95 651 72 585 q 156 767 118 716 q 245 867 193 819 l 188 867 q 61 716 110 804 q 13 507 13 628 q 61 298 13 385 q 188 147 110 210 l 245 147 q 156 247 193 195 q 95 363 118 298 q 72 507 72 428 m 789 507 q 766 363 789 428 q 706 247 743 298 q 616 147 668 195 l 674 147 q 800 298 751 210 q 848 507 848 385 q 800 716 848 628 q 674 867 751 804 l 616 867 q 706 767 668 819 q 766 651 743 716 q 789 507 789 585 m 417 704 q 345 691 376 704 q 296 653 314 678 q 278 593 278 628 l 343 588 q 368 637 347 623 q 426 651 388 651 q 480 638 460 651 q 499 597 499 626 q 484 553 499 571 q 439 521 468 536 q 408 506 429 515 q 337 466 365 485 q 294 423 309 447 q 278 368 278 399 l 278 313 l 582 313 l 582 368 l 344 368 q 356 399 345 386 q 385 424 366 412 q 440 453 403 435 q 453 460 447 457 q 511 493 488 476 q 551 535 535 509 q 568 597 568 561 q 528 678 568 651 q 417 704 488 704 "}}}
